<svg width="427" height="446" viewBox="0 0 427 446" fill="none" xmlns="http://www.w3.org/2000/svg">
<path d="M213.478 446C330.997 446 426.264 390.996 426.264 323.146C426.264 255.296 330.997 200.293 213.478 200.293C95.9594 200.293 0.69165 255.296 0.69165 323.146C0.69165 390.996 95.9594 446 213.478 446Z" fill="#F5F5F5"/>
<path d="M59.6102 353.736C76.7578 353.736 90.6587 345.711 90.6587 335.811C90.6587 325.912 76.7578 317.887 59.6102 317.887C42.4626 317.887 28.5618 325.912 28.5618 335.811C28.5618 345.711 42.4626 353.736 59.6102 353.736Z" fill="#E0E0E0"/>
<path d="M187.784 296.565L102.255 345.947L40.082 309.784L125.601 260.402L187.784 296.565Z" fill="#E0E0E0"/>
<path d="M327.173 397.973L116.916 276.58C116.477 276.329 116.113 275.968 115.86 275.531C115.606 275.094 115.473 274.598 115.473 274.094C115.473 273.589 115.606 273.093 115.86 272.656C116.113 272.22 116.477 271.858 116.916 271.607L150.847 252.013C152.232 251.216 153.802 250.796 155.4 250.796C156.997 250.796 158.567 251.216 159.952 252.013L370.209 373.406C370.648 373.657 371.012 374.019 371.266 374.455C371.519 374.892 371.652 375.388 371.652 375.893C371.652 376.397 371.519 376.893 371.266 377.33C371.012 377.767 370.648 378.128 370.209 378.379L336.278 397.973C334.894 398.771 333.324 399.19 331.726 399.19C330.128 399.19 328.558 398.771 327.173 397.973Z" fill="#E0E0E0"/>
<path d="M359.968 335.248L371.784 342.111C371.784 342.111 365.819 323.08 369.131 303.934C370.381 296.699 373.006 293.111 373.903 291.183C374.8 289.255 381.949 277.315 375.678 271.808C369.408 266.301 354.68 277.248 355.348 306.74C355.682 316.399 357.234 325.978 359.968 335.248Z" fill="#6CB2D7"/>
<path d="M359.968 335.248L371.784 342.111C371.784 342.111 365.819 323.08 369.131 303.934C370.381 296.699 373.006 293.111 373.903 291.183C374.8 289.255 381.949 277.315 375.678 271.808C369.408 266.301 354.68 277.248 355.348 306.74C355.682 316.399 357.234 325.978 359.968 335.248Z" fill="#204193"/>
<path d="M365.456 338.866C365.369 338.866 365.284 338.839 365.213 338.79C365.141 338.74 365.086 338.67 365.055 338.589C365.055 338.465 360.55 326.076 360.789 306.196C361.027 286.315 371.507 275.568 371.622 275.463C371.661 275.423 371.708 275.391 371.759 275.369C371.811 275.348 371.866 275.336 371.922 275.336C371.978 275.336 372.034 275.348 372.086 275.369C372.137 275.391 372.184 275.423 372.223 275.463C372.302 275.543 372.346 275.651 372.346 275.764C372.346 275.876 372.302 275.984 372.223 276.064C372.118 276.169 361.877 286.563 361.638 306.196C361.4 325.828 365.819 338.159 365.857 338.283C365.897 338.39 365.894 338.508 365.847 338.612C365.801 338.715 365.715 338.796 365.609 338.837L365.456 338.866Z" fill="white"/>
<path d="M363.289 337.024L382.817 348.477C382.817 348.477 391.751 347.16 391.074 338.751C390.396 330.343 386.769 328.357 391.293 324.654C395.817 320.951 397.02 320.712 396.762 317.086C396.504 313.459 394.109 311.884 392.944 310.405C391.78 308.925 388.601 305.957 390.854 301.586C393.106 297.214 396.151 292.996 391.618 290.992C388.916 289.789 384.373 291.287 381.367 294.485C378.36 297.682 375.869 299.982 373.015 300.727C370.161 301.471 364.206 301.528 364.425 306.453C364.645 311.378 365.905 313.068 364.711 315.253C362.43 319.462 352.886 321.648 363.289 337.024Z" fill="#4B70CD"/>
<path d="M371.24 342.13C371.133 342.13 371.031 342.09 370.953 342.017C370.875 341.944 370.827 341.845 370.82 341.738C370.82 341.452 368.672 312.39 388.859 293.311C388.898 293.271 388.945 293.239 388.997 293.217C389.048 293.195 389.104 293.184 389.16 293.184C389.216 293.184 389.271 293.195 389.323 293.217C389.375 293.239 389.421 293.271 389.461 293.311C389.502 293.349 389.535 293.396 389.557 293.448C389.58 293.499 389.592 293.555 389.592 293.612C389.592 293.668 389.58 293.724 389.557 293.776C389.535 293.827 389.502 293.874 389.461 293.912C369.57 312.705 371.66 341.366 371.679 341.634C371.687 341.746 371.65 341.857 371.577 341.943C371.504 342.028 371.4 342.082 371.288 342.092L371.24 342.13Z" fill="white"/>
<path d="M374.743 317.191C374.634 317.189 374.53 317.147 374.451 317.073C374.372 316.999 374.323 316.898 374.313 316.79C374.157 314.546 373.547 312.357 372.52 310.355C371.493 308.354 370.07 306.582 368.338 305.146C368.257 305.076 368.205 304.978 368.192 304.872C368.179 304.766 368.206 304.658 368.268 304.571C368.331 304.484 368.423 304.423 368.528 304.4C368.633 304.378 368.742 304.395 368.835 304.449C370.687 305.949 372.208 307.819 373.299 309.938C374.39 312.058 375.028 314.382 375.172 316.761C375.177 316.818 375.171 316.875 375.153 316.929C375.136 316.983 375.108 317.033 375.07 317.076C375.033 317.119 374.987 317.154 374.935 317.179C374.884 317.203 374.828 317.217 374.771 317.219L374.743 317.191Z" fill="white"/>
<path d="M373.302 322.154C373.219 322.153 373.139 322.128 373.07 322.082C373.001 322.037 372.947 321.973 372.914 321.897C372.88 321.822 372.87 321.738 372.883 321.657C372.895 321.575 372.932 321.499 372.987 321.438C373.197 321.209 378.255 315.711 389.966 317.353C390.076 317.373 390.173 317.434 390.238 317.525C390.303 317.615 390.33 317.727 390.314 317.837C390.298 317.948 390.24 318.047 390.152 318.115C390.064 318.183 389.953 318.214 389.842 318.202C378.618 316.656 373.617 321.963 373.617 322.02C373.576 322.063 373.528 322.097 373.473 322.12C373.419 322.143 373.361 322.155 373.302 322.154Z" fill="white"/>
<path d="M341.433 249.35L314.183 233.392L330.418 255.707L341.433 249.35Z" fill="#0089D1"/>
<path opacity="0.6" d="M341.433 249.35L314.183 233.392L330.418 255.707L341.433 249.35Z" fill="black"/>
<path d="M325.207 308.41L165.717 216.327C165.033 215.933 164.464 215.366 164.069 214.682C163.673 213.998 163.465 213.223 163.465 212.433V103.542C163.466 102.752 163.675 101.976 164.071 101.293C164.467 100.609 165.036 100.041 165.72 99.6466C166.405 99.2521 167.181 99.0445 167.971 99.0449C168.762 99.0452 169.538 99.2533 170.222 99.6484L329.712 191.731C330.396 192.125 330.965 192.693 331.36 193.376C331.756 194.06 331.964 194.836 331.964 195.625V304.516C331.963 305.306 331.754 306.082 331.358 306.766C330.962 307.45 330.393 308.017 329.709 308.412C329.024 308.806 328.248 309.014 327.457 309.013C326.667 309.013 325.891 308.805 325.207 308.41Z" fill="#E0E0E0"/>
<path d="M330.418 255.707L341.433 249.35V378.255C341.432 379.416 341.125 380.557 340.544 381.562C339.963 382.567 339.127 383.402 338.121 383.981L327.23 390.29L330.418 255.707Z" fill="#3B82F6"/>
<path opacity="0.3" d="M330.418 255.707L341.433 249.35V378.255C341.432 379.416 341.125 380.557 340.544 381.562C339.963 382.567 339.127 383.402 338.121 383.981L327.23 390.29L330.418 255.707Z" fill="#8A2727"/>
<path d="M318 312.485L158.511 220.402C157.826 220.007 157.257 219.438 156.861 218.752C156.466 218.067 156.258 217.29 156.258 216.499V107.58C156.274 106.797 156.493 106.033 156.893 105.361C157.294 104.689 157.863 104.133 158.544 103.747C159.225 103.362 159.995 103.161 160.777 103.163C161.56 103.166 162.328 103.372 163.006 103.762L322.505 195.845C323.191 196.241 323.76 196.81 324.155 197.495C324.55 198.18 324.758 198.957 324.758 199.749V308.582C324.758 309.373 324.55 310.15 324.155 310.835C323.76 311.52 323.191 312.089 322.506 312.485C321.821 312.88 321.044 313.089 320.253 313.089C319.462 313.089 318.685 312.881 318 312.485Z" fill="#EBEBEB"/>
<path d="M310.766 316.752L151.266 224.669C150.582 224.272 150.014 223.703 149.618 223.018C149.223 222.333 149.014 221.556 149.014 220.765V111.875C149.015 111.084 149.224 110.309 149.62 109.625C150.016 108.941 150.585 108.373 151.27 107.979C151.954 107.584 152.731 107.377 153.521 107.377C154.311 107.377 155.087 107.585 155.771 107.981L315.261 200.064C315.945 200.458 316.514 201.025 316.909 201.709C317.305 202.392 317.513 203.168 317.514 203.958V312.848C317.513 313.638 317.305 314.413 316.91 315.097C316.515 315.781 315.948 316.349 315.264 316.744C314.581 317.14 313.806 317.348 313.016 317.35C312.226 317.351 311.45 317.145 310.766 316.752Z" fill="#FAFAFA"/>
<path d="M126.565 110.443V270.5C126.564 272.773 127.162 275.006 128.298 276.975C129.434 278.943 131.068 280.578 133.036 281.715L321.064 390.242C322.015 390.792 323.093 391.082 324.191 391.083C325.289 391.083 326.367 390.795 327.318 390.246C328.27 389.698 329.059 388.909 329.608 387.958C330.158 387.007 330.447 385.929 330.447 384.831V255.707L231.269 198.441L214.165 158.918C210.971 151.537 205.486 145.38 198.522 141.357L135.757 105.089C134.823 104.542 133.76 104.254 132.678 104.253C131.596 104.252 130.533 104.539 129.598 105.084C128.663 105.628 127.89 106.411 127.357 107.353C126.824 108.295 126.551 109.361 126.565 110.443Z" fill="#3B82F6"/>
<path opacity="0.2" d="M126.565 110.443V270.5C126.564 272.773 127.162 275.006 128.298 276.975C129.434 278.943 131.068 280.578 133.036 281.715L321.064 390.242C322.015 390.792 323.093 391.082 324.191 391.083C325.289 391.083 326.367 390.795 327.318 390.246C328.27 389.698 329.059 388.909 329.608 387.958C330.158 387.007 330.447 385.929 330.447 384.831V255.707L231.269 198.441L214.165 158.918C210.971 151.537 205.486 145.38 198.522 141.357L135.757 105.089C134.823 104.542 133.76 104.254 132.678 104.253C131.596 104.252 130.533 104.539 129.598 105.084C128.663 105.628 127.89 106.411 127.357 107.353C126.824 108.295 126.551 109.361 126.565 110.443Z" fill="#8A2727"/>
<path d="M275.575 285.103C275.068 284.804 274.546 284.534 274.01 284.292C273.59 272.018 265.019 257.463 254.501 251.393C250.95 249.35 247.629 248.529 244.765 248.777C240.757 235.778 231.546 223.008 220.818 216.795C207.131 208.892 195.916 214.58 194.819 229.431C194.16 228.973 193.501 228.544 192.824 228.162C182.43 222.158 174.011 227.026 174.011 239.023C174.011 251.02 182.43 265.604 192.824 271.598L275.575 319.338C283.774 324.11 290.426 320.235 290.426 310.748C290.426 301.261 283.774 289.799 275.575 285.103Z" fill="#3B82F6"/>
<path opacity="0.4" d="M275.575 285.103C275.068 284.804 274.546 284.534 274.01 284.292C273.59 272.018 265.019 257.463 254.501 251.393C250.95 249.35 247.629 248.529 244.765 248.777C240.757 235.778 231.546 223.008 220.818 216.795C207.131 208.892 195.916 214.58 194.819 229.431C194.16 228.973 193.501 228.544 192.824 228.162C182.43 222.158 174.011 227.026 174.011 239.023C174.011 251.02 182.43 265.604 192.824 271.598L275.575 319.338C283.774 324.11 290.426 320.235 290.426 310.748C290.426 301.261 283.774 289.799 275.575 285.103Z" fill="white"/>
<path d="M205.069 283.996L224.569 319.538L245.405 306.911L237.168 302.263V267.083L214.967 254.284V289.76L205.069 283.996Z" fill="white"/>
<path d="M148.976 59.3143C128.188 59.3157 107.941 65.9373 91.1688 78.2192C74.3971 90.5011 61.9729 107.805 55.6971 127.623L47.8038 123.07C47.5713 122.937 47.3089 122.865 47.0411 122.861C46.7733 122.857 46.5089 122.921 46.2725 123.047C46.0361 123.172 45.8354 123.356 45.6892 123.58C45.5431 123.805 45.4562 124.063 45.4367 124.33C44.0128 139.625 46.2202 155.04 51.8793 169.321C54.6734 176.41 58.445 183.073 63.0846 189.116C63.234 189.304 63.4302 189.449 63.6533 189.536C63.8765 189.624 64.1188 189.651 64.3558 189.615C64.5929 189.579 64.8163 189.482 65.0037 189.332C65.191 189.183 65.3356 188.986 65.423 188.763C68.8628 180.136 73.6077 172.089 79.4917 164.902C83.2979 160.183 87.577 155.866 92.2623 152.018C92.5254 151.803 92.7323 151.528 92.8651 151.215C92.9978 150.903 93.0525 150.563 93.0243 150.224C92.9961 149.886 92.8859 149.56 92.7032 149.273C92.5206 148.987 92.271 148.75 91.976 148.582L82.5078 143.122C87.5537 124.886 98.5833 108.875 113.825 97.662C129.066 86.4487 147.634 80.6841 166.547 81.2941C185.459 81.9042 203.617 88.8535 218.104 101.026C232.591 113.198 242.566 129.886 246.426 148.41C244.243 124.073 233.031 101.434 214.997 84.9456C196.963 68.4576 173.412 59.3143 148.976 59.3143Z" fill="#3B82F6"/>
<path opacity="0.4" d="M148.976 59.3143C128.188 59.3157 107.941 65.9373 91.1688 78.2192C74.3971 90.5011 61.9729 107.805 55.6971 127.623L47.8038 123.07C47.5713 122.937 47.3089 122.865 47.0411 122.861C46.7733 122.857 46.5089 122.921 46.2725 123.047C46.0361 123.172 45.8354 123.356 45.6892 123.58C45.5431 123.805 45.4562 124.063 45.4367 124.33C44.0128 139.625 46.2202 155.04 51.8793 169.321C54.6734 176.41 58.445 183.073 63.0846 189.116C63.234 189.304 63.4302 189.449 63.6533 189.536C63.8765 189.624 64.1188 189.651 64.3558 189.615C64.5929 189.579 64.8163 189.482 65.0037 189.332C65.191 189.183 65.3356 188.986 65.423 188.763C68.8628 180.136 73.6077 172.089 79.4917 164.902C83.2979 160.183 87.577 155.866 92.2623 152.018C92.5254 151.803 92.7323 151.528 92.8651 151.215C92.9978 150.903 93.0525 150.563 93.0243 150.224C92.9961 149.886 92.8859 149.56 92.7032 149.273C92.5206 148.987 92.271 148.75 91.976 148.582L82.5078 143.122C87.5537 124.886 98.5833 108.875 113.825 97.662C129.066 86.4487 147.634 80.6841 166.547 81.2941C185.459 81.9042 203.617 88.8535 218.104 101.026C232.591 113.198 242.566 129.886 246.426 148.41C244.243 124.073 233.031 101.434 214.997 84.9456C196.963 68.4576 173.412 59.3143 148.976 59.3143Z" fill="white"/>
<path d="M337.15 79.5744C347.914 73.3598 347.915 53.2084 337.151 34.5652C326.387 15.9219 308.934 5.84659 298.17 12.0613C287.405 18.276 287.405 38.4273 298.169 57.0705C308.933 75.7138 326.385 85.7891 337.15 79.5744Z" fill="#BB792B"/>
<path d="M337.15 79.5744C347.914 73.3598 347.915 53.2084 337.151 34.5652C326.387 15.9219 308.934 5.84659 298.17 12.0613C287.405 18.276 287.405 38.4273 298.169 57.0705C308.933 75.7138 326.385 85.7891 337.15 79.5744Z" fill="#1A877B"/>
<path d="M335.534 80.5134C346.298 74.2987 346.298 54.1473 335.534 35.5041C324.77 16.8608 307.318 6.7855 296.554 13.0002C285.789 19.2149 285.789 39.3662 296.553 58.0094C307.317 76.6527 324.769 86.728 335.534 80.5134Z" fill="#26B6A6"/>
<path d="M305.058 56.0406L326.323 68.3241C326.583 68.4729 326.877 68.5508 327.176 68.5502C327.475 68.5496 327.769 68.4705 328.028 68.3207C328.287 68.1709 328.502 67.9558 328.652 67.6967C328.801 67.4377 328.881 67.1439 328.881 66.8447V40.6362C328.882 39.986 328.711 39.3471 328.386 38.784C328.061 38.2209 327.593 37.7536 327.029 37.4293L305.755 25.1459C305.498 25.0084 305.21 24.9392 304.919 24.945C304.628 24.9508 304.343 25.0314 304.092 25.179C303.841 25.3265 303.632 25.5362 303.485 25.7878C303.338 26.0394 303.259 26.3245 303.254 26.6157V52.8624C303.256 53.5026 303.423 54.1314 303.739 54.6881C304.055 55.2449 304.509 55.7107 305.058 56.0406Z" fill="white"/>
<path opacity="0.6" d="M305.058 56.0406L326.323 68.3241C326.583 68.4728 326.877 68.5508 327.176 68.5502C327.475 68.5496 327.769 68.4705 328.028 68.3207C328.287 68.1709 328.502 67.9558 328.652 67.6967C328.801 67.4377 328.881 67.1439 328.881 66.8447V40.6362C328.882 39.986 328.711 39.3471 328.386 38.784C328.061 38.2209 327.593 37.7536 327.029 37.4293L305.755 25.1459C305.498 25.0084 305.21 24.9392 304.919 24.945C304.628 24.9508 304.343 25.0314 304.092 25.179C303.841 25.3265 303.632 25.5362 303.485 25.7878C303.338 26.0394 303.259 26.3245 303.254 26.6157V52.8624C303.256 53.5026 303.423 54.1314 303.739 54.6881C304.055 55.2449 304.509 55.7107 305.058 56.0406Z" fill="white"/>
<path d="M307.234 52.2229L324.252 62.0344C324.463 62.1647 324.706 62.2351 324.954 62.2379C325.202 62.2406 325.446 62.1757 325.66 62.0501C325.874 61.9244 326.05 61.7428 326.169 61.5248C326.287 61.3068 326.344 61.0606 326.333 60.8127V41.1611C326.335 40.6381 326.199 40.1238 325.937 39.671C325.676 39.2182 325.298 38.8431 324.844 38.5841L307.797 28.7344C307.59 28.6134 307.354 28.5494 307.113 28.5488C306.873 28.5483 306.636 28.6112 306.428 28.7314C306.22 28.8515 306.047 29.0245 305.927 29.2328C305.807 29.4412 305.744 29.6775 305.745 29.9179V49.6077C305.741 50.1362 305.876 50.6565 306.138 51.1157C306.399 51.575 306.777 51.9569 307.234 52.2229Z" fill="#26B6A6"/>
<path opacity="0.4" d="M326.333 41.1516V60.8128C326.345 61.0611 326.289 61.3081 326.171 61.5267C326.052 61.7453 325.876 61.9271 325.661 62.0522C325.447 62.1774 325.201 62.241 324.953 62.2362C324.704 62.2314 324.462 62.1583 324.252 62.0249L307.234 52.223C306.784 51.9598 306.411 51.5835 306.151 51.1315C305.892 50.6794 305.755 50.1673 305.755 49.646V29.918C305.753 29.6793 305.814 29.4444 305.933 29.237C306.051 29.0296 306.222 28.8571 306.428 28.737C306.634 28.6169 306.869 28.5534 307.108 28.553C307.346 28.5525 307.581 28.6152 307.788 28.7346L324.844 38.5842C325.297 38.8424 325.673 39.216 325.935 39.667C326.196 40.118 326.334 40.6303 326.333 41.1516Z" fill="#26B6A6"/>
<path d="M326.333 60.1257V60.8129C326.345 61.0612 326.289 61.3081 326.171 61.5267C326.053 61.7453 325.876 61.9272 325.662 62.0523C325.447 62.1775 325.202 62.2411 324.953 62.2363C324.705 62.2315 324.462 62.1584 324.252 62.025L307.234 52.223C306.784 51.9599 306.411 51.5836 306.151 51.1315C305.892 50.6795 305.755 50.1674 305.755 49.6461V47.7372L310.212 43.9195L315.481 51.4213L320.625 45.3035L326.333 60.1257Z" fill="white" fill-opacity="0.5"/>
<path d="M311.625 38.0306C311.668 38.8268 311.899 39.6016 312.299 40.2916C312.699 40.9816 313.256 41.5673 313.925 42.001C315.194 42.7359 316.216 42.1441 316.216 40.6839C316.176 39.8866 315.947 39.1102 315.549 38.4184C315.151 37.7266 314.594 37.139 313.925 36.7039C312.656 35.9976 311.625 36.5607 311.625 38.0306Z" fill="#FAFAFA"/>
<path d="M384.915 177.573C395.68 171.359 395.68 151.207 384.916 132.564C374.152 113.921 356.7 103.846 345.935 110.06C335.171 116.275 335.17 136.426 345.934 155.07C356.698 173.713 374.151 183.788 384.915 177.573Z" fill="#BB792B"/>
<path d="M384.915 177.573C395.68 171.359 395.68 151.207 384.916 132.564C374.152 113.921 356.7 103.846 345.935 110.06C335.171 116.275 335.17 136.426 345.934 155.07C356.698 173.713 374.151 183.788 384.915 177.573Z" fill="#2F68C5"/>
<path d="M383.303 178.504C394.068 172.289 394.068 152.138 383.304 133.495C372.54 114.852 355.088 104.776 344.323 110.991C333.559 117.206 333.558 137.357 344.323 156C355.087 174.643 372.539 184.719 383.303 178.504Z" fill="#3B82F6"/>
<path d="M353.525 123.146C353.267 122.995 352.973 122.914 352.673 122.913C352.374 122.912 352.079 122.99 351.82 123.139C351.56 123.288 351.344 123.503 351.195 123.763C351.045 124.022 350.967 124.317 350.967 124.616V150.863C350.968 151.514 351.141 152.153 351.468 152.716C351.794 153.279 352.264 153.746 352.828 154.07L374.094 166.353C374.355 166.506 374.652 166.587 374.955 166.587C375.258 166.586 375.555 166.505 375.816 166.351C376.077 166.197 376.292 165.977 376.439 165.712C376.586 165.447 376.659 165.148 376.652 164.845V145.375L370.925 133.158L353.525 123.146Z" fill="white"/>
<path opacity="0.6" d="M353.525 123.146C353.267 122.995 352.973 122.914 352.673 122.913C352.374 122.912 352.079 122.99 351.82 123.139C351.56 123.288 351.344 123.503 351.195 123.763C351.045 124.022 350.967 124.317 350.967 124.616V150.863C350.968 151.514 351.141 152.153 351.468 152.716C351.794 153.279 352.264 153.746 352.828 154.07L374.094 166.353C374.355 166.506 374.652 166.587 374.955 166.587C375.258 166.586 375.555 166.505 375.816 166.351C376.077 166.197 376.292 165.977 376.439 165.712C376.586 165.447 376.659 165.148 376.652 164.845V145.375L370.925 133.158L353.525 123.146Z" fill="white"/>
<path d="M370.133 137.625L370.877 133.158L376.604 145.375L371.402 141.099C370.905 140.681 370.527 140.141 370.304 139.531C370.081 138.922 370.022 138.264 370.133 137.625Z" fill="#FFD6A6"/>
<path opacity="0.4" d="M370.133 137.625L370.877 133.158L376.604 145.375L371.402 141.099C370.905 140.681 370.527 140.141 370.304 139.531C370.081 138.922 370.022 138.264 370.133 137.625Z" fill="white"/>
<path d="M372.204 147.876C372.104 147.874 372.005 147.848 371.918 147.799L355.119 138.121C355.053 138.082 354.995 138.031 354.948 137.97C354.902 137.908 354.868 137.838 354.848 137.764C354.829 137.689 354.824 137.612 354.835 137.536C354.845 137.459 354.87 137.386 354.909 137.32C354.948 137.253 355 137.195 355.061 137.148C355.122 137.102 355.192 137.068 355.267 137.049C355.341 137.029 355.419 137.024 355.495 137.035C355.571 137.045 355.645 137.071 355.711 137.11L372.5 146.807C372.612 146.87 372.7 146.97 372.749 147.089C372.799 147.208 372.807 147.341 372.774 147.465C372.74 147.59 372.665 147.7 372.562 147.777C372.459 147.855 372.333 147.896 372.204 147.895V147.876Z" fill="#3B82F6"/>
<path d="M372.204 153.564C372.104 153.562 372.005 153.536 371.918 153.487L355.119 143.79C355.053 143.752 354.995 143.7 354.948 143.639C354.902 143.577 354.868 143.508 354.848 143.433C354.829 143.359 354.824 143.281 354.835 143.205C354.845 143.129 354.87 143.055 354.909 142.989C354.948 142.922 355 142.864 355.061 142.818C355.122 142.771 355.192 142.737 355.267 142.718C355.341 142.698 355.419 142.694 355.495 142.704C355.571 142.715 355.645 142.74 355.711 142.779L372.5 152.438C372.612 152.501 372.7 152.601 372.749 152.72C372.799 152.839 372.807 152.972 372.774 153.096C372.74 153.221 372.665 153.331 372.562 153.408C372.459 153.486 372.333 153.527 372.204 153.526V153.564Z" fill="#3B82F6"/>
<path d="M372.204 159.252C372.103 159.255 372.004 159.229 371.918 159.176L355.119 149.479C354.985 149.4 354.888 149.272 354.848 149.121C354.809 148.971 354.831 148.811 354.909 148.677C354.988 148.543 355.116 148.445 355.267 148.406C355.417 148.367 355.577 148.389 355.711 148.467L372.5 158.164C372.612 158.228 372.7 158.327 372.749 158.447C372.799 158.566 372.807 158.698 372.774 158.823C372.74 158.947 372.665 159.057 372.562 159.135C372.459 159.213 372.333 159.254 372.204 159.252Z" fill="#3B82F6"/>
<path d="M285.092 120.794C295.906 114.58 295.947 94.359 285.183 75.6302C274.419 56.9014 256.926 46.7567 246.112 52.9714C235.298 59.186 235.258 79.4067 246.022 98.1356C256.786 116.864 274.278 127.009 285.092 120.794Z" fill="#FF5A5A"/>
<path opacity="0.2" d="M285.092 120.794C295.906 114.58 295.947 94.359 285.183 75.6302C274.419 56.9014 256.926 46.7567 246.112 52.9714C235.298 59.186 235.258 79.4067 246.022 98.1356C256.786 116.864 274.278 127.009 285.092 120.794Z" fill="#FF5A5A"/>
<path d="M282.427 121.275C293.191 115.06 293.192 94.9089 282.428 76.2656C271.664 57.6224 254.211 47.547 243.447 53.7617C232.682 59.9764 232.682 80.1277 243.446 98.771C254.21 117.414 271.662 127.49 282.427 121.275Z" fill="#F28F8F"/>
<path d="M251.952 96.8422L273.227 109.116C273.485 109.265 273.778 109.344 274.076 109.344C274.374 109.344 274.667 109.265 274.925 109.117C275.183 108.968 275.398 108.753 275.547 108.495C275.696 108.237 275.775 107.944 275.775 107.646V81.3996C275.776 80.7494 275.605 80.1105 275.28 79.5474C274.955 78.9843 274.487 78.517 273.924 78.1928L252.668 65.9093C252.41 65.7602 252.117 65.6818 251.819 65.6817C251.521 65.6816 251.228 65.76 250.97 65.9089C250.711 66.0579 250.497 66.2721 250.348 66.5302C250.198 66.7882 250.12 67.081 250.119 67.3791V93.6258C250.118 94.2752 250.286 94.9137 250.607 95.478C250.929 96.0422 251.392 96.5125 251.952 96.8422Z" fill="#3B82F6"/>
<path d="M251.952 96.8422L273.227 109.116C273.485 109.265 273.778 109.344 274.076 109.344C274.374 109.344 274.667 109.265 274.925 109.117C275.183 108.968 275.398 108.753 275.547 108.495C275.696 108.237 275.775 107.944 275.775 107.646V81.3996C275.776 80.7494 275.605 80.1105 275.28 79.5474C274.955 78.9843 274.487 78.517 273.924 78.1928L252.668 65.9093C252.41 65.7602 252.117 65.6818 251.819 65.6817C251.521 65.6816 251.228 65.76 250.97 65.9089C250.711 66.0579 250.497 66.2721 250.348 66.5302C250.198 66.7882 250.12 67.081 250.119 67.3791V93.6258C250.118 94.2752 250.286 94.9137 250.607 95.478C250.929 96.0422 251.392 96.5125 251.952 96.8422Z" fill="white"/>
<path d="M257.746 83.0605V91.9652C257.753 92.3121 257.896 92.6422 258.144 92.8849C258.392 93.1275 258.725 93.2633 259.072 93.2633H266.794C267.048 93.2656 267.298 93.1943 267.512 93.058C267.727 92.9217 267.897 92.7262 268.003 92.4952C268.109 92.2641 268.146 92.0073 268.109 91.7558C268.072 91.5042 267.964 91.2687 267.796 91.0776L260.075 82.1633C259.896 81.9571 259.658 81.8111 259.393 81.7451C259.128 81.679 258.85 81.6962 258.595 81.7943C258.341 81.8924 258.122 82.0666 257.97 82.2932C257.818 82.5197 257.74 82.7877 257.746 83.0605Z" fill="#F28F8F"/>
<path d="M317.657 84.2152C317.477 84.2152 317.305 84.1438 317.178 84.0167C317.051 83.8897 316.979 83.7173 316.979 83.5376V81.7337C316.979 81.554 317.051 81.3816 317.178 81.2546C317.305 81.1275 317.477 81.0561 317.657 81.0561C317.837 81.0561 318.009 81.1275 318.136 81.2546C318.263 81.3816 318.335 81.554 318.335 81.7337V83.5376C318.335 83.6266 318.317 83.7147 318.283 83.7969C318.249 83.8791 318.199 83.9538 318.136 84.0167C318.073 84.0797 317.998 84.1296 317.916 84.1636C317.834 84.1977 317.746 84.2152 317.657 84.2152Z" fill="#3B82F6"/>
<path d="M317.657 185.174C317.477 185.174 317.305 185.103 317.178 184.976C317.051 184.849 316.979 184.676 316.979 184.497V180.889C316.979 180.709 317.051 180.537 317.178 180.41C317.305 180.283 317.477 180.211 317.657 180.211C317.837 180.211 318.009 180.283 318.136 180.41C318.263 180.537 318.335 180.709 318.335 180.889V184.497C318.335 184.586 318.317 184.674 318.283 184.756C318.249 184.838 318.199 184.913 318.136 184.976C318.073 185.039 317.998 185.089 317.916 185.123C317.834 185.157 317.746 185.174 317.657 185.174ZM317.657 177.968C317.477 177.968 317.305 177.897 317.178 177.77C317.051 177.643 316.979 177.471 316.979 177.291V173.683C316.979 173.503 317.051 173.331 317.178 173.204C317.305 173.077 317.477 173.005 317.657 173.005C317.837 173.005 318.009 173.077 318.136 173.204C318.263 173.331 318.335 173.503 318.335 173.683V177.253C318.34 177.345 318.326 177.437 318.294 177.524C318.263 177.61 318.214 177.69 318.15 177.757C318.087 177.824 318.01 177.877 317.925 177.914C317.841 177.95 317.749 177.969 317.657 177.968ZM317.657 170.753C317.477 170.753 317.305 170.682 317.178 170.555C317.051 170.427 316.979 170.255 316.979 170.075V166.468C316.979 166.288 317.051 166.116 317.178 165.989C317.305 165.861 317.477 165.79 317.657 165.79C317.837 165.79 318.009 165.861 318.136 165.989C318.263 166.116 318.335 166.288 318.335 166.468V170.075C318.335 170.164 318.317 170.253 318.283 170.335C318.249 170.417 318.199 170.492 318.136 170.555C318.073 170.617 317.998 170.667 317.916 170.701C317.834 170.736 317.746 170.753 317.657 170.753ZM317.657 163.538C317.568 163.539 317.48 163.523 317.398 163.489C317.316 163.456 317.241 163.407 317.178 163.345C317.115 163.283 317.065 163.209 317.031 163.127C316.997 163.046 316.979 162.958 316.979 162.869V159.262C316.979 159.082 317.051 158.91 317.178 158.783C317.305 158.656 317.477 158.584 317.657 158.584C317.837 158.584 318.009 158.656 318.136 158.783C318.263 158.91 318.335 159.082 318.335 159.262V162.869C318.335 162.958 318.317 163.046 318.283 163.127C318.249 163.209 318.199 163.283 318.136 163.345C318.072 163.407 317.998 163.456 317.916 163.489C317.833 163.523 317.745 163.539 317.657 163.538ZM317.657 156.332C317.477 156.332 317.305 156.26 317.178 156.133C317.051 156.006 316.979 155.834 316.979 155.654V152.046C316.979 151.867 317.051 151.694 317.178 151.567C317.305 151.44 317.477 151.369 317.657 151.369C317.837 151.369 318.009 151.44 318.136 151.567C318.263 151.694 318.335 151.867 318.335 152.046V155.654C318.335 155.743 318.317 155.831 318.283 155.913C318.249 155.996 318.199 156.07 318.136 156.133C318.073 156.196 317.998 156.246 317.916 156.28C317.834 156.314 317.746 156.332 317.657 156.332ZM317.657 149.116C317.477 149.116 317.305 149.045 317.178 148.918C317.051 148.791 316.979 148.618 316.979 148.439V144.802C316.979 144.622 317.051 144.45 317.178 144.323C317.305 144.196 317.477 144.125 317.657 144.125C317.837 144.125 318.009 144.196 318.136 144.323C318.263 144.45 318.335 144.622 318.335 144.802V148.4C318.34 148.493 318.326 148.585 318.294 148.671C318.263 148.758 318.214 148.837 318.15 148.904C318.087 148.971 318.01 149.025 317.925 149.061C317.841 149.098 317.749 149.116 317.657 149.116ZM317.657 141.91C317.477 141.91 317.305 141.839 317.178 141.712C317.051 141.585 316.979 141.412 316.979 141.233V137.625C316.979 137.445 317.051 137.273 317.178 137.146C317.305 137.019 317.477 136.947 317.657 136.947C317.837 136.947 318.009 137.019 318.136 137.146C318.263 137.273 318.335 137.445 318.335 137.625V141.233C318.338 141.324 318.324 141.415 318.291 141.501C318.259 141.586 318.21 141.664 318.147 141.73C318.083 141.796 318.007 141.849 317.923 141.885C317.839 141.921 317.748 141.939 317.657 141.939V141.91ZM317.657 134.695C317.477 134.695 317.305 134.623 317.178 134.496C317.051 134.369 316.979 134.197 316.979 134.017V130.409C316.979 130.23 317.051 130.057 317.178 129.93C317.305 129.803 317.477 129.732 317.657 129.732C317.837 129.732 318.009 129.803 318.136 129.93C318.263 130.057 318.335 130.23 318.335 130.409V134.017C318.335 134.106 318.317 134.194 318.283 134.277C318.249 134.359 318.199 134.433 318.136 134.496C318.073 134.559 317.998 134.609 317.916 134.643C317.834 134.677 317.746 134.695 317.657 134.695ZM317.657 127.489C317.477 127.489 317.305 127.418 317.178 127.29C317.051 127.163 316.979 126.991 316.979 126.811V123.204C316.979 123.024 317.051 122.851 317.178 122.724C317.305 122.597 317.477 122.526 317.657 122.526C317.837 122.526 318.009 122.597 318.136 122.724C318.263 122.851 318.335 123.024 318.335 123.204V126.811C318.335 126.9 318.317 126.988 318.283 127.071C318.249 127.153 318.199 127.228 318.136 127.29C318.073 127.353 317.998 127.403 317.916 127.437C317.834 127.471 317.746 127.489 317.657 127.489ZM317.657 120.273C317.477 120.273 317.305 120.202 317.178 120.075C317.051 119.948 316.979 119.776 316.979 119.596V115.988C316.979 115.808 317.051 115.636 317.178 115.509C317.305 115.382 317.477 115.31 317.657 115.31C317.837 115.31 318.009 115.382 318.136 115.509C318.263 115.636 318.335 115.808 318.335 115.988V119.596C318.335 119.685 318.317 119.773 318.283 119.855C318.249 119.937 318.199 120.012 318.136 120.075C318.073 120.138 317.998 120.188 317.916 120.222C317.834 120.256 317.746 120.273 317.657 120.273ZM317.657 113.058C317.568 113.059 317.48 113.043 317.398 113.01C317.316 112.977 317.241 112.928 317.178 112.866C317.115 112.804 317.065 112.729 317.031 112.648C316.997 112.566 316.979 112.478 316.979 112.39V108.782C316.979 108.602 317.051 108.43 317.178 108.303C317.305 108.176 317.477 108.105 317.657 108.105C317.837 108.105 318.009 108.176 318.136 108.303C318.263 108.43 318.335 108.602 318.335 108.782V112.352C318.34 112.443 318.326 112.535 318.294 112.621C318.262 112.708 318.213 112.786 318.15 112.853C318.086 112.919 318.009 112.971 317.925 113.007C317.84 113.042 317.749 113.059 317.657 113.058ZM317.657 105.852C317.477 105.852 317.305 105.781 317.178 105.654C317.051 105.527 316.979 105.354 316.979 105.174V101.567C316.979 101.387 317.051 101.215 317.178 101.088C317.305 100.96 317.477 100.889 317.657 100.889C317.837 100.889 318.009 100.96 318.136 101.088C318.263 101.215 318.335 101.387 318.335 101.567V105.174C318.335 105.263 318.317 105.352 318.283 105.434C318.249 105.516 318.199 105.591 318.136 105.654C318.073 105.717 317.998 105.766 317.916 105.801C317.834 105.835 317.746 105.852 317.657 105.852ZM317.657 98.6366C317.477 98.6366 317.305 98.5652 317.178 98.4381C317.051 98.3111 316.979 98.1387 316.979 97.959V94.3608C316.979 94.1811 317.051 94.0087 317.178 93.8816C317.305 93.7546 317.477 93.6832 317.657 93.6832C317.837 93.6832 318.009 93.7546 318.136 93.8816C318.263 94.0087 318.335 94.1811 318.335 94.3608V97.959C318.335 98.048 318.317 98.1361 318.283 98.2183C318.249 98.3005 318.199 98.3752 318.136 98.4381C318.073 98.5011 317.998 98.551 317.916 98.585C317.834 98.6191 317.746 98.6366 317.657 98.6366ZM317.657 91.4307C317.477 91.4307 317.305 91.3593 317.178 91.2322C317.051 91.1052 316.979 90.9328 316.979 90.7531V87.1453C316.979 86.9656 317.051 86.7933 317.178 86.6662C317.305 86.5391 317.477 86.4677 317.657 86.4677C317.837 86.4677 318.009 86.5391 318.136 86.6662C318.263 86.7933 318.335 86.9656 318.335 87.1453V90.7531C318.335 90.8421 318.317 90.9302 318.283 91.0124C318.249 91.0946 318.199 91.1693 318.136 91.2322C318.073 91.2952 317.998 91.3451 317.916 91.3791C317.834 91.4132 317.746 91.4307 317.657 91.4307Z" fill="#3B82F6"/>
<path d="M317.657 190.615C317.477 190.615 317.305 190.543 317.178 190.416C317.051 190.289 316.979 190.117 316.979 189.937V188.133C316.979 187.953 317.051 187.781 317.178 187.654C317.305 187.527 317.477 187.456 317.657 187.456C317.837 187.456 318.009 187.527 318.136 187.654C318.263 187.781 318.335 187.953 318.335 188.133V189.937C318.335 190.026 318.317 190.114 318.283 190.196C318.249 190.279 318.199 190.353 318.136 190.416C318.073 190.479 317.998 190.529 317.916 190.563C317.834 190.597 317.746 190.615 317.657 190.615Z" fill="#3B82F6"/>
<path d="M334.751 146.224C334.624 146.227 334.5 146.193 334.392 146.127C334.283 146.061 334.196 145.966 334.14 145.852C334.061 145.691 334.048 145.506 334.106 145.336C334.163 145.166 334.285 145.025 334.446 144.945L336.059 144.144C336.219 144.064 336.405 144.052 336.575 144.109C336.745 144.166 336.885 144.289 336.965 144.449C337.012 144.531 337.042 144.622 337.052 144.715C337.062 144.809 337.052 144.904 337.024 144.994C336.995 145.084 336.948 145.167 336.885 145.237C336.822 145.308 336.746 145.364 336.66 145.404L335.047 146.205C334.951 146.234 334.85 146.24 334.751 146.224Z" fill="#3B82F6"/>
<path d="M326.762 150.176C326.611 150.174 326.465 150.122 326.347 150.028C326.228 149.933 326.145 149.802 326.11 149.655C326.075 149.508 326.09 149.354 326.153 149.216C326.216 149.079 326.323 148.966 326.457 148.897L330.427 146.921C330.507 146.875 330.596 146.847 330.688 146.836C330.78 146.826 330.872 146.835 330.961 146.862C331.049 146.889 331.131 146.933 331.201 146.993C331.271 147.053 331.329 147.126 331.37 147.209C331.411 147.291 331.434 147.381 331.439 147.474C331.444 147.566 331.43 147.658 331.398 147.744C331.367 147.831 331.317 147.91 331.254 147.977C331.19 148.044 331.113 148.097 331.029 148.133L327.058 150.109C326.966 150.153 326.865 150.176 326.762 150.176Z" fill="#3B82F6"/>
<path d="M321.179 152.953C321.028 152.951 320.881 152.899 320.763 152.805C320.645 152.711 320.562 152.58 320.527 152.433C320.491 152.286 320.507 152.131 320.569 151.994C320.632 151.856 320.739 151.744 320.873 151.674L322.486 150.872C322.645 150.804 322.825 150.8 322.987 150.86C323.149 150.92 323.282 151.04 323.359 151.194C323.436 151.349 323.451 151.528 323.4 151.693C323.35 151.859 323.238 151.999 323.088 152.084L321.475 152.886C321.382 152.931 321.281 152.954 321.179 152.953Z" fill="#3B82F6"/>
<path d="M296.181 104.048C296.071 104.052 295.962 104.027 295.863 103.977C295.765 103.927 295.68 103.853 295.618 103.762L294.664 102.225C294.612 102.149 294.576 102.064 294.559 101.974C294.541 101.884 294.542 101.791 294.562 101.701C294.581 101.612 294.618 101.527 294.671 101.452C294.724 101.377 294.792 101.314 294.87 101.266C294.949 101.218 295.036 101.187 295.127 101.174C295.218 101.16 295.31 101.166 295.399 101.19C295.487 101.213 295.57 101.255 295.642 101.311C295.715 101.368 295.775 101.439 295.819 101.519L296.773 103.065C296.837 103.167 296.872 103.285 296.874 103.405C296.876 103.526 296.846 103.645 296.786 103.749C296.727 103.854 296.64 103.941 296.535 104C296.43 104.059 296.311 104.089 296.191 104.086L296.181 104.048Z" fill="#3B82F6"/>
<path d="M310.995 128.491C310.878 128.492 310.763 128.462 310.661 128.405C310.559 128.348 310.473 128.266 310.412 128.166L308.561 125.112C308.511 125.035 308.477 124.949 308.462 124.858C308.446 124.768 308.449 124.675 308.471 124.586C308.492 124.497 308.532 124.413 308.586 124.339C308.641 124.266 308.71 124.204 308.79 124.158C308.866 124.105 308.953 124.069 309.044 124.052C309.135 124.035 309.228 124.037 309.318 124.059C309.408 124.081 309.493 124.121 309.566 124.178C309.64 124.234 309.7 124.305 309.744 124.387L311.596 127.441C311.649 127.517 311.685 127.604 311.702 127.695C311.719 127.786 311.716 127.879 311.695 127.97C311.673 128.06 311.633 128.144 311.576 128.218C311.52 128.291 311.448 128.352 311.367 128.396C311.255 128.464 311.126 128.497 310.995 128.491ZM307.291 122.383C307.175 122.382 307.06 122.352 306.958 122.296C306.856 122.239 306.771 122.157 306.709 122.058L304.858 119.004C304.809 118.927 304.776 118.84 304.762 118.75C304.747 118.66 304.75 118.568 304.772 118.479C304.793 118.39 304.832 118.306 304.886 118.232C304.94 118.159 305.008 118.097 305.087 118.05C305.164 118 305.25 117.966 305.341 117.951C305.431 117.935 305.524 117.938 305.613 117.96C305.702 117.981 305.786 118.02 305.86 118.075C305.933 118.13 305.995 118.199 306.041 118.279L307.893 121.333C307.943 121.409 307.977 121.495 307.993 121.585C308.01 121.675 308.007 121.768 307.987 121.857C307.966 121.946 307.928 122.03 307.874 122.104C307.82 122.178 307.752 122.24 307.673 122.287C307.558 122.355 307.425 122.388 307.291 122.383ZM303.588 116.274C303.473 116.275 303.359 116.246 303.258 116.189C303.158 116.132 303.074 116.049 303.015 115.95L301.164 112.896C301.114 112.819 301.079 112.733 301.063 112.643C301.047 112.553 301.049 112.461 301.07 112.372C301.09 112.282 301.129 112.198 301.182 112.124C301.236 112.05 301.305 111.988 301.383 111.941C301.461 111.893 301.547 111.86 301.637 111.845C301.728 111.831 301.82 111.834 301.909 111.855C301.998 111.877 302.081 111.915 302.155 111.97C302.229 112.024 302.291 112.092 302.338 112.17L304.209 115.215C304.257 115.292 304.29 115.379 304.304 115.469C304.319 115.559 304.316 115.651 304.294 115.74C304.273 115.829 304.234 115.913 304.18 115.987C304.126 116.06 304.058 116.122 303.979 116.169C303.861 116.238 303.726 116.274 303.588 116.274ZM299.885 110.166C299.769 110.165 299.655 110.134 299.554 110.075C299.454 110.016 299.37 109.933 299.312 109.832L297.461 106.778C297.408 106.702 297.372 106.615 297.355 106.524C297.338 106.433 297.34 106.339 297.362 106.249C297.383 106.159 297.424 106.075 297.48 106.001C297.537 105.928 297.608 105.867 297.69 105.823C297.767 105.774 297.853 105.74 297.944 105.724C298.034 105.709 298.127 105.712 298.216 105.733C298.305 105.755 298.389 105.794 298.463 105.849C298.536 105.904 298.598 105.973 298.644 106.052L300.496 109.107C300.546 109.184 300.579 109.27 300.595 109.361C300.61 109.451 300.607 109.544 300.586 109.633C300.564 109.722 300.525 109.806 300.47 109.88C300.415 109.953 300.346 110.015 300.267 110.061C300.152 110.133 300.02 110.169 299.885 110.166Z" fill="#3B82F6"/>
<path d="M313.753 133.091C313.636 133.092 313.521 133.063 313.419 133.006C313.317 132.949 313.232 132.867 313.171 132.767L312.216 131.221C312.144 131.069 312.131 130.896 312.179 130.734C312.227 130.573 312.334 130.436 312.478 130.349C312.622 130.262 312.793 130.232 312.958 130.264C313.123 130.297 313.271 130.389 313.371 130.524L314.326 132.061C314.374 132.138 314.407 132.224 314.422 132.315C314.436 132.405 314.433 132.497 314.412 132.586C314.39 132.675 314.351 132.759 314.297 132.832C314.243 132.906 314.175 132.968 314.097 133.015C313.991 133.072 313.872 133.098 313.753 133.091Z" fill="#3B82F6"/>
<path d="M52.509 296.489L93.9801 320.55V333.273L52.509 309.212V296.489Z" fill="#455A64"/>
<path d="M116.334 284.377V308.038L93.9802 320.55V333.273L159.141 296.709V259.056L116.334 284.377Z" fill="#263238"/>
<path d="M93.9801 320.55L116.333 308.038L74.8528 283.977L52.509 296.489L93.9801 320.55Z" fill="#37474F"/>
<path d="M116.334 308.038V284.377L74.853 260.307V283.977L116.334 308.038Z" fill="#455A64"/>
<path d="M116.334 284.378L74.853 260.307L117.67 234.996L159.141 259.057L116.334 284.378Z" fill="#37474F"/>
<path d="M128.083 172.834C128.083 172.834 117.861 187.15 123.931 192.104C130.001 197.057 143.316 193.058 143.85 190.701C144.385 188.343 128.083 172.834 128.083 172.834Z" fill="#263238"/>
<path d="M82.4504 298.131L67.4272 318.098L71.5982 321.371C71.5982 321.371 77.6113 320.111 79.7397 312.161C80.9984 307.56 81.9045 302.87 82.4504 298.131Z" fill="#FFBC96"/>
<path d="M83.8151 296.776C83.8151 296.776 87.9765 300.593 86.1344 303.953C84.2923 307.313 81.0949 310.052 80.9994 314.518C80.904 318.985 78.6705 326.926 73.736 328.176C68.8015 329.427 63.9433 327.718 64.0387 325.962C64.1342 324.206 67.4271 318.098 67.4271 318.098C67.4271 318.098 71.9703 320.913 75.3204 318.193C78.6705 315.473 79.4532 304.048 79.4532 304.048L83.8151 296.776Z" fill="black"/>
<path opacity="0.2" d="M83.8151 296.776C83.8151 296.776 87.9765 300.593 86.1344 303.953C84.2923 307.313 81.0949 310.052 80.9994 314.518C80.904 318.985 78.6705 326.926 73.736 328.176C68.8015 329.427 63.9433 327.718 64.0387 325.962C64.1342 324.206 67.4271 318.098 67.4271 318.098C67.4271 318.098 71.9703 320.913 75.3204 318.193C78.6705 315.473 79.4532 304.048 79.4532 304.048L83.8151 296.776Z" fill="black"/>
<path d="M109.423 234.967C109.423 234.967 75.9599 249.131 73.2301 250.515C70.5004 251.899 65.7663 254.332 66.2531 265.241C66.7398 276.151 69.46 303.17 69.46 303.17L87.8333 267.923L135.213 245.38L109.423 234.967Z" fill="#370517"/>
<path opacity="0.5" d="M109.423 234.967C109.423 234.967 75.9599 249.131 73.2301 250.515C70.5004 251.899 65.7663 254.332 66.2531 265.241C66.7398 276.151 69.46 303.17 69.46 303.17L87.8333 267.923L135.213 245.38L109.423 234.967Z" fill="#2E0916"/>
<path d="M68.1333 289.188C68.8491 296.9 69.4791 303.17 69.4791 303.17L87.8333 267.923L121.611 251.851L113.976 245.847C103.133 251.23 87.4515 259.104 82.7746 261.5C76.8093 264.554 74.9672 273.192 69.8322 285.198C69.2882 286.468 68.7155 287.804 68.1333 289.188Z" fill="#390F0F"/>
<path opacity="0.7" d="M68.1333 289.188C68.8491 296.9 69.4791 303.17 69.4791 303.17L87.8333 267.923L121.611 251.851L113.976 245.847C103.133 251.23 87.4515 259.104 82.7746 261.5C76.8093 264.554 74.9672 273.192 69.8322 285.198C69.2882 286.468 68.7155 287.804 68.1333 289.188Z" fill="#410B1F"/>
<path d="M112.201 242.182L115.656 247.403L112.955 247.813L112.201 242.182Z" fill="#BA68C8"/>
<path opacity="0.7" d="M112.201 242.182L115.656 247.403L112.955 247.813L112.201 242.182Z" fill="black"/>
<path d="M67.6276 325.962C67.6276 325.962 68.1144 326.764 68.1144 330.801C68.1144 334.838 66.5491 335.688 64.497 336.365C62.4449 337.043 56.575 341.386 54.9524 343.275C53.3298 345.165 46.7727 347.093 40.3015 345.967C33.8303 344.841 32.4654 340.565 35.5292 337.826C38.593 335.086 47.5077 330.095 47.5077 330.095L67.6276 325.962Z" fill="black"/>
<path d="M145.12 243.328L130.727 239.997C130.727 239.997 90.7445 260.04 84.7791 263.094C78.8138 266.148 76.9812 274.795 71.8462 286.792C68.0284 295.821 62.9316 308.21 59.6101 315.654C59.6101 315.654 61.9676 321.944 69.4792 320.359C72.018 314.814 76.5135 309.861 83.0324 301.042C87.2208 295.598 90.1953 289.32 91.7562 282.631C92.005 281.439 92.5846 280.341 93.4287 279.463C94.2727 278.585 95.347 277.963 96.5285 277.668C103.133 276.064 116.572 272.59 130.774 267.694C150.78 260.803 145.12 243.328 145.12 243.328Z" fill="#370517"/>
<path opacity="0.5" d="M145.12 243.328L130.727 239.997C130.727 239.997 90.7445 260.04 84.7791 263.094C78.8138 266.148 76.9812 274.795 71.8462 286.792C68.0284 295.821 62.9316 308.21 59.6101 315.654C59.6101 315.654 61.9676 321.944 69.4792 320.359C72.018 314.814 76.5135 309.861 83.0324 301.042C87.2208 295.598 90.1953 289.32 91.7562 282.631C92.005 281.439 92.5846 280.341 93.4287 279.463C94.2727 278.585 95.347 277.963 96.5285 277.668C103.133 276.064 116.572 272.59 130.774 267.694C150.78 260.803 145.12 243.328 145.12 243.328Z" fill="#2E0916"/>
<path d="M59.6101 315.645C58.5124 318.098 57.5962 320.016 56.9758 321.094C54.4751 325.456 47.1449 330.181 44.5678 332.414C41.9908 334.647 41.4372 335.487 43.8997 337.377C50.1323 342.149 55.5441 336.938 59.0278 333.559C61.3622 331.42 63.9225 329.542 66.6635 327.957C66.8711 327.853 67.0538 327.705 67.1988 327.524C67.3438 327.343 67.4478 327.132 67.5034 326.907C67.8826 324.644 68.5631 322.442 69.5269 320.36C61.9676 321.944 59.6101 315.645 59.6101 315.645Z" fill="#FFBC96"/>
<path d="M129.849 256.995L104.68 271.522L62.8267 247.327L87.9957 232.495L129.849 256.995Z" fill="#37474F"/>
<path d="M107.39 252.862L97.9409 247.403L103.859 243.986L113.308 249.436L107.39 252.862Z" fill="#263238"/>
<path d="M103.61 267.895L116.333 260.412L91.4697 245.361L103.61 267.895Z" fill="#263238"/>
<path d="M104.355 222.989L94.2854 227.761C91.2742 228.521 88.305 229.439 85.3899 230.51C85.3899 230.51 78.3842 233.373 78.0597 235.282C77.7351 237.191 83.3187 241.686 88.2246 239.481C89.5122 238.779 90.8899 238.255 92.3192 237.926C95.2952 237.645 98.1087 236.44 100.365 234.48L108.507 232.237C108.507 232.237 112.697 224.163 104.355 222.989Z" fill="#FFBC96"/>
<path d="M97.8361 237.038C96.6621 238.288 93.3406 241.438 92.6152 242.354C91.8898 243.27 90.1718 240.923 93.1783 237.429C95.7767 236.474 98.2207 235.143 100.432 233.478C99.658 234.729 98.7902 235.919 97.8361 237.038Z" fill="#FFBC96"/>
<path d="M124.952 187.981C122.639 187.613 120.27 188.078 118.267 189.293C116.265 190.507 114.758 192.393 114.014 194.614C112.945 197.821 112.26 201.143 111.971 204.511C111.093 214.876 110.855 220.068 110.855 220.068L100.432 224.793C100.432 224.793 106.063 225.06 105.682 233.001L118.653 229.746L124.952 187.981Z" fill="#941945"/>
<path opacity="0.3" d="M124.52 188.122C122.207 187.755 119.838 188.22 117.835 189.435C115.833 190.649 114.325 192.535 113.582 194.756C112.513 197.963 111.828 201.285 111.539 204.653C110.661 215.018 110.423 220.21 110.423 220.21L100 224.935C100 224.935 105.584 225.202 105.25 233.143L118.221 229.888L124.52 188.122Z" fill="#FA6565"/>
<path d="M110.855 220.069C112.025 220.433 113.083 221.09 113.928 221.977C113.928 221.977 112.678 219.591 110.912 218.847L110.855 220.069Z" fill="#D1004B"/>
<path opacity="0.1" d="M110.855 220.069C112.025 220.433 113.083 221.09 113.928 221.977C113.928 221.977 112.678 219.591 110.912 218.847L110.855 220.069Z" fill="#D1004B"/>
<path d="M120.39 164.445C120.39 164.445 113.957 162.536 116.286 155.273C118.615 148.009 135.003 144.907 147.353 155.273C147.353 155.273 156.02 153.936 156.02 166.048C156.02 178.16 151.171 183.667 158.635 186.816C158.635 186.816 154.082 191.13 150.398 186.816C150.398 186.816 149.625 196.275 135.661 192.972L120.39 164.445Z" fill="#263238"/>
<path d="M140.965 192.246L148.267 195.357V216.794C145.978 222.279 144.738 228.145 144.612 234.088V244.701C144.612 244.701 129.665 250.027 118.078 244.271C112.465 241.475 108.991 235.109 108.991 235.109C108.991 235.109 115.167 231.473 115.167 227.044C115.047 223.573 114.635 220.119 113.935 216.717C112.584 215.374 111.559 213.738 110.942 211.936C110.325 210.133 110.131 208.213 110.375 206.323C111.196 199.251 124.52 188.123 124.52 188.123L129.483 188.81L140.965 192.246Z" fill="#FA6565"/>
<path d="M141.388 192.104L129.915 188.668V174.771H141.388V192.104Z" fill="#FFBC96"/>
<path d="M129.915 188.706C132.26 187.834 134.404 186.496 136.217 184.771C138.03 183.047 139.474 180.973 140.462 178.675V174.857H129.915V188.706Z" fill="#FFA988"/>
<path d="M127.243 155.96C127.243 155.96 116.744 156.58 118.042 174.523C118.643 182.817 120.59 187.122 126.976 186.807C134.22 186.444 144.49 181.471 143.822 167.27C143.154 153.068 127.243 155.96 127.243 155.96Z" fill="#FFBC96"/>
<path d="M141.397 174.771C141.397 174.771 138.534 175.535 138.534 171.412C138.534 171.412 125.744 170.543 122.919 157.859C122.919 157.859 124.189 154.041 132.168 154.041C140.147 154.041 146.857 161.095 144.776 170.801L141.397 174.771Z" fill="#263238"/>
<path d="M125.735 170.925V177.091L122.127 175.984L125.735 170.925Z" fill="#FFA988"/>
<path d="M131.175 171.574C131.177 171.824 131.105 172.068 130.968 172.277C130.83 172.485 130.634 172.648 130.404 172.745C130.174 172.842 129.92 172.868 129.675 172.82C129.43 172.773 129.205 172.654 129.028 172.478C128.851 172.302 128.73 172.078 128.68 171.833C128.631 171.588 128.655 171.334 128.751 171.104C128.846 170.873 129.007 170.676 129.214 170.537C129.422 170.398 129.666 170.324 129.915 170.324C130.248 170.324 130.567 170.455 130.803 170.689C131.039 170.924 131.173 171.242 131.175 171.574Z" fill="#263238"/>
<path d="M122.862 170.706C122.862 170.955 122.788 171.199 122.649 171.406C122.51 171.614 122.313 171.775 122.082 171.87C121.851 171.965 121.597 171.99 121.353 171.94C121.108 171.891 120.883 171.77 120.708 171.593C120.532 171.416 120.413 171.19 120.365 170.945C120.318 170.7 120.344 170.447 120.441 170.217C120.538 169.987 120.7 169.791 120.909 169.653C121.117 169.516 121.362 169.444 121.611 169.446C121.776 169.446 121.94 169.478 122.092 169.542C122.244 169.605 122.383 169.698 122.499 169.815C122.615 169.932 122.707 170.071 122.769 170.224C122.832 170.377 122.863 170.541 122.862 170.706Z" fill="#263238"/>
<path d="M120.113 168.081L122.576 166.62C122.576 166.62 121.621 165.666 120.667 166.229C120.399 166.447 120.204 166.74 120.105 167.07C120.006 167.4 120.009 167.752 120.113 168.081Z" fill="#263238"/>
<path d="M126.05 179.162C127.481 179.265 128.906 178.885 130.097 178.083C130.097 178.083 130.373 180.212 128.589 180.622C128.062 180.708 127.522 180.609 127.06 180.343C126.597 180.077 126.24 179.66 126.05 179.162Z" fill="#FFA988"/>
<path d="M140.376 175.239C140.332 174.195 140.525 173.154 140.939 172.194C141.14 171.596 141.512 171.07 142.009 170.681C142.506 170.292 143.107 170.059 143.736 170.009C146.962 169.923 147.392 173.025 147.353 174.132C147.239 176.995 144.891 180.164 140.51 180.288L140.376 175.239Z" fill="#FFBC96"/>
<path d="M129.915 188.706L126.527 193.096C126.147 193.592 125.88 194.165 125.744 194.775C125.609 195.385 125.608 196.017 125.743 196.627C125.877 197.237 126.144 197.811 126.523 198.307C126.903 198.803 127.386 199.211 127.94 199.5C129.44 200.286 131.168 200.525 132.825 200.176C134.483 199.828 135.968 198.914 137.026 197.592L141.397 192.142L129.915 188.706Z" fill="#FFBC96"/>
<path d="M129.849 241.581L120.304 246.802C118.836 246.693 117.362 246.693 115.895 246.802C114.196 247.012 109.691 247.833 108.526 247.88C107.362 247.928 108.479 250.114 111.533 249.913C111.533 249.913 104.651 253.063 104.403 254.953C104.155 256.842 109.92 261.137 114.73 258.77C115.989 258.043 117.341 257.49 118.748 257.129C121.718 256.715 124.482 255.38 126.651 253.311L134.697 250.744C134.697 250.744 138.238 242.402 129.849 241.581Z" fill="#FFBC96"/>
<path d="M148.699 195.215C148.699 195.215 142.905 199.205 143.86 211.612C144.443 219.119 144.443 226.659 143.86 234.165L129.848 241.581C131.352 242.582 132.578 243.947 133.412 245.549C134.247 247.151 134.663 248.938 134.621 250.744C134.621 250.744 154.75 246.601 155.953 241.906C157.155 237.21 157.594 214.809 157.594 210.906C157.594 207.002 156.01 198.327 148.699 195.215Z" fill="#7A2443"/>
<path opacity="0.3" d="M148.267 195.357C148.267 195.357 142.473 199.347 143.428 211.754C144.01 219.261 144.01 226.801 143.428 234.307L129.416 241.723C130.92 242.724 132.146 244.089 132.98 245.691C133.815 247.293 134.23 249.08 134.189 250.886C134.189 250.886 154.318 246.743 155.521 242.048C156.723 237.352 157.162 214.951 157.162 211.048C157.162 207.144 155.578 198.469 148.267 195.357Z" fill="#FA6565"/>
<path d="M143.86 234.165C145.402 234.132 146.936 234.414 148.365 234.996C147.082 233.994 145.564 233.337 143.955 233.087L143.86 234.165Z" fill="#D1004B"/>
<path opacity="0.1" d="M143.86 234.165C145.402 234.132 146.936 234.414 148.365 234.996C147.082 233.994 145.564 233.337 143.955 233.087L143.86 234.165Z" fill="#D1004B"/>
<path d="M57.0045 219.591L61.3759 248.224L104.842 273.44C104.852 273.445 104.864 273.447 104.876 273.446C104.888 273.445 104.899 273.441 104.909 273.434C104.919 273.428 104.927 273.418 104.931 273.408C104.936 273.397 104.938 273.385 104.937 273.373L100.699 245.599C100.605 245.013 100.386 244.454 100.056 243.96C99.7271 243.466 99.2953 243.049 98.7905 242.736L58.9134 218.293C58.7048 218.171 58.466 218.111 58.2247 218.12C57.9833 218.128 57.7492 218.204 57.5495 218.34C57.3498 218.476 57.1927 218.665 57.0962 218.887C56.9997 219.108 56.9679 219.352 57.0045 219.591Z" fill="#455A64"/>
<path d="M104.87 273.497L128.092 260.049C128.627 259.739 129.072 259.294 129.38 258.758C129.688 258.221 129.85 257.614 129.849 256.995L104.727 271.522L104.87 273.497Z" fill="#263238"/>
<path d="M82.1544 247.203C82.1544 249.245 80.7132 250.066 78.9379 249.054C78.0048 248.443 77.2285 247.621 76.6714 246.654C76.1144 245.688 75.7922 244.604 75.731 243.49C75.731 241.448 77.1722 240.627 78.9379 241.638C79.8733 242.248 80.6519 243.07 81.2108 244.036C81.7696 245.003 82.0929 246.088 82.1544 247.203Z" fill="#37474F"/>
<path opacity="0.2" d="M124.952 218.121C124.952 218.121 133.724 220.498 138.381 213.912C138.381 213.912 135.365 222.426 124.952 218.121Z" fill="black"/>
</svg>
