<?xml version="1.0" encoding="utf-8"?>
<!-- Generator: Adobe Illustrator 25.4.8, SVG Export Plug-In . SVG Version: 6.00 Build 0)  -->
<svg version="1.1" id="Layer_1" xmlns="http://www.w3.org/2000/svg" xmlns:xlink="http://www.w3.org/1999/xlink" x="0px" y="0px"
	 viewBox="0 0 506 431" style="enable-background:new 0 0 506 431;" xml:space="preserve">
<style type="text/css">
	.st0{fill:#DA2128;}
	.st1{fill:none;stroke:#DA2128;stroke-width:0.4005;}
	.st2{fill:#A78337;}
	.st3{fill:none;stroke:#A78337;stroke-width:0.4005;}
	.st4{fill:#448D46;}
	.st5{fill:none;stroke:#448D46;stroke-width:0.4005;}
	.st6{fill:#0072BC;}
	.st7{fill:#FFFFFF;}
	.st8{fill:#F2BE1A;}
	.st9{fill:none;stroke:#F2BE1A;stroke-width:0.4005;}
	.st10{fill:none;stroke:#448D46;stroke-width:0.2973;}
	.st11{fill:#D1D3D4;}
	.st12{fill:none;stroke:#000000;stroke-width:0.2973;stroke-miterlimit:1;}
	.st13{fill:#FDDDCE;}
	.st14{fill:#91635A;}
	.st15{fill:#E5C78D;}
	.st16{fill:#FDB933;}
	.st17{fill:none;stroke:#000000;stroke-width:0.25;stroke-miterlimit:1;}
	.st18{fill:none;stroke:#000000;stroke-width:0.6741;stroke-miterlimit:1;}
	.st19{fill:#FEE6D3;}
	.st20{fill:#E07E27;}
	.st21{fill:#FEED7B;}
	.st22{fill:none;stroke:#000000;stroke-width:0.2973;stroke-miterlimit:10;}
	.st23{fill:none;stroke:#000000;stroke-width:0.2342;stroke-miterlimit:1;}
	.st24{fill:none;stroke:#000000;stroke-width:0.1892;stroke-miterlimit:1;}
	.st25{fill:none;stroke:#000000;stroke-width:0.213;stroke-miterlimit:1;}
	.st26{fill:none;stroke:#448D46;stroke-width:0.4216;}
</style>
<g>
	<path class="st0" d="M134.7,212.2c19-2.6,26.7-8,37.1-15.4c9.5-6.8,14.8-12.9,39.9-41.7c13.3-15.3,19-18.2,26-11.3
		c6.9,6.9,16.1,36.2,23,42.8c6.2,5.9,10.7-2.1,14.2-4.7c3.5-2.6,38.1-50.2,46.7-58.9c8.6-8.6,19.5-19.3,26.8-16.5
		c18.9,7.3,19.1,55.5,38.4,77.6c19.5,22.2,44.5,26.1,62.5,29.4c6,1.1-41.6,0.8-64.4-20c-10.1-9.3-29.9-33.7-33.9-49.7
		c-6.7-26.7-20-11.6-23.7-6.6c-11.5,15.6-28.2,28.5-41.6,49.4c-7.4,11.4-29.8,39.3-43.6-15.1c-5.2-20.3-15.5-21.1-21.6-15.9
		c-6.1,5.2-11.1,29.6-38.6,45.3C153.2,217.1,134.7,212.2,134.7,212.2z"/>
	<path class="st1" d="M134.7,212.2c19-2.6,26.7-8,37.1-15.4c9.5-6.8,14.8-12.9,39.9-41.7c13.3-15.3,19-18.2,26-11.3
		c6.9,6.9,16.1,36.2,23,42.8c6.2,5.9,10.7-2.1,14.2-4.7c3.5-2.6,38.1-50.2,46.7-58.9c8.6-8.6,19.5-19.3,26.8-16.5
		c18.9,7.3,19.1,55.5,38.4,77.6c19.5,22.2,44.5,26.1,62.5,29.4c6,1.1-41.6,0.8-64.4-20c-10.1-9.3-29.9-33.7-33.9-49.7
		c-6.7-26.7-20-11.6-23.7-6.6c-11.5,15.6-28.2,28.5-41.6,49.4c-7.4,11.4-29.8,39.3-43.6-15.1c-5.2-20.3-15.5-21.1-21.6-15.9
		c-6.1,5.2-11.1,29.6-38.6,45.3C153.2,217.1,134.7,212.2,134.7,212.2z"/>
	<path class="st2" d="M184.9,72.8c-4.9,11.9-14.4,60.1-14.9,71.5c-0.5,11.4-8.6,104.5-4.2,129.3c2.2,12.4,13.4,5.5,16.4,5
		c3-0.5-5.7-81.3-5.1-105.7C177.8,145.3,184.9,72.8,184.9,72.8z"/>
	<path class="st3" d="M184.9,72.8c-4.9,11.9-14.4,60.1-14.9,71.5c-0.5,11.4-8.6,104.5-4.2,129.3c2.2,12.4,13.4,5.5,16.4,5
		c3-0.5-5.7-81.3-5.1-105.7C177.8,145.3,184.9,72.8,184.9,72.8z"/>
	<path class="st4" d="M182.5,72.3c0,0-11.1-8.4-20.5,6.4c-9.4,14.8-17,43.2-17,43.2s-12.1-18.8-9.3-30.4
		c2.8-11.6,23.6-27.1,31.4-27.4C175,63.7,182.5,72.3,182.5,72.3z"/>
	<path class="st5" d="M182.5,72.3c0,0-11.1-8.4-20.5,6.4c-9.4,14.8-17,43.2-17,43.2s-12.1-18.8-9.3-30.4
		c2.8-11.6,23.6-27.1,31.4-27.4C175,63.7,182.5,72.3,182.5,72.3z"/>
	<path class="st4" d="M184.4,70.2c0,0-8-28.9-19.7-28.9c-7.8,0-37.5,20.6-37.5,20.6s14.9-21.4,19.8-24.3c7-4.1,19.7-16.5,31.8-2
		C183.1,40.8,184.4,70.2,184.4,70.2z"/>
	<path class="st5" d="M184.4,70.2c0,0-8-28.9-19.7-28.9c-7.8,0-37.5,20.6-37.5,20.6s14.9-21.4,19.8-24.3c7-4.1,19.7-16.5,31.8-2
		C183.1,40.8,184.4,70.2,184.4,70.2z"/>
	<path class="st4" d="M186.4,69.7c0,0,2.5-18.1,4-22.4c6.5-19.5,14.1-31.6,30.1-40.1c0,0-5.2,18.5-16.1,34.7
		C199.5,49.3,186.4,69.7,186.4,69.7z"/>
	<path class="st5" d="M186.4,69.7c0,0,2.5-18.1,4-22.4c6.5-19.5,14.1-31.6,30.1-40.1c0,0-5.2,18.5-16.1,34.7
		C199.5,49.3,186.4,69.7,186.4,69.7z"/>
	<path class="st4" d="M187.7,71.4c0,0,18.7-13.5,26.2-13.9c7.7-0.4,12.3-3.7,20.8,2.2c5.8,4.1,8.2,35,8.2,35s-12-25.4-17.8-27.4
		C210.6,62.4,187.7,71.4,187.7,71.4z"/>
	<path class="st5" d="M187.7,71.4c0,0,18.7-13.5,26.2-13.9c7.7-0.4,12.3-3.7,20.8,2.2c5.8,4.1,8.2,35,8.2,35s-12-25.4-17.8-27.4
		C210.6,62.4,187.7,71.4,187.7,71.4z"/>
	<path class="st4" d="M187.1,73.6c0,0,10.5-0.4,11.7,0c8.1,3.2,7.8,2.4,10.8,11.6c7.3,22.6-2.7,41.1-2.7,41.1s-1.3-18.2-2.4-22.5
		c-3-12.2-10.6-20.9-12.8-25.4C189.6,74.4,187.1,73.6,187.1,73.6z"/>
	<path class="st5" d="M187.1,73.6c0,0,10.5-0.4,11.7,0c8.1,3.2,7.8,2.4,10.8,11.6c7.3,22.6-2.7,41.1-2.7,41.1s-1.3-18.2-2.4-22.5
		c-3-12.2-10.6-20.9-12.8-25.4C189.6,74.4,187.1,73.6,187.1,73.6z"/>
	<path class="st6" d="M200.5,207.8c5.2,2.2,53.2,6,57.3,3.7c4.1-2.2,22.7-3.7,28.2-3c5.6,0.8,15.6,4.1,23.4,6.3
		c7.8,2.2,20.8,6.3,30.9,1.9c10-4.5,10.8-8.2,23.8-10.1c13-1.9,11.9-2.2,28.6,4.5c16.7,6.7,19.2,5.6,30.1,2.6
		c16.4-4.5,13.1-7.4,21.1-10.2c4.2-1.5,15.1,14.1,19.8,22.1c0,0-12.9-6.5-18.4-9.8c-1.6-1-9.8-4.3-17.2,4.6
		c-3.9,4.7-11.9,9.7-22,4.8s-18.2-8.5-23.8-10c-5.6-1.5-20.1-1.9-26.8,1.9c-6.7,3.7-18.2,7.5-24.5,7.5c-6.3,0-14.6-1.9-24.9-2.6
		c-11.2-0.8-6.7-8.9-19.3-6.7c-11.5,2-36.4,4.1-43.1,3.7C236.9,218.6,200.5,207.8,200.5,207.8z"/>
	<path class="st6" d="M200.5,207.8c5.2,2.2,53.2,6,57.3,3.7c4.1-2.2,22.7-3.7,28.2-3c5.6,0.8,15.6,4.1,23.4,6.3
		c7.8,2.2,20.8,6.3,30.9,1.9c10-4.5,10.8-8.2,23.8-10.1c13-1.9,11.9-2.2,28.6,4.5c16.7,6.7,19.2,5.6,30.1,2.6
		c16.4-4.5,13.1-7.4,21.1-10.2c4.2-1.5,15.1,14.1,19.8,22.1c0,0-12.9-6.5-18.4-9.8c-1.6-1-9.8-4.3-17.2,4.6
		c-3.9,4.7-11.9,9.7-22,4.8s-18.2-8.5-23.8-10c-5.6-1.5-20.1-1.9-26.8,1.9c-6.7,3.7-18.2,7.5-24.5,7.5c-6.3,0-14.6-1.9-24.9-2.6
		c-11.2-0.8-6.7-8.9-19.3-6.7c-11.5,2-36.4,4.1-43.1,3.7C236.9,218.6,200.5,207.8,200.5,207.8z"/>
	<path class="st7" d="M184.5,224.2c5.6-0.7,3.7-0.7,10.1-3c6.3-2.2,10-7.1,18.2-3c8.2,4.1,8.5,3.7,20.4,8.9
		c11.9,5.2,19.7,6.3,25.3,6c5.6-0.4,10,0.4,17.5-3c7.4-3.4,10-4.5,18.9-4.1c8.9,0.4,9.7,1.8,17.9,6c8.2,4.1,10,6.3,18.2,4.1
		c8.2-2.2,11.2-6.3,14.5-7.8s10.8-1.5,21.6,4.1c10.8,5.6,16.4,8.2,19.7,5.2s10.4-7.4,10.4-7.4s3.4-5.6-4.5,9.7
		c-7.8,15.3-9.3,7.1-19.3,4.9c-10.1-2.2-13.4-7.5-22.7-7.1c-9.3,0.4-8.5-3-15.6,2.6c-7.1,5.6-4.5,9.7-21.9,2.6
		c-17.5-7.1-18.2-12.3-26.4-8.6c-8.2,3.7-6.7,6.3-19.3,5.9c-12.6-0.4-17.9,0.4-27.5-5.9c-9.7-6.4-15.6-10.1-22.3-9.3
		c-6.7,0.7-4.5-4.1-13.8-0.4C194.5,228.3,184.5,224.2,184.5,224.2z"/>
	<path class="st6" d="M184.5,224.2c5.6-0.7,3.7-0.7,10.1-3c6.3-2.2,10-7.1,18.2-3c8.2,4.1,8.5,3.7,20.4,8.9
		c11.9,5.2,19.7,6.3,25.3,6c5.6-0.4,10,0.4,17.5-3c7.4-3.4,10-4.5,18.9-4.1c8.9,0.4,9.7,1.8,17.9,6c8.2,4.1,10,6.3,18.2,4.1
		c8.2-2.2,11.2-6.3,14.5-7.8s10.8-1.5,21.6,4.1c10.8,5.6,16.4,8.2,19.7,5.2s10.4-7.4,10.4-7.4s3.4-5.6-4.5,9.7
		c-7.8,15.3-9.3,7.1-19.3,4.9c-10.1-2.2-13.4-7.5-22.7-7.1c-9.3,0.4-8.5-3-15.6,2.6c-7.1,5.6-4.5,9.7-21.9,2.6
		c-17.5-7.1-18.2-12.3-26.4-8.6c-8.2,3.7-6.7,6.3-19.3,5.9c-12.6-0.4-17.9,0.4-27.5-5.9c-9.7-6.4-15.6-10.1-22.3-9.3
		c-6.7,0.7-4.5-4.1-13.8-0.4C194.5,228.3,184.5,224.2,184.5,224.2z"/>
	<path class="st6" d="M257.7,251.4c4.8,0.8,6.3-1.9,10-3.3c3.7-1.5,15.6-4.5,20.1-1.9c4.5,2.6,23,14.5,31.6,14.9
		c8.5,0.4,11.5,2.6,25.3,0.8c13.8-1.8,25.3-4.5,36.1,0c10.8,4.5,23,7.8,30.5,4.5c7.4-3.4,3.3-11.5,18.6-4.1
		c15.2,7.5,19.3,8.9,19.3,8.9s-5.2,0.4-14.1-1.9c-8.9-2.2-5.6-5.6-15.2-1.5c-9.7,4.1-13.4,5.9-22.3,4.5c-8.9-1.5-15.2-7.4-25.3-7.8
		c-10-0.4-8.9-2.2-17.1,0.8c-8.2,3-24.2,5.2-31.6,2.6c-7.5-2.6-11.5-7.1-22.3-9.3c-10.8-2.2-9.3-7.4-21.6-4.5
		C267.4,257,257.7,251.4,257.7,251.4z"/>
	<path class="st6" d="M257.7,251.4c4.8,0.8,6.3-1.9,10-3.3c3.7-1.5,15.6-4.5,20.1-1.9c4.5,2.6,23,14.5,31.6,14.9
		c8.5,0.4,11.5,2.6,25.3,0.8c13.8-1.8,25.3-4.5,36.1,0c10.8,4.5,23,7.8,30.5,4.5c7.4-3.4,3.3-11.5,18.6-4.1
		c15.2,7.5,19.3,8.9,19.3,8.9s-5.2,0.4-14.1-1.9c-8.9-2.2-5.6-5.6-15.2-1.5c-9.7,4.1-13.4,5.9-22.3,4.5c-8.9-1.5-15.2-7.4-25.3-7.8
		c-10-0.4-8.9-2.2-17.1,0.8c-8.2,3-24.2,5.2-31.6,2.6c-7.5-2.6-11.5-7.1-22.3-9.3c-10.8-2.2-9.3-7.4-21.6-4.5
		C267.4,257,257.7,251.4,257.7,251.4z"/>
	<path class="st8" d="M282.2,70.6c-7.5,2.7-21.8-0.6-30.5,22.4c-4.3,11.5-0.6,20,9.3,26c9.9,6,21.2,8.4,28.7,5.1
		c7.5-3.3,19.7-3.3,24.5-20.3c4.8-17,8.1-22.4,0.3-30.8c-7.8-8.4-19.7-9.2-24.2-10.7c-3.7-1.2-21.5-3.6-26.9,0.6
		c-10,7.8-11.7,12.2-11.7,12.2s5.1-3.6,8.1-4.5c3-0.9,8.3-3.4,15.5-4.2c8.4-0.9,33.4,6.3,34.3,13.4c0.9,7.2-2.4,28.4-9.3,33.2
		c-6.9,4.8-28,3.8-34.3,0.3c-14-7.8-6-24.5-2.7-31.1C266.7,75.6,282.2,70.6,282.2,70.6z"/>
	<path class="st9" d="M282.2,70.6c-7.5,2.7-21.8-0.6-30.5,22.4c-4.3,11.5-0.6,20,9.3,26c9.9,6,21.2,8.4,28.7,5.1
		c7.5-3.3,19.7-3.3,24.5-20.3c4.8-17,8.1-22.4,0.3-30.8c-7.8-8.4-19.7-9.2-24.2-10.7c-3.7-1.2-21.5-3.6-26.9,0.6
		c-10,7.8-11.7,12.2-11.7,12.2s5.1-3.6,8.1-4.5c3-0.9,8.3-3.4,15.5-4.2c8.4-0.9,33.4,6.3,34.3,13.4c0.9,7.2-2.4,28.4-9.3,33.2
		c-6.9,4.8-28,3.8-34.3,0.3c-14-7.8-6-24.5-2.7-31.1C266.7,75.6,282.2,70.6,282.2,70.6z"/>
	<path class="st8" d="M274.8,86.7c0,1.3,0.5,2.4,1.1,2.4c0.6,0,1-1.1,1-2.4c0-1.3-0.5-2.4-1-2.4C275.2,84.3,274.8,85.4,274.8,86.7z"
		/>
	<path class="st9" d="M274.8,86.7c0,1.3,0.5,2.4,1.1,2.4c0.6,0,1-1.1,1-2.4c0-1.3-0.5-2.4-1-2.4C275.2,84.3,274.8,85.4,274.8,86.7z"
		/>
	<path class="st8" d="M289.4,86.2c0,1.1,0.2,1.9,0.6,1.9c0.3,0,0.6-0.9,0.6-1.9c0-1.1-0.3-1.9-0.6-1.9
		C289.6,84.3,289.4,85.2,289.4,86.2z"/>
	<path class="st9" d="M289.4,86.2c0,1.1,0.2,1.9,0.6,1.9c0.3,0,0.6-0.9,0.6-1.9c0-1.1-0.3-1.9-0.6-1.9
		C289.6,84.3,289.4,85.2,289.4,86.2z"/>
	<path class="st8" d="M267.6,96.3c3.6,5.1,7.1,6.3,10.4,7.2c3.3,0.9,15.8,1.5,17.3-0.6c1.5-2.1,3.3-5.7,3.9-7.5
		c0.6-1.8,1.2-6.6,1.2-6.6s-2.4,8.7-6.3,10.2c-3.9,1.5-12.8,3-17.6,1.5C271.8,99,267.6,96.3,267.6,96.3z"/>
	<path class="st9" d="M267.6,96.3c3.6,5.1,7.1,6.3,10.4,7.2c3.3,0.9,15.8,1.5,17.3-0.6c1.5-2.1,3.3-5.7,3.9-7.5
		c0.6-1.8,1.2-6.6,1.2-6.6s-2.4,8.7-6.3,10.2c-3.9,1.5-12.8,3-17.6,1.5C271.8,99,267.6,96.3,267.6,96.3z"/>
	<path d="M283.2,45.8c1-2,8.9-8.5,11.4-4.5c2.5,4,5.4,7.4,5.4,7.4s-1.5-1,2-7.4c3.5-6.5,5.9-11.9,8.4-8.4c2.5,3.5,4,5.5,4,5.5
		s-1.5-0.5-6.5,2c-5,2.5-7.4,10.9-7.4,10.9s-1.5-1-6.5-4.4C289.2,43.3,283.2,45.8,283.2,45.8z"/>
	<path d="M320,68.1c2-4,5.4-11.4,8.4-7.9c3,3.5,12.4,11.4,12.4,11.4s-0.5,7.4,4-3c4.5-10.4,8-22.3,15.9-18.9
		c7.9,3.4,9.9,6.9,9.9,6.9s-10.9,1.5-14.9,5.4c-4,4-13.4,15.9-13.4,15.9s-5-2-9.9-7.4C327.4,65.2,320,68.1,320,68.1z"/>
	<path class="st4" d="M116.6,185.9c0,0,10,7.8,10.3,11.5c0.3,3.6-0.8,7-3.1,2C121.6,194.3,116.6,185.9,116.6,185.9z"/>
	<path class="st10" d="M116.6,185.9c0,0,10,7.8,10.3,11.5c0.3,3.6-0.8,7-3.1,2C121.6,194.3,116.6,185.9,116.6,185.9z"/>
	<path class="st4" d="M123.2,176.7c0,0,8.4,12.2,9.7,17.3c1.4,5.6,1.4,8.7-1.9,7C127.6,199.3,123.2,176.7,123.2,176.7z"/>
	<path class="st10" d="M123.2,176.7c0,0,8.4,12.2,9.7,17.3c1.4,5.6,1.4,8.7-1.9,7C127.6,199.3,123.2,176.7,123.2,176.7z"/>
	<path class="st4" d="M186.1,275.6c-0.5-2.5,7.4-19.4,13.4-24.3c5.9-5,9.9-6,9.9-6s-4.9,8.4-9.9,17.9c-5,9.5-3,10.4-7.9,13.4
		C186.6,279.6,186.1,275.6,186.1,275.6z"/>
	<path class="st5" d="M186.1,275.6c-0.5-2.5,7.4-19.4,13.4-24.3c5.9-5,9.9-6,9.9-6s-4.9,8.4-9.9,17.9c-5,9.5-3,10.4-7.9,13.4
		C186.6,279.6,186.1,275.6,186.1,275.6z"/>
	<path class="st4" d="M203.7,277.6c-3-2.5-4-3.5-2-7.9c2-4.5,11.4-13.4,11.4-13.4s-2.5,4-4.5,10.4
		C206.7,273.1,203.7,277.6,203.7,277.6z"/>
	<path class="st5" d="M203.7,277.6c-3-2.5-4-3.5-2-7.9c2-4.5,11.4-13.4,11.4-13.4s-2.5,4-4.5,10.4
		C206.7,273.1,203.7,277.6,203.7,277.6z"/>
	<path class="st11" d="M138.8,205.1c-1.3,0.6-1.1,4,0.4,7.9c1.6,3.9,4,6.5,5.3,5.8c0.3-0.2,1.9-8.1,0.4-10.8
		C143.4,205.4,140,204.6,138.8,205.1z"/>
	<path class="st12" d="M138.8,205.1c-1.3,0.6-1.1,4,0.4,7.9c1.6,3.9,4,6.5,5.3,5.8c0.3-0.2,1.9-8.1,0.4-10.8
		C143.4,205.4,140,204.6,138.8,205.1z"/>
	<path class="st7" d="M129.4,280.4l4.2,1.4l6.9-0.1l3.5-2.4v-2.3l-2.9-0.9l-9.4-0.4c0,0-3.2,2.1-3.1,2.4
		C128.8,278.3,129.4,280.4,129.4,280.4z"/>
	<path class="st7" d="M90.9,280.2c0,0-2.3,0.7-2.1,1.9c0.2,1.1,4.7,3.2,4.7,3.2l6.2-0.1l4.7-2l2-2.2l-4.2-3.7l-4.2-1.6L90.9,280.2z"
		/>
	<path class="st13" d="M137.9,273.4c0.2-0.3,2.1,2,2.5,2c0.4,0.1,1.1-0.6,1.1-0.6c1.3-0.7,1.9-0.4,2.1-0.2c0.2,0.2,0.5,0.6,0.2,1.5
		c-0.4,0.9-1.5,0.5-1.5,0.5c0.1,1.8-1.7,1-1.7,1c-0.1,2.4-2.4,1.2-2.4,1.2c-0.3,0.7-0.8,1.8-2.5,1.7c-1.7-0.1-2.6-2.1-2.8-1.7
		c-0.1,0.4-1.7,0.4-1.7,0.4s2.1-4,2.7-4.2C134.5,274.9,137.8,273.5,137.9,273.4z"/>
	<path class="st12" d="M137.9,273.4c0.2-0.3,2.1,2,2.5,2c0.4,0.1,1.1-0.6,1.1-0.6c1.3-0.7,1.9-0.4,2.1-0.2c0.2,0.2,0.5,0.6,0.2,1.5
		c-0.4,0.9-1.5,0.5-1.5,0.5c0.1,1.8-1.7,1-1.7,1c-0.1,2.4-2.4,1.2-2.4,1.2c-0.3,0.7-0.8,1.8-2.5,1.7c-1.7-0.1-2.6-2.1-2.8-1.7
		c-0.1,0.4-1.7,0.4-1.7,0.4s2.1-4,2.7-4.2C134.5,274.9,137.8,273.5,137.9,273.4z"/>
	<path class="st12" d="M136.6,276.6c0,0,2.3,0.8,1.3,2.7"/>
	<path d="M143.5,276.7c0,0,1.2,0.9,0.3,2c-0.5,0.5-3.2,2-3.8,2.1c-0.6,0.1-2.2,0.5-3.1,0.5c-0.9,0-2.4-0.1-3.5-0.1
		c-1.1-0.1-1.6-0.5-2.6-1c-1.2-0.6-1.5-0.5-2.1-0.6c0,0-2.3-0.8-3-0.7c0,0-1.7,1.5-0.6,1.8c1.1,0.4,5.1,1.2,6.4,1.5
		c1.3,0.3,5.8,0.8,6.7,0.7c1.8-0.1,2.9-0.6,3.4-0.8c1.1-0.3,2.3-1.5,2.5-2C144.5,279.7,145.6,277.9,143.5,276.7z"/>
	<path class="st12" d="M143.5,276.7c0,0,1.2,0.9,0.3,2c-0.5,0.5-3.2,2-3.8,2.1c-0.6,0.1-2.2,0.5-3.1,0.5c-0.9,0-2.4-0.1-3.5-0.1
		c-1.1-0.1-1.6-0.5-2.6-1c-1.2-0.6-1.5-0.5-2.1-0.6c0,0-2.3-0.8-3-0.7c0,0-1.7,1.5-0.6,1.8c1.1,0.4,5.1,1.2,6.4,1.5
		c1.3,0.3,5.8,0.8,6.7,0.7c1.8-0.1,2.9-0.6,3.4-0.8c1.1-0.3,2.3-1.5,2.5-2C144.5,279.7,145.6,277.9,143.5,276.7z"/>
	<path class="st13" d="M89.7,279.5c0,0,0,2.7,1.4,1.8c0,0,1.1,0.8,1.9,0.3c0,0,2.6,2.8,3.5-1.8c0,0,1.1,4,4,3.4
		c2.8-0.7,2.7-2,3.3-2.9c0,0-6.5-5.7-14-1.1L89.7,279.5z"/>
	<path class="st12" d="M89.7,279.5c0,0,0,2.7,1.4,1.8c0,0,1.1,0.8,1.9,0.3c0,0,2.6,2.8,3.5-1.8c0,0,1.1,4,4,3.4
		c2.8-0.7,2.7-2,3.3-2.9c0,0-6.5-5.7-14-1.1L89.7,279.5z"/>
	<path class="st14" d="M56.2,209.2l11,79.1l-1.1,0.2l-14.2-84.1C51.9,204.5,62.1,202.4,56.2,209.2z"/>
	<path class="st12" d="M56.2,209.2l11,79.1l-1.1,0.2l-14.2-84.1C51.9,204.5,62.1,202.4,56.2,209.2z"/>
	<path class="st7" d="M103.6,156.5c0,0,15.5,0,16.9,0.1c1.4,0.1,8.9,1.2,12.2,3c3.3,1.8,9.1,2.9,15.7,17.6c0,0,2.6,7.4,2.6,9.4
		c0,2.1,3.2,7.7,3.7,8.6c0.5,0.9,3.3,5,0.5,9.8c-2.9,4.8-10.2,13.3-10.7,14c0,0,1.7-12-5.6-13.8c0,0,4.3-5.3,3.6-9.4
		c0,0-6.2-1.8-8.1-5.9c0,0-0.5,4.5-2.6,6.6c-2.1,2.1-1.3,3.9-1.3,4.2c0,0.3,8.3,20.4,9.5,24.2c1.1,3.6,3.7,14.6,4.4,25.2
		c0,0,2.7,20.9,2.4,21.6s-3.1-0.2-4.2-0.1c-1.1,0.1-3.4,1.2-4.3,2.1c-0.9,0.9-3.4,2.1-4.8,1.8c-1.4-0.3-3.1,0.8-3.9,1.7
		c-0.8,0.9-4.4,3-5.9,2.9c-1.5,0-12.1,0.1-14.2-0.8c-1.2-0.5-2.1-1-3-1.4c-0.7-0.3-1.4-0.4-2.3-0.4c-1.9,0.1-3.8,1-5.9,1.5
		c-2.1,0.5-6.7,1.1-8.1,0.9c-1.4-0.2-7.7-3.4-8.4-4.4c-0.8-0.9,2.6-25.6,3.1-27.7c0.7-2.9,7.4-27.6,8-29c0.8-2,1.6-4.1,1.7-4.6
		c0.1-0.5,4.5-12.1,4.5-13.5c0.1-1.4-6.6-1.8-7.2-11c0,0-5.1,6.6-6.5,7.9c-1.4,1.2-4.8,4-6,4c-1.3,0-3.7,2.2-3.9,2.5
		c-0.2,0.4-7.7,6.4-7.3,5.7c0.8-1.5,1.8-9.6-4.1-14.7c0,0,14-6.1,16.5-10.6c0,0-2.2-4.6-0.2-7.1c0,0,4.6-7.9,5.3-9
		c0.7-1.1,1.9-3.2,3.3-4.7c0,0,5.7-5.6,13.5-7.3L103.6,156.5z"/>
	<path class="st12" d="M103.6,156.5c0,0,15.5,0,16.9,0.1c1.4,0.1,8.9,1.2,12.2,3c3.3,1.8,9.1,2.9,15.7,17.6c0,0,2.6,7.4,2.6,9.4
		c0,2.1,3.2,7.7,3.7,8.6c0.5,0.9,3.3,5,0.5,9.8c-2.9,4.8-10.2,13.3-10.7,14c0,0,1.7-12-5.6-13.8c0,0,4.3-5.3,3.6-9.4
		c0,0-6.2-1.8-8.1-5.9c0,0-0.5,4.5-2.6,6.6c-2.1,2.1-1.3,3.9-1.3,4.2c0,0.3,8.3,20.4,9.5,24.2c1.1,3.6,3.7,14.6,4.4,25.2
		c0,0,2.7,20.9,2.4,21.6s-3.1-0.2-4.2-0.1c-1.1,0.1-3.4,1.2-4.3,2.1c-0.9,0.9-3.4,2.1-4.8,1.8c-1.4-0.3-3.1,0.8-3.9,1.7
		c-0.8,0.9-4.4,3-5.9,2.9c-1.5,0-12.1,0.1-14.2-0.8c-1.2-0.5-2.1-1-3-1.4c-0.7-0.3-1.4-0.4-2.3-0.4c-1.9,0.1-3.8,1-5.9,1.5
		c-2.1,0.5-6.7,1.1-8.1,0.9c-1.4-0.2-7.7-3.4-8.4-4.4c-0.8-0.9,2.6-25.6,3.1-27.7c0.7-2.9,7.4-27.6,8-29c0.8-2,1.6-4.1,1.7-4.6
		c0.1-0.5,4.5-12.1,4.5-13.5c0.1-1.4-6.6-1.8-7.2-11c0,0-5.1,6.6-6.5,7.9c-1.4,1.2-4.8,4-6,4c-1.3,0-3.7,2.2-3.9,2.5
		c-0.2,0.4-7.7,6.4-7.3,5.7c0.8-1.5,1.8-9.6-4.1-14.7c0,0,14-6.1,16.5-10.6c0,0-2.2-4.6-0.2-7.1c0,0,4.6-7.9,5.3-9
		c0.7-1.1,1.9-3.2,3.3-4.7c0,0,5.7-5.6,13.5-7.3L103.6,156.5z"/>
	<path class="st15" d="M130.4,200.4c0,0-3.9,3.8-11.2,3.7c0,0-0.7,4.5-0.9,5c-0.2,0.4,9.2,0,13.5-5L130.4,200.4z"/>
	<path class="st12" d="M130.4,200.4c0,0-3.9,3.8-11.2,3.7c0,0-0.7,4.5-0.9,5c-0.2,0.4,9.2,0,13.5-5L130.4,200.4z"/>
	<path class="st16" d="M133.8,130c0,0,4.1,1.1,1.8-8.9c0,0,1.4-0.5,1-1.2c-0.4-0.7-0.6-1.1-0.9-1.9c-0.2-0.9,0.2-5.3,0-5.9
		c-0.2-0.6-0.1-2.4-1.7-3.4c-1.6-1-13.4-9.8-27.6-9.7c0,0-7.7,0.1-8.9,3.4c0,0-6.2,0.1-7.3,4.2c0,0-0.7,4-0.6,4.1
		c0,0-5.3,1.2-2.9,12.8"/>
	<path class="st12" d="M133.8,130c0,0,4.1,1.1,1.8-8.9c0,0,1.4-0.5,1-1.2c-0.4-0.7-0.6-1.1-0.9-1.9c-0.2-0.9,0.2-5.3,0-5.9
		c-0.2-0.6-0.1-2.4-1.7-3.4c-1.6-1-13.4-9.8-27.6-9.7c0,0-7.7,0.1-8.9,3.4c0,0-6.2,0.1-7.3,4.2c0,0-0.7,4-0.6,4.1
		c0,0-5.3,1.2-2.9,12.8"/>
	<path class="st12" d="M128.9,122.9c0,0-0.1,2.6,1.6,3"/>
	<path class="st7" d="M105.6,153.6c0,0-2.6,0.5-2.1,2.9c0.6,2.4,5.5,3.8,6.6,3.4l0.6,0.1l0.5,16.8l3-0.2l-0.4-16.7
		c4.7,0.1,5.8-2.6,5.8-2.6c1.5-3.2-1.5-3.9-1.5-3.9"/>
	<path class="st12" d="M105.6,153.6c0,0-2.6,0.5-2.1,2.9c0.6,2.4,5.5,3.8,6.6,3.4l0.6,0.1l0.5,16.8l3-0.2l-0.4-16.7
		c4.7,0.1,5.8-2.6,5.8-2.6c1.5-3.2-1.5-3.9-1.5-3.9"/>
	<path class="st12" d="M109.8,157.9c0,0-8.2,2.8-5,12.6c0,0,1,1.8,1.7,2.1c0.7,0.3,1.4,2.4,0.1,2.6c-1.3,0.2-2.4-1.2-2.6-1.6
		c0,0-1.5-2.8,0.7-3.1"/>
	<path class="st12" d="M93,169.6c0,0-0.3,6.6-0.9,7.9c-0.6,1.4-1.2,5.2-0.9,6.6c0.4,1.4,0.8,5.4,0.7,6"/>
	<path class="st12" d="M131.2,171.9c0,0-0.1,5.5,0.8,7.1c0.8,1.6,1.4,4.6,1.6,5.6c0.1,0.4,0.2,1.3,0.4,2.3c0.2,1.4,0.5,2.9,0.4,3.4"
		/>
	<path class="st12" d="M134.2,187.7c0,0,0.4-3.6,1.2-4.6c0,0,1.8-3.8,0.9-6.8"/>
	<path class="st12" d="M142.5,195.8c0,0,5.3,2.1,4,5.5"/>
	<path class="st12" d="M151,187c0,0-1.6-3.9-3.5-5.5"/>
	<path d="M101.2,278.3c0,0,4,2,3.2,4.1c-0.8,2.1-10.8,3.1-15.2-0.3l0.5-1.3c0,0-2.6,1.9,1.1,4.1c3.8,2.2,7.2,1.7,8,1.5
		c0.9-0.1,3.2-0.6,4-1.4c0.9-0.8,3.6-2.4,4.6-2.8c0.2-0.1,0.4-0.2,0.7-0.4c1.2-0.7,3.1-1.9,3.5-1.9c0.4,0-5.8-2.1-6.4-2.3"/>
	<path class="st12" d="M101.2,278.3c0,0,4,2,3.2,4.1c-0.8,2.1-10.8,3.1-15.2-0.3l0.5-1.3c0,0-2.6,1.9,1.1,4.1c3.8,2.2,7.2,1.7,8,1.5
		c0.9-0.1,3.2-0.6,4-1.4c0.9-0.8,3.6-2.4,4.6-2.8c0.2-0.1,0.4-0.2,0.7-0.4c1.2-0.7,3.1-1.9,3.5-1.9c0.4,0-5.8-2.1-6.4-2.3"/>
	<path class="st12" d="M91.2,280.5c0,0-0.1,1,0.7,1.2"/>
	<path class="st15" d="M98.6,202.9c2.2,3.4,9,4.7,9,4.7s-1,3.8-2.1,3.9c0,0-7.2-1.7-8.5-3.8L98.6,202.9z"/>
	<path class="st12" d="M98.6,202.9c2.2,3.4,9,4.7,9,4.7s-1,3.8-2.1,3.9c0,0-7.2-1.7-8.5-3.8L98.6,202.9z"/>
	<path class="st12" d="M108.6,241.2c0,0,0.8-4.2-0.5-4.7c-1.3-0.5-6.4,34.5-5.3,39.6"/>
	<path class="st12" d="M127,239.9c0,0,1.5,32.7,0.9,34.5"/>
	<path class="st12" d="M129.7,231.9c0,0,5.7,37.3,5,41.6"/>
	<path class="st12" d="M80.7,184.7c0,0,3.3,5.3,1,6.8"/>
	<path class="st17" d="M105.8,151c0,0,10,2.9,12.5-1.4"/>
	<path class="st13" d="M118.3,150c4.3,0,9.6-6.5,10.1-15.8c0,0,4,0.8,5.1-3.7c1.1-4.5-3.1-5.5-4.4-4.5c-0.9,0.7-1.1,0.4-1.6,3.6
		l-1.4-0.1c0,0,1-4.3-1.5-4.9c-1.8-0.4,1.9-5-2.1-7.4c0,0-18.5,0.7-24.8,3.4c0,0-0.1,1.6,0.2,2.5c0.3,0.9-2.9,0.9-1.7,6
		c0,0-1.9-0.4-2.4,0.8c-0.5,1.1-0.2-6.2-3.7-7c-3.5-0.8-5.1,1.2-5.3,3.2c-0.1,0.8-0.6,4.3,1.3,6.8c2.3,3.2,5.2,1.9,6,1
		c0,0,0.4,7.4,3.9,11.4c2.3,2.6,4.6,4.7,9.2,5.4l-0.1,4.8c0,0,3.7,0.9,4.1,2c0.4,1.1,1.6-2,3.5-1.6c2,0.4,5.4,0.2,5.5-1.9
		C118.3,151.7,118.3,150,118.3,150z"/>
	<path class="st12" d="M118.3,150c4.3,0,9.6-6.5,10.1-15.8c0,0,4,0.8,5.1-3.7c1.1-4.5-3.1-5.5-4.4-4.5c-0.9,0.7-1.1,0.4-1.6,3.6
		l-1.4-0.1c0,0,1-4.3-1.5-4.9c-1.8-0.4,1.9-5-2.1-7.4c0,0-18.5,0.7-24.8,3.4c0,0-0.1,1.6,0.2,2.5c0.3,0.9-2.9,0.9-1.7,6
		c0,0-1.9-0.4-2.4,0.8c-0.5,1.1-0.2-6.2-3.7-7c-3.5-0.8-5.1,1.2-5.3,3.2c-0.1,0.8-0.6,4.3,1.3,6.8c2.3,3.2,5.2,1.9,6,1
		c0,0,0.4,7.4,3.9,11.4c2.3,2.6,4.6,4.7,9.2,5.4l-0.1,4.8c0,0,3.7,0.9,4.1,2c0.4,1.1,1.6-2,3.5-1.6c2,0.4,5.4,0.2,5.5-1.9
		C118.3,151.7,118.3,150,118.3,150z"/>
	<path class="st12" d="M128.8,123c0,0,0.3,2.7,1.4,2.9c1.2,0.2-1.4-1.1-2.1,3.9l-1.7-0.5c0,0,1.3-4-1.4-4.6"/>
	<path class="st12" d="M131.3,279.1c0,0-0.4,0.7-0.6,1.1"/>
	<path class="st7" d="M117.5,140c-0.8,0.3-3.7,2.8-3.7,2.8c-0.3,3.1-2.2,2.8-2.8,2.8c-0.9,0-1.5-0.8-2.1-2.8c0,0-2.9-2.7-3.9-3
		L117.5,140z"/>
	<path class="st18" d="M117.5,140c-0.8,0.3-3.7,2.8-3.7,2.8c-0.3,3.1-2.2,2.8-2.8,2.8c-0.9,0-1.5-0.8-2.1-2.8c0,0-2.9-2.7-3.9-3
		L117.5,140z"/>
	<path d="M120.4,142.5c1-5.8-3.8-4.6-3.8-4.6c-6.6,2-10.3-0.2-10.3-0.2s-4.5-0.7-3.9,5l2.6,0.1c0,0,0.3-1.8,1.2-1.5
		c0.9,0.3,7.3,0.8,9.9,0c0,0,1,0.1,0.8,0.8C116.6,142.8,120.4,142.5,120.4,142.5z"/>
	<path class="st12" d="M120.4,142.5c1-5.8-3.8-4.6-3.8-4.6c-6.6,2-10.3-0.2-10.3-0.2s-4.5-0.7-3.9,5l2.6,0.1c0,0,0.3-1.8,1.2-1.5
		c0.9,0.3,7.3,0.8,9.9,0c0,0,1,0.1,0.8,0.8C116.6,142.8,120.4,142.5,120.4,142.5z"/>
	<path d="M90.7,122.9c2.6,0.6,3.2,7,3.2,7c0.4-1,2.5-0.9,2.5-0.9c-1-5.5,2-5.3,1.7-5.7c0,0-0.6-2.3-0.3-2.7c0.4-0.4-6.8,2.1-7,2.3
		L90.7,122.9z"/>
	<path class="st12" d="M90.7,122.9c2.6,0.6,3.2,7,3.2,7c0.4-1,2.5-0.9,2.5-0.9c-1-5.5,2-5.3,1.7-5.7c0,0-0.6-2.3-0.3-2.7
		c0.4-0.4-6.8,2.1-7,2.3L90.7,122.9z"/>
	<path d="M124.9,117.5c0,0,1.8,4.6,4,5.5c0,0-0.6,1.9,0.8,2.7c0,0-1.4,1.1-1.5,4.1l-2-0.5c0,0,1.3-4.1-1.9-4.9c0,0,1.7-6.1-1.6-7.1
		C122.6,117.3,124.7,117.4,124.9,117.5z"/>
	<path class="st12" d="M124.9,117.5c0,0,1.8,4.6,4,5.5c0,0-0.6,1.9,0.8,2.7c0,0-1.4,1.1-1.5,4.1l-2-0.5c0,0,1.3-4.1-1.9-4.9
		c0,0,1.7-6.1-1.6-7.1C122.6,117.3,124.7,117.4,124.9,117.5z"/>
	<path class="st12" d="M87.4,125.8c0,0-0.4,1.8-0.6,3c-0.1,1.1,0.8,2,2.2,2.9"/>
	<path class="st12" d="M87.5,128.2c0,0,1.9,0,2.8,1.4"/>
	<path class="st12" d="M131.3,127.5c0.9,0.8,0.6,2.3,0.7,2c-0.5,1.5-0.9,1.9-1.7,2.5"/>
	<path class="st12" d="M131.8,129.3c0,0-1.8-0.2-2.3,1.1"/>
	<path class="st12" d="M98,102.5c0,0,11.2-0.1,17.4,1.6"/>
	<path class="st12" d="M90.1,110.8c0,0,2-1.6,10.6-1.1c5.7,0.4,14.4,1.6,27.3,4.8"/>
	<path class="st12" d="M101.6,109.8c0,0,16.5-4.1,31.8-1.6"/>
	<path class="st12" d="M90.9,122.8c0,0,18.4-7.2,34.5-5.1c3.6,0.4,8,1.8,11.2,3.4"/>
	<path class="st12" d="M125.4,117.7c0,0,1.1,4.3,3.5,5.2c1.7,0.7,3,1.3,3.5,1.9"/>
	<path class="st12" d="M104.8,150.6c0,0,7.8,3.7,13.5-0.6"/>
	<path class="st13" d="M131.7,220.6c-0.3,0.2-0.3,0.7-0.3,1c0,0.6,0.5,1.1,1.1,1.1c0.3,0,1-0.1,1.3-0.2c0,0,8.4-1.7,10-12.2
		c0,0-1.3-4.3-4.5-5.2c0,0-1.5,2.5-2.2,2.7c-0.7,0.1-2.4-1.8-3.2-2.1c-0.1,0-1.4-2.9-1.9-2.9c-1.2,0.1-1.8,1.2-1.5,3
		c0.3,1.5,1.5,3.8,3.9,4.4c0,0-2.4,3.3-6.9,3.6c0,0-1.3,0.2-1.2,1.2c0,0,0,0.9,1,1.1c0,0,0.2,0,0.5,0"/>
	<path class="st12" d="M131.7,220.6c-0.3,0.2-0.3,0.7-0.3,1c0,0.6,0.5,1.1,1.1,1.1c0.3,0,1-0.1,1.3-0.2c0,0,8.4-1.7,10-12.2
		c0,0-1.3-4.3-4.5-5.2c0,0-1.5,2.5-2.2,2.7c-0.7,0.1-2.4-1.8-3.2-2.1c-0.1,0-1.4-2.9-1.9-2.9c-1.2,0.1-1.8,1.2-1.5,3
		c0.3,1.5,1.5,3.8,3.9,4.4c0,0-2.4,3.3-6.9,3.6c0,0-1.3,0.2-1.2,1.2c0,0,0,0.9,1,1.1c0,0,0.2,0,0.5,0"/>
	<path class="st12" d="M132.1,202.9c0,0-0.4,3.1,2,3.1"/>
	<path class="st13" d="M128,216.2c-0.8,0-1.4,0.6-1.4,1.4s0.6,1.4,1.4,1.4c0.1,0,0.4,0,0.5,0c0,0,0.3-0.2,0.7-0.2l0.2-0.1
		c-0.5,0.1-1.2,0.9-1.2,1.4c0,0.6,0.5,1.2,1.1,1.2c0.2,0,0.7,0,0.8-0.1c0,0,3.8-1.2,5.9-3"/>
	<path class="st12" d="M128,216.2c-0.8,0-1.4,0.6-1.4,1.4s0.6,1.4,1.4,1.4c0.1,0,0.4,0,0.5,0c0,0,0.3-0.2,0.7-0.2l0.2-0.1
		c-0.5,0.1-1.2,0.9-1.2,1.4c0,0.6,0.5,1.2,1.1,1.2c0.2,0,0.7,0,0.8-0.1c0,0,3.8-1.2,5.9-3"/>
	<path class="st19" d="M127.8,216.2c0,0,2.7-0.1,6-2.3"/>
	<path class="st12" d="M127.8,216.2c0,0,2.7-0.1,6-2.3"/>
	<path class="st19" d="M129.4,218.6c0,0,3.9-1,5.7-2.8"/>
	<path class="st12" d="M129.4,218.6c0,0,3.9-1,5.7-2.8"/>
	<path class="st11" d="M68.5,202.3c1,4,0.9,7.7-0.6,8c-1.5,0.4-3.8-2.6-4.8-6.6c-1-4-0.3-7.9,1.2-8.3
		C65.8,195,67.4,198.3,68.5,202.3z"/>
	<path class="st12" d="M68.5,202.3c1,4,0.9,7.7-0.6,8c-1.5,0.4-3.8-2.6-4.8-6.6c-1-4-0.3-7.9,1.2-8.3
		C65.8,195,67.4,198.3,68.5,202.3z"/>
	<path class="st13" d="M67.1,197.8l-1.9-2.2c0,0-6.1,3.1-7.2,3.2c-1.2,0.1-3.7,1.6-4.2,1.6s-2.1,1.7-2.6,3.1
		c-0.5,1.5-1.3,2.4-1.5,2.9c-0.2,0.6-0.4,1.7,0.2,2.6c0.6,1,1,3,1,3.6c-0.1,0.6,0,2.2,1.2,1.9c1.1-0.3,1.3-1,1.4-1.6
		c0.1-0.7-0.1-3-0.1-3.4c0-0.4,0-2.4,0.6-2.9s1.3-1.8,1.7-1.9c0.4-0.1,2.3,1.2,2.2,1.8c-0.1,0.5-1.2,2.1-1.6,2.4
		c-0.3,0.3-2.1,2-1.9,2.7c0,0-0.2,1.4,0.7,1.6c0,0,1.7,0.9,2.7-0.4s0.9-2.5,1.8-2.6c0.9-0.2,3.6-2,3.9-2.6c0.3-0.6,1.2-3.2,1.2-3.8
		c0-0.6,1.7-3.2,3.5-3.2L67.1,197.8z"/>
	<path class="st12" d="M67.1,197.8l-1.9-2.2c0,0-6.1,3.1-7.2,3.2c-1.2,0.1-3.7,1.6-4.2,1.6s-2.1,1.7-2.6,3.1
		c-0.5,1.5-1.3,2.4-1.5,2.9c-0.2,0.6-0.4,1.7,0.2,2.6c0.6,1,1,3,1,3.6c-0.1,0.6,0,2.2,1.2,1.9c1.1-0.3,1.3-1,1.4-1.6
		c0.1-0.7-0.1-3-0.1-3.4c0-0.4,0-2.4,0.6-2.9s1.3-1.8,1.7-1.9c0.4-0.1,2.3,1.2,2.2,1.8c-0.1,0.5-1.2,2.1-1.6,2.4
		c-0.3,0.3-2.1,2-1.9,2.7c0,0-0.2,1.4,0.7,1.6c0,0,1.7,0.9,2.7-0.4s0.9-2.5,1.8-2.6c0.9-0.2,3.6-2,3.9-2.6c0.3-0.6,1.2-3.2,1.2-3.8
		c0-0.6,1.7-3.2,3.5-3.2L67.1,197.8z"/>
	<path class="st12" d="M57.8,206.5c0,0,0.5-1.2,0.5-2"/>
	<path class="st7" d="M50.6,210.9c0,0,1.2,1.6,1.1,2.2c-0.1,0.6-0.4,0.7-0.7,0.9"/>
	<path class="st12" d="M50.6,210.9c0,0,1.2,1.6,1.1,2.2c-0.1,0.6-0.4,0.7-0.7,0.9"/>
	<path class="st7" d="M56.1,210.5c0,0-1.2,0.9-1.1,1.2c0.2,0.4,0.2,1,0.7,1.1c0.4,0.1,1.4-0.2,1.5-0.3c0.1-0.2,0.9-0.5,0.3-0.7
		C57,211.5,56.1,210.5,56.1,210.5z"/>
	<path class="st12" d="M56.1,210.5c0,0-1.2,0.9-1.1,1.2c0.2,0.4,0.2,1,0.7,1.1c0.4,0.1,1.4-0.2,1.5-0.3c0.1-0.2,0.9-0.5,0.3-0.7
		C57,211.5,56.1,210.5,56.1,210.5z"/>
	<path class="st12" d="M55.6,204.7c0,0,1.1-0.8,1.1-1.4"/>
	<path class="st12" d="M138.8,276.4c0,0,1.9,0.1,1.8,1.4"/>
	<path class="st12" d="M141.4,275.8c0,0,1,0.4,0.9,1"/>
	<path class="st12" d="M134.7,277c0,0,1.2,2.4,3.1,0.4"/>
	<path class="st12" d="M92.9,280.5c0,0.1,0,1.1,0.5,1.3"/>
	<path class="st7" d="M95,281.1c0,0.3-0.3,0.5-0.6,0.5s-0.6-0.2-0.6-0.5c0-0.3,0.3-0.5,0.6-0.5C94.7,280.6,95,280.8,95,281.1z"/>
	<path class="st12" d="M95,281.1c0,0.3-0.3,0.5-0.6,0.5s-0.6-0.2-0.6-0.5c0-0.3,0.3-0.5,0.6-0.5C94.7,280.6,95,280.8,95,281.1z"/>
	<path class="st7" d="M100.8,278.5c0.4,0.3,0.7,0.8,0.7,1.3c0,0.9-0.8,1.6-1.7,1.6c-0.9,0-1.6-0.7-1.6-1.6c0-0.1,0-0.3,0.1-0.4"/>
	<path class="st12" d="M100.8,278.5c0.4,0.3,0.7,0.8,0.7,1.3c0,0.9-0.8,1.6-1.7,1.6c-0.9,0-1.6-0.7-1.6-1.6c0-0.1,0-0.3,0.1-0.4"/>
	<path d="M133.3,275.6l-2.6,4.4l-3.3-1.1c0,0,3.2-2,3.6-2.7C131.3,275.6,133,275.5,133.3,275.6z"/>
	<path class="st12" d="M133.3,275.6l-2.6,4.4l-3.3-1.1c0,0,3.2-2,3.6-2.7C131.3,275.6,133,275.5,133.3,275.6z"/>
	<path class="st20" d="M119,194.5c-2.9-5.6-6.9-2-7.7-1.6c0,0,4.5,4.7-2.5,7.7c0,0-0.8,10.4-3.8,11.1c-3,0.6-8.8-2.1-9.2-2.2
		c-0.4,0-2.7,0.5-1.8,2.9c0.9,2.4,5,7.4,5.7,8.3c0.7,0.9,2.9,2.5,3.9,2.7c1.4,0.4,4.9,1.9,10.6-4.5c0,0,4.4-5.9,5.1-16.1
		c0,0-3.8-1.4-3.7-4.1C115.7,196,119.2,194.9,119,194.5z"/>
	<path class="st12" d="M119,194.5c-2.9-5.6-6.9-2-7.7-1.6c0,0,4.5,4.7-2.5,7.7c0,0-0.8,10.4-3.8,11.1c-3,0.6-8.8-2.1-9.2-2.2
		c-0.4,0-2.7,0.5-1.8,2.9c0.9,2.4,5,7.4,5.7,8.3c0.7,0.9,2.9,2.5,3.9,2.7c1.4,0.4,4.9,1.9,10.6-4.5c0,0,4.4-5.9,5.1-16.1
		c0,0-3.8-1.4-3.7-4.1C115.7,196,119.2,194.9,119,194.5z"/>
	<path class="st21" d="M105.6,207.7c-0.8-0.1-1.5,0.7-1.5,1.6c0,0.9,0.7,1.6,1.5,1.6c0.2,0,0.3,0,0.5-0.1c0,0,7.4,0.1,12.7-2l0.2,0
		c0.5-0.4,0.8-1,0.8-1.6c0-1.1-0.9-2-2-2c-0.2,0-0.4,0-0.5,0.1C117.2,205.1,110.1,208.1,105.6,207.7z"/>
	<path class="st12" d="M105.6,207.7c-0.8-0.1-1.5,0.7-1.5,1.6c0,0.9,0.7,1.6,1.5,1.6c0.2,0,0.3,0,0.5-0.1c0,0,7.4,0.1,12.7-2l0.2,0
		c0.5-0.4,0.8-1,0.8-1.6c0-1.1-0.9-2-2-2c-0.2,0-0.4,0-0.5,0.1C117.2,205.1,110.1,208.1,105.6,207.7z"/>
	<path class="st7" d="M113.4,209c-0.2,1.4-1.2,2.5-2.3,2.3s-1.7-1.4-1.6-2.9c0.2-1.4,1.2-2.5,2.3-2.3
		C112.9,206.3,113.6,207.6,113.4,209z"/>
	<path class="st12" d="M113.4,209c-0.2,1.4-1.2,2.5-2.3,2.3s-1.7-1.4-1.6-2.9c0.2-1.4,1.2-2.5,2.3-2.3
		C112.9,206.3,113.6,207.6,113.4,209z"/>
	
		<rect x="111.6" y="160.1" transform="matrix(0.9997 -2.420017e-02 2.420017e-02 0.9997 -4.0363 2.7732)" class="st7" width="1.9" height="16.1"/>
	
		<rect x="111.6" y="160.1" transform="matrix(0.9997 -2.420017e-02 2.420017e-02 0.9997 -4.0363 2.7732)" class="st22" width="1.9" height="16.1"/>
	<path class="st7" d="M101.6,129.5c4.4-1,6.2,0,7.6-0.2c0.1,0-0.7-2.1-1.6-3.3c-1-1.1-2.6-1-3.7-0.6
		C102.7,125.7,101.6,129.5,101.6,129.5z"/>
	<path class="st23" d="M101.6,129.5c4.4-1,6.2,0,7.6-0.2c0.1,0-0.7-2.1-1.6-3.3c-1-1.1-2.6-1-3.7-0.6
		C102.7,125.7,101.6,129.5,101.6,129.5z"/>
	<path d="M107.2,127.8c0,0.7-0.7,1.2-1.6,1.2s-1.5-0.6-1.5-1.2c0-0.7,0.7-1.2,1.5-1.2S107.2,127.2,107.2,127.8z"/>
	<path class="st24" d="M107.2,127.8c0,0.7-0.7,1.2-1.6,1.2s-1.5-0.6-1.5-1.2c0-0.7,0.7-1.2,1.5-1.2S107.2,127.2,107.2,127.8z"/>
	<path class="st7" d="M114,129.4c4.4-1,6.2-0.1,7.6-0.3c0.1,0-0.6-2.1-1.6-3.3c-1-1.1-2.6-1-3.7-0.6
		C115.1,125.6,114,129.4,114,129.4z"/>
	<path class="st23" d="M114,129.4c4.4-1,6.2-0.1,7.6-0.3c0.1,0-0.6-2.1-1.6-3.3c-1-1.1-2.6-1-3.7-0.6
		C115.1,125.6,114,129.4,114,129.4z"/>
	<path d="M119.1,127.7c0,0.7-0.7,1.2-1.6,1.2c-0.9,0-1.6-0.5-1.6-1.2c0-0.7,0.7-1.2,1.6-1.2S119.1,127,119.1,127.7z"/>
	<path class="st24" d="M119.1,127.7c0,0.7-0.7,1.2-1.6,1.2c-0.9,0-1.6-0.5-1.6-1.2c0-0.7,0.7-1.2,1.6-1.2S119.1,127,119.1,127.7z"/>
	<path d="M101.6,122.3c0.4-0.4,0.7-0.9,1.2-1.1c0.6-0.4,1.7-1,2.3-0.9c0.8,0.1,2.9,1.8,2.9,1.8s-2.8-0.6-3.7-0.1
		c-0.8,0.5-1.5,1.7-2.1,1.5C101.7,123.2,101.6,122.3,101.6,122.3z"/>
	<path class="st25" d="M101.6,122.3c0.4-0.4,0.7-0.9,1.2-1.1c0.6-0.4,1.7-1,2.3-0.9c0.8,0.1,2.9,1.8,2.9,1.8s-2.8-0.6-3.7-0.1
		c-0.8,0.5-1.5,1.7-2.1,1.5C101.7,123.2,101.6,122.3,101.6,122.3z"/>
	<path d="M114.3,122.5c-0.6-0.8,0.1-1.8,0.6-2.1c0.6-0.4,1.1-1.1,4.6-0.4c0.8,0.2,2.5,2.8,2.5,2.8s-1.2-1.2-2.2-1.3
		c-1.7-0.1-3.2,0.1-3.7,0.6C115.4,122.8,114.3,122.5,114.3,122.5z"/>
	<path class="st25" d="M114.3,122.5c-0.6-0.8,0.1-1.8,0.6-2.1c0.6-0.4,1.1-1.1,4.6-0.4c0.8,0.2,2.5,2.8,2.5,2.8s-1.2-1.2-2.2-1.3
		c-1.7-0.1-3.2,0.1-3.7,0.6C115.4,122.8,114.3,122.5,114.3,122.5z"/>
	<path class="st12" d="M107.1,133.7c0,0.8,0.7,0.9,1,0.9c0.5,0,0.8-0.5,0.9-0.4c0.1,0.2,0.2,0.3,0.5,0.9c0.5,0.9,1.3,1.1,2.1,1.1
		c0.7,0,1.6-0.5,1.9-1.1c0.4-0.7,0.2-0.4,0.3-0.7c0.2-0.4,0.6,0.3,1.1,0.3c0.6,0,0.8-0.1,1.1-0.7"/>
	<path class="st4" d="M165.8,278.1c0.8-2.8-4.5-22.9-9.5-29.2c-5-6.3-8.7-7.8-8.7-7.8s3.6,10.1,7.1,21.4c3.4,11.3,1.4,12.2,5.8,16.1
		C164.8,282.6,165.8,278.1,165.8,278.1z"/>
	<path class="st26" d="M165.8,278.1c0.8-2.8-4.5-22.9-9.5-29.2c-5-6.3-8.7-7.8-8.7-7.8s3.6,10.1,7.1,21.4
		c3.4,11.3,1.4,12.2,5.8,16.1C164.8,282.6,165.8,278.1,165.8,278.1z"/>
	<path d="M18.8,403.6c-3.9,0-7.1,3.8-7.1,8.5c0,4.7,3.2,8.5,7.1,8.5c3.9,0,7.1-3.8,7.1-8.5C25.9,407.4,22.8,403.6,18.8,403.6z
		 M18.8,405.3c3.1,0,5.6,3.1,5.6,6.8s-2.5,6.8-5.6,6.8c-3.1,0-5.6-3.1-5.6-6.8C13.3,408.4,15.7,405.3,18.8,405.3"/>
	<path d="M29.5,411.2L29.5,411.2c0.5-0.8,1.2-1.4,2.1-1.4c1,0,1.9,0.6,2.3,1.7c0.5-1.1,1.5-1.7,2.5-1.7c2.2,0,2.7,2.1,2.7,4.3v6.2
		h-1.4v-6c0-1.3-0.1-2.9-1.6-2.9c-1.6,0-1.8,2-1.8,3.5v5.4h-1.5v-5.8c0-1.3-0.1-3.1-1.5-3.1c-1.7,0-1.9,2.1-1.9,3.6v5.3H28v-10.2
		h1.4C29.5,410.1,29.5,411.2,29.5,411.2z"/>
	<path d="M49.7,410.1h-1.4v1.5h0c-0.7-1.1-1.8-1.7-2.9-1.7c-2.5,0-4.1,2.5-4.1,5.4c0,2.8,1.6,5.4,4.1,5.4c1.2,0,2.2-0.6,2.9-1.7h0
		v1.4h1.4L49.7,410.1L49.7,410.1z M45.4,411.4c1.8,0,2.9,1.7,2.9,3.7c0,2.1-1,3.9-2.9,3.9c-1.8,0-2.8-1.9-2.8-3.9
		C42.7,413.2,43.7,411.4,45.4,411.4"/>
	<path d="M53.8,411.4L53.8,411.4c0.6-1,1.4-1.5,2.5-1.5c2.3,0,2.9,2,2.9,4.4v6.1h-1.4v-5.8c0-1.7-0.1-3.1-1.8-3.1
		c-2,0-2.1,2.2-2.1,4v4.9h-1.4v-10.2h1.4L53.8,411.4L53.8,411.4z"/>
	<polygon points="64.6,404.2 62.6,409.8 61.6,409.3 63.3,403.6 	"/>
	<path d="M70.8,411.7c-0.4-1.1-1.3-1.9-2.3-1.9c-1.4,0-2.5,1.2-2.5,2.9c0,3.2,3.8,2.4,3.8,4.7c0,0.9-0.6,1.6-1.4,1.6
		c-0.9,0-1.4-0.7-1.7-1.6l-1.3,0.7c0.5,1.6,1.6,2.6,3,2.6c1.6,0,2.9-1.4,2.9-3.3c0-1.7-1-2.4-2-2.9c-1-0.5-2-0.9-2-1.8
		c0-0.7,0.6-1.1,1-1.1c0.5,0,1,0.5,1.2,1L70.8,411.7z"/>
	<path d="M80.5,413.2h1.1c1.1,0,2.3-0.2,3.2-1.1c0.9-0.8,1.3-2.2,1.3-3.5c0-1.5-0.5-2.9-1.6-3.8c-1-0.8-2.2-0.9-3.4-0.9H79v16.4h1.5
		V413.2z M80.5,405.6h0.6c1.8,0,3.6,0.2,3.6,2.9c0,2.4-1.4,3-3.1,3h-1V405.6"/>
	<path d="M89.4,410.1H88v10.2h1.4v-5.1c0-1.3,0.1-3.8,1.7-3.8c0.4,0,0.6,0.2,0.9,0.5l0.7-1.6c-0.4-0.3-0.8-0.5-1.3-0.5
		c-0.9,0-1.4,0.6-1.9,1.4h-0.1V410.1z"/>
	<path d="M100,414.1c-0.2-1.5-1.2-2.7-2.5-2.7c-1.2,0-2.4,1.2-2.6,2.7H100z M94.9,415.6c0,1.9,1.1,3.4,2.8,3.4c1.2,0,2-0.9,2.6-2.1
		l1.2,0.9c-0.8,1.8-2.2,2.9-3.9,2.9c-2.5,0-4.2-2.3-4.2-5.3c0-3,1.5-5.5,4.1-5.5c2.7,0,4.2,2.7,4,5.8H94.9"/>
	<path d="M105,410.1h-1.4v10.2h1.4v-5.3c0-1.5,0.2-3.6,1.9-3.6c1.4,0,1.5,1.8,1.5,3.1v5.8h1.5v-5.4c0-1.5,0.2-3.5,1.8-3.5
		c1.5,0,1.6,1.6,1.6,2.9v6h1.4v-6.2c0-2.2-0.5-4.3-2.7-4.3c-1,0-2,0.6-2.5,1.7c-0.5-1.1-1.4-1.7-2.3-1.7c-0.9,0-1.6,0.6-2.1,1.4h0
		L105,410.1L105,410.1z"/>
	<path d="M119.4,406.3c0,0.7-0.4,1.2-1,1.2c-0.6,0-1-0.5-1-1.2s0.4-1.3,1-1.3C119,405,119.4,405.6,119.4,406.3z M119.1,420.4h-1.4
		v-10.2h1.4V420.4"/>
	<path d="M129.5,415.6c0.2-3-1.3-5.8-4.1-5.8c-2.6,0-4.1,2.5-4.1,5.5c0,3,1.6,5.3,4.1,5.3c1.7,0,3.1-1,3.9-2.9l-1.2-0.9
		c-0.6,1.2-1.4,2.1-2.6,2.1c-1.6,0-2.8-1.5-2.8-3.4H129.5z M122.9,414.1c0.2-1.5,1.3-2.7,2.6-2.7c1.3,0,2.3,1.2,2.5,2.7H122.9"/>
	<path d="M132.9,411.2L132.9,411.2c0.5-0.8,1-1.4,1.9-1.4c0.5,0,0.9,0.2,1.3,0.5l-0.7,1.6c-0.3-0.2-0.5-0.5-0.9-0.5
		c-1.6,0-1.7,2.5-1.7,3.8v5.1h-1.4v-10.2h1.4L132.9,411.2L132.9,411.2z"/>
	<path d="M143.1,420.4h2.5c2.1,0,3.7-0.3,5.4-2.1c1.5-1.6,2.2-3.7,2.2-6.1c0-2.4-0.7-4.7-2.2-6.3c-1.6-1.7-3.3-2-5.3-2h-2.6
		L143.1,420.4L143.1,420.4z M144.6,418.7v-13.1h1.1c1.6,0,3,0.3,4.2,1.6c1.2,1.3,1.8,3.1,1.8,4.9c0,1.8-0.6,3.6-1.7,4.8
		c-1.2,1.4-2.6,1.7-4.3,1.7L144.6,418.7"/>
	<path d="M161.3,414.1c-0.2-1.5-1.2-2.7-2.5-2.7s-2.4,1.2-2.6,2.7H161.3z M156.1,415.6c0,1.9,1.1,3.4,2.8,3.4c1.2,0,2-0.9,2.6-2.1
		l1.2,0.9c-0.8,1.8-2.2,2.9-3.9,2.9c-2.5,0-4.1-2.3-4.1-5.3c0-3,1.5-5.5,4.1-5.5c2.7,0,4.2,2.7,4,5.8H156.1"/>
	<path d="M168.2,412.5c-0.2-0.5-0.6-1-1.2-1c-0.5,0-1,0.5-1,1.1c0,0.9,1,1.3,1.9,1.8c1,0.5,2,1.2,2,2.9c0,1.9-1.3,3.3-2.9,3.3
		c-1.4,0-2.6-1-3-2.6l1.3-0.7c0.4,1,0.8,1.6,1.7,1.6c0.8,0,1.4-0.6,1.4-1.6c0-2.3-3.8-1.5-3.8-4.7c0-1.7,1.1-2.9,2.5-2.9
		c1,0,1.9,0.8,2.2,1.9L168.2,412.5z"/>
	<polygon points="173.5,420.4 172.1,420.4 172.1,411.7 171.2,411.7 171.2,410.1 172.1,410.1 172.1,406.4 173.5,406.4 173.5,410.1 
		175,410.1 175,411.7 173.5,411.7 	"/>
	<path d="M177.3,405c-0.6,0-1,0.6-1,1.3c0,0.7,0.5,1.2,1,1.2s1-0.5,1-1.2C178.4,405.6,177.9,405,177.3,405z M178.1,410.1h-1.4v10.2
		h1.4V410.1"/>
	<path d="M182.5,411.4L182.5,411.4c0.6-1,1.4-1.5,2.5-1.5c2.4,0,2.9,2,2.9,4.4v6.1h-1.4v-5.8c0-1.7-0.1-3.1-1.8-3.1
		c-2,0-2.1,2.2-2.1,4v4.9h-1.5v-10.2h1.5L182.5,411.4L182.5,411.4z"/>
	<path d="M198.4,410.1h-1.4v1.5h0c-0.7-1.1-1.8-1.7-2.9-1.7c-2.5,0-4.1,2.5-4.1,5.4c0,2.8,1.6,5.4,4.1,5.4c1.2,0,2.2-0.6,2.9-1.7h0
		v1.4h1.4V410.1z M194.1,411.4c1.8,0,2.9,1.7,2.9,3.7c0,2.1-1,3.9-2.9,3.9c-1.8,0-2.8-1.9-2.8-3.9
		C191.4,413.2,192.5,411.4,194.1,411.4"/>
	<polygon points="202.6,420.4 201.1,420.4 201.1,411.7 200.2,411.7 200.2,410.1 201.1,410.1 201.1,406.4 202.6,406.4 202.6,410.1 
		204.1,410.1 204.1,411.7 202.6,411.7 	"/>
	<path d="M206.4,405c-0.6,0-1,0.6-1,1.3c0,0.7,0.5,1.2,1,1.2c0.6,0,1-0.5,1-1.2S206.9,405,206.4,405z M207.1,410.1h-1.4v10.2h1.4
		V410.1"/>
	<path d="M213.9,420.6c2.5,0,4.5-2.4,4.5-5.4c0-3-2-5.4-4.5-5.4c-2.5,0-4.5,2.4-4.5,5.4C209.4,418.3,211.4,420.6,213.9,420.6z
		 M213.9,411.4c1.8,0,3,1.7,3,3.8c0,2.1-1.2,3.8-3,3.8c-1.8,0-3-1.7-3-3.8C210.8,413.2,212,411.4,213.9,411.4"/>
	<path d="M221.7,411.4L221.7,411.4c0.6-1,1.4-1.5,2.5-1.5c2.4,0,2.9,2,2.9,4.4v6.1h-1.5v-5.8c0-1.7-0.1-3.1-1.8-3.1
		c-2,0-2.1,2.2-2.1,4v4.9h-1.4v-10.2h1.4L221.7,411.4L221.7,411.4z"/>
	<path d="M239.1,412l3,4.7c-1,1-2.2,2.3-3.5,2.3c-1.3,0-2.4-1.4-2.4-3c0-1.7,1.2-2.7,2.3-3.5L239.1,412z M244.5,420.4h1.9l-2.3-3.6
		l1.7-2.4l-1.1-1.1l-1.5,2.2l-2.9-4.4c1.2-1,2.4-2.1,2.4-4.1c0-1.9-1.4-3.2-2.9-3.2c-1.7,0-3,1.4-3,3.5c0,1.4,0.7,2.5,1.4,3.5
		l-0.2,0.1c-1.7,1.4-3.4,2.7-3.4,5.4c0,2.6,1.9,4.5,4,4.5c1.7,0,3.1-1.3,4.4-2.6L244.5,420.4 M239.5,409.6l-0.3-0.5
		c-0.4-0.7-0.8-1.3-0.8-2.1c0-1,0.7-1.8,1.5-1.8c0.8,0,1.5,0.7,1.5,1.7c0,1.3-0.9,1.9-1.7,2.7L239.5,409.6"/>
	<polygon points="255.1,418.7 258.8,418.7 258.8,420.4 253.5,420.4 253.5,403.9 255.1,403.9 	"/>
	<path d="M266.2,414.1c-0.2-1.5-1.2-2.7-2.5-2.7c-1.2,0-2.4,1.2-2.6,2.7H266.2z M261,415.6c0,1.9,1.1,3.4,2.8,3.4
		c1.2,0,2-0.9,2.6-2.1l1.2,0.9c-0.8,1.8-2.2,2.9-3.9,2.9c-2.6,0-4.2-2.3-4.2-5.3c0-3,1.5-5.5,4.1-5.5c2.7,0,4.2,2.7,4,5.8H261"/>
	<path d="M271.4,410.1H270v10.2h1.5V410.1z M270.7,405c-0.6,0-1,0.6-1,1.3c0,0.7,0.5,1.2,1,1.2s1-0.5,1-1.2S271.3,405,270.7,405"/>
	<path d="M277.9,412.5c-0.2-0.5-0.6-1-1.2-1c-0.5,0-1,0.5-1,1.1c0,0.9,1,1.3,2,1.8c1,0.5,2,1.2,2,2.9c0,1.9-1.3,3.3-2.9,3.3
		c-1.5,0-2.6-1-3-2.6l1.3-0.7c0.4,1,0.8,1.6,1.7,1.6c0.8,0,1.4-0.6,1.4-1.6c0-2.3-3.8-1.5-3.8-4.7c0-1.7,1.1-2.9,2.5-2.9
		c1,0,1.9,0.8,2.2,1.9L277.9,412.5z"/>
	<path d="M283,415.8c0,1.7,0.1,3.2,1.9,3.2s1.9-1.5,1.9-3.2v-5.7h1.4v5.9c0,2.7-0.9,4.6-3.4,4.6c-2.5,0-3.4-1.9-3.4-4.6v-5.9h1.4
		V415.8z"/>
	<path d="M292.3,411.2L292.3,411.2c0.5-0.8,1-1.4,1.9-1.4c0.5,0,0.9,0.2,1.3,0.5l-0.7,1.6c-0.3-0.2-0.5-0.5-0.9-0.5
		c-1.6,0-1.7,2.5-1.7,3.8v5.1h-1.5v-10.2h1.5L292.3,411.2L292.3,411.2z"/>
	<path d="M304.4,415.6c0.2-3-1.3-5.8-4-5.8c-2.6,0-4.1,2.5-4.1,5.5c0,3,1.6,5.3,4.2,5.3c1.7,0,3.1-1,3.9-2.9l-1.2-0.9
		c-0.6,1.2-1.4,2.1-2.6,2.1c-1.7,0-2.8-1.5-2.8-3.4H304.4z M297.8,414.1c0.2-1.5,1.3-2.7,2.6-2.7c1.3,0,2.3,1.2,2.5,2.7H297.8"/>
	<polygon points="313.7,403 318.6,416.8 323.6,403 326.4,420.4 324.8,420.4 323.1,409.2 323,409.2 318.6,421 314.3,409.2 
		314.2,409.2 312.5,420.4 310.9,420.4 	"/>
	<path d="M335.9,420.4h-1.5v-1.4h0c-0.7,1.1-1.8,1.7-2.9,1.7c-2.5,0-4.1-2.6-4.1-5.4c0-2.9,1.5-5.4,4.1-5.4c1.2,0,2.2,0.7,2.9,1.7h0
		v-1.5h1.5V420.4z M328.9,415.1c0,2,1,3.9,2.8,3.9c1.9,0,2.8-1.8,2.8-3.9c0-2-1.1-3.7-2.9-3.7C330,411.4,328.9,413.2,328.9,415.1"/>
	<path d="M340,411.4L340,411.4c0.6-1,1.4-1.5,2.5-1.5c2.4,0,2.9,2,2.9,4.4v6.1h-1.4v-5.8c0-1.7-0.1-3.1-1.8-3.1c-2,0-2.1,2.2-2.1,4
		v4.9h-1.5v-10.2h1.4V411.4z"/>
	<path d="M355.9,420.4h-1.4v-1.4h0c-0.7,1.1-1.7,1.7-2.9,1.7c-2.5,0-4.1-2.6-4.1-5.4c0-2.9,1.5-5.4,4.1-5.4c1.1,0,2.2,0.7,2.9,1.7h0
		v-1.5h1.4V420.4z M348.9,415.1c0,2,1,3.9,2.8,3.9c1.9,0,2.9-1.8,2.9-3.9c0-2-1-3.7-2.9-3.7C349.9,411.4,348.9,413.2,348.9,415.1"/>
	<path d="M366.2,410.1h-1.4v1.5h0c-0.7-1.1-1.7-1.7-2.9-1.7c-2.5,0-4.1,2.6-4.1,5.5c0,2.8,1.6,5.4,4.1,5.4c1.1,0,2.3-0.6,3-1.7h0
		v1.2c0,2.3-0.5,4.3-2.7,4.3c-1.6,0-2.7-1.2-2.7-3.1h-1.4c0,2.9,1.8,4.7,4.2,4.7c1.3,0,2.5-0.6,3.3-1.8c0.9-1.4,0.9-2.8,0.9-4.4
		L366.2,410.1L366.2,410.1z M362,411.4c1.8,0,2.9,1.7,2.9,3.7c0,2.1-1,3.9-2.9,3.9c-1.8,0-2.8-1.9-2.8-3.9
		C359.2,413.2,360.3,411.4,362,411.4"/>
	<path d="M374.9,414.1c-0.2-1.5-1.2-2.7-2.5-2.7c-1.2,0-2.4,1.2-2.6,2.7H374.9z M369.7,415.6c0,1.9,1.2,3.4,2.8,3.4
		c1.2,0,2-0.9,2.6-2.1l1.2,0.9c-0.8,1.8-2.2,2.9-3.9,2.9c-2.5,0-4.1-2.3-4.1-5.3c0-3,1.5-5.5,4.1-5.5c2.8,0,4.2,2.7,4,5.8H369.7"/>
	<path d="M379.8,411.2L379.8,411.2c0.5-0.8,1.2-1.4,2.1-1.4c1,0,1.9,0.6,2.3,1.7c0.5-1.1,1.5-1.7,2.5-1.7c2.2,0,2.7,2.1,2.7,4.3v6.2
		h-1.4v-6c0-1.3-0.1-2.9-1.5-2.9c-1.7,0-1.9,2-1.9,3.5v5.4h-1.4v-5.8c0-1.3-0.1-3.1-1.5-3.1c-1.7,0-1.9,2.1-1.9,3.6v5.3h-1.4v-10.2
		h1.4V411.2z"/>
	<path d="M399.7,415.6c0.1-3-1.3-5.8-4-5.8c-2.6,0-4.1,2.5-4.1,5.5c0,3,1.6,5.3,4.1,5.3c1.8,0,3.1-1,4-2.9l-1.2-0.9
		c-0.5,1.2-1.4,2.1-2.6,2.1c-1.6,0-2.8-1.5-2.8-3.4H399.7z M393.1,414.1c0.2-1.5,1.3-2.7,2.6-2.7c1.3,0,2.3,1.2,2.5,2.7H393.1"/>
	<path d="M403.1,411.4L403.1,411.4c0.6-1,1.4-1.5,2.5-1.5c2.4,0,2.9,2,2.9,4.4v6.1H407v-5.8c0-1.7-0.1-3.1-1.8-3.1
		c-2,0-2.1,2.2-2.1,4v4.9h-1.5v-10.2h1.5V411.4z"/>
	<polygon points="412.7,411.7 414.2,411.7 414.2,410.1 412.7,410.1 412.7,406.4 411.3,406.4 411.3,410.1 410.4,410.1 410.4,411.7 
		411.3,411.7 411.3,420.4 412.7,420.4 	"/>
	<path d="M431.5,407.5c-1.1-1.3-2.6-2.2-4.2-2.2c-3,0-5.5,3.2-5.5,6.8s2.5,6.8,5.5,6.8c1.5,0,3-0.9,4.1-2.2v2.3
		c-1.2,1-2.6,1.6-4.1,1.6c-3.9,0-7.1-3.8-7.1-8.4c0-4.7,3.2-8.6,7.1-8.6c1.5,0,2.9,0.5,4.1,1.6L431.5,407.5L431.5,407.5z"/>
	<path d="M434.8,415.2c0,2.1,1.2,3.8,3,3.8c1.8,0,3-1.7,3-3.8c0-2.1-1.2-3.8-3-3.8C436,411.4,434.8,413.2,434.8,415.2z M433.3,415.3
		c0-3,2-5.4,4.5-5.4c2.5,0,4.5,2.4,4.5,5.4c0,3-2,5.4-4.5,5.4S433.3,418.3,433.3,415.3"/>
	<path d="M445.7,410.1h-1.5v10.2h1.5v-5.3c0-1.5,0.2-3.6,1.9-3.6c1.4,0,1.5,1.8,1.5,3.1v5.8h1.4v-5.4c0-1.5,0.2-3.5,1.9-3.5
		c1.5,0,1.5,1.6,1.5,2.9v6h1.4v-6.2c0-2.2-0.5-4.3-2.7-4.3c-1,0-2,0.6-2.5,1.7c-0.5-1.1-1.4-1.7-2.4-1.7c-0.9,0-1.6,0.6-2,1.4h0
		L445.7,410.1L445.7,410.1z"/>
	<path d="M459.5,410.1H458v16h1.4v-7.2h0c0.7,1.1,1.8,1.7,2.9,1.7c2.5,0,4.1-2.5,4.1-5.4c0-2.8-1.6-5.4-4.1-5.4
		c-1.2,0-2.2,0.6-2.9,1.7h0L459.5,410.1L459.5,410.1z M462.2,411.4c1.8,0,2.9,1.7,2.9,3.7c0,2.1-1,3.9-2.9,3.9
		c-1.8,0-2.8-1.9-2.8-3.9C459.4,413.2,460.5,411.4,462.2,411.4"/>
	<path d="M476.3,410.1h-1.5v1.5h0c-0.7-1.1-1.8-1.7-2.9-1.7c-2.5,0-4.1,2.5-4.1,5.4c0,2.8,1.6,5.4,4.1,5.4c1.2,0,2.2-0.6,2.9-1.7h0
		v1.4h1.5L476.3,410.1L476.3,410.1z M472.1,411.4c1.8,0,2.8,1.7,2.8,3.7c0,2.1-1,3.9-2.8,3.9c-1.8,0-2.8-1.9-2.8-3.9
		C469.3,413.2,470.4,411.4,472.1,411.4"/>
	<path d="M480.4,411.4L480.4,411.4c0.6-1,1.4-1.5,2.5-1.5c2.3,0,2.9,2,2.9,4.4v6.1h-1.5v-5.8c0-1.7-0.1-3.1-1.8-3.1
		c-2,0-2.1,2.2-2.1,4v4.9H479v-10.2h1.4L480.4,411.4L480.4,411.4z"/>
	<polygon points="487.1,410.1 488.8,410.1 491.8,417.5 494.5,410.1 496.2,410.1 489.9,426.1 488.3,426.1 491,419.4 	"/>
	<g>
		<path class="st0" d="M11.1,395v-2.1l27.4-50.1h-7.1c-6.4,0-10.6,0.4-12.6,1.3c-1.2,0.5-1.9,1.1-2.3,1.9c-0.4,0.8-0.8,2.3-1.1,4.7
			l-0.1,0.8h-2.6v-11.6l30.3,1h3.5v2.1l-27.4,50.1h9.4c7.7,0,12.2-0.7,13.5-2.1c1.1-1.2,2-3.6,2.7-7.2l0.1-0.6h2.6L46.6,396
			c-10.2-0.6-19.9-0.9-29-0.9L11.1,395L11.1,395z"/>
		<path class="st0" d="M78.2,388.1c-2.1,2.7-4.2,4.7-6.5,6c-2.3,1.3-4.7,2-7.3,2c-2.6,0-4.7-0.9-6.4-2.6c-1.7-1.7-2.6-3.9-2.6-6.6
			c0-2.9,1.4-5.4,4-7.5c2.7-2,7.1-3.9,13.4-5.7l4.8-1.4v-5.5c0-2.4-0.1-4.1-0.4-5c-0.3-1-0.9-1.8-1.8-2.4c-1.4-1-3.2-1.6-5.2-1.6
			c-2.1,0-3.7,0.5-4.8,1.4c-1.1,0.9-1.6,2.3-1.6,4.1v1.8l-7.5,2.4v-1c0-2.8,1.6-5.5,4.8-8c3.2-2.4,7.1-3.6,11.9-3.6
			c3.9,0,6.8,0.8,8.5,2.4c1.8,1.6,2.6,4.3,2.6,7.9v16.6c0,4.2,0.4,7.1,1.1,8.5c0.8,1.5,2.2,2.2,4.5,2.2c0.7,0,1.5-0.1,2.3-0.2v2
			c-2.3,1.2-4.6,1.9-6.8,1.9c-2,0-3.6-0.7-4.7-2C79.3,392.8,78.5,390.8,78.2,388.1z M77.6,374.6l-2,0.6c-5.4,1.7-9,3.2-10.7,4.6
			c-1.7,1.4-2.5,3.3-2.5,5.9c0,1.7,0.6,3.1,1.8,4.4c1.2,1.2,2.5,1.9,4.1,1.9c2.6,0,5-1.2,7.2-3.7c1.4-1.6,2.1-3.8,2.1-6.7
			L77.6,374.6L77.6,374.6z"/>
		<path class="st0" d="M109.1,365.1v20.7c0,3,0.4,4.9,1.2,5.8c0.8,0.9,2.4,1.4,4.9,1.4h0.4v2.1H96.1v-2.1h0.6c2.4,0,4-0.5,4.7-1.4
			c0.8-0.9,1.1-2.8,1.1-5.8v-32.9c0-3.4-0.2-5.6-0.7-6.5c-0.5-1-1.7-1.9-3.8-2.8l-2-0.8v-0.5l12.9-4.7V363c2.8-2.7,5.5-4.7,8-6.1
			c2.5-1.4,4.9-2,7.1-2c3.2,0,5.8,1.1,7.9,3.2c2.1,2.2,3.2,6.2,3.2,12.1v15.6c0,3,0.4,4.9,1.1,5.8c0.8,0.9,2.4,1.4,4.8,1.4h0.5v2.1
			h-19.4v-2.1h0.6c2.4,0,4-0.5,4.8-1.4c0.8-0.9,1.1-2.8,1.1-5.8v-15.7c0-3.5-0.6-5.9-1.7-7.5c-1.1-1.5-3-2.3-5.6-2.3
			c-1.9,0-3.8,0.4-5.9,1.2C113.5,362.3,111.4,363.5,109.1,365.1z"/>
		<path class="st0" d="M170.3,388.1c-2,2.7-4.2,4.7-6.5,6c-2.3,1.3-4.7,2-7.3,2c-2.6,0-4.7-0.9-6.4-2.6c-1.7-1.7-2.6-3.9-2.6-6.6
			c0-2.9,1.4-5.4,4-7.5c2.7-2,7.1-3.9,13.4-5.7l4.8-1.4v-5.5c0-2.4-0.1-4.1-0.4-5c-0.3-1-0.9-1.8-1.8-2.4c-1.4-1-3.2-1.6-5.2-1.6
			c-2.1,0-3.8,0.5-4.8,1.4c-1.1,0.9-1.6,2.3-1.6,4.1v1.8l-7.5,2.4v-1c0-2.8,1.6-5.5,4.9-8c3.2-2.4,7.1-3.6,11.9-3.6
			c3.9,0,6.8,0.8,8.5,2.4c1.7,1.6,2.6,4.3,2.6,7.9v16.6c0,4.2,0.4,7.1,1.1,8.5c0.8,1.5,2.2,2.2,4.5,2.2c0.7,0,1.5-0.1,2.3-0.2v2
			c-2.3,1.2-4.6,1.9-6.8,1.9c-2,0-3.5-0.7-4.7-2C171.5,392.8,170.7,390.8,170.3,388.1z M169.8,374.6l-2,0.6c-5.4,1.7-9,3.2-10.6,4.6
			c-1.7,1.4-2.5,3.3-2.5,5.9c0,1.7,0.6,3.1,1.7,4.4c1.2,1.2,2.5,1.9,4.1,1.9c2.6,0,5-1.2,7.2-3.7c1.4-1.6,2.1-3.8,2.1-6.7
			L169.8,374.6L169.8,374.6z"/>
		<path class="st0" d="M201.5,365.7v20c0,3,0.4,4.9,1.4,5.8c0.9,0.9,2.8,1.4,5.8,1.4h0.5v2.1h-20.9v-2.1h0.6c2.5,0,4.2-0.5,4.9-1.4
			c0.8-0.9,1.2-2.8,1.2-5.8v-15.4c0-3.5-0.2-5.7-0.7-6.6c-0.5-0.9-1.8-1.8-4-2.7l-2.1-0.9v-0.5l13.2-4.7v7.7
			c2.5-2.6,4.7-4.6,6.7-5.9c2-1.3,3.9-2,5.5-2c2.9,0,5.4,1.5,7.3,4.5l-5.2,5.7c-1.8-3-3.7-4.5-5.8-4.5c-1.9,0-4.5,1.5-7.9,4.6
			C202.2,365.2,201.9,365.4,201.5,365.7z"/>
		<path class="st0" d="M247.9,388.1c-2,2.7-4.2,4.7-6.5,6c-2.3,1.3-4.7,2-7.3,2c-2.5,0-4.7-0.9-6.4-2.6c-1.7-1.7-2.5-3.9-2.5-6.6
			c0-2.9,1.4-5.4,4-7.5c2.7-2,7.1-3.9,13.4-5.7l4.8-1.4v-5.5c0-2.4-0.1-4.1-0.4-5c-0.3-1-0.9-1.8-1.8-2.4c-1.4-1-3.1-1.6-5.2-1.6
			c-2.1,0-3.7,0.5-4.8,1.4c-1.1,0.9-1.6,2.3-1.6,4.1v1.8l-7.5,2.4v-1c0-2.8,1.6-5.5,4.8-8c3.2-2.4,7.1-3.6,11.9-3.6
			c3.9,0,6.8,0.8,8.5,2.4c1.8,1.6,2.6,4.3,2.6,7.9v16.6c0,4.2,0.4,7.1,1.1,8.5c0.8,1.5,2.2,2.2,4.5,2.2c0.7,0,1.5-0.1,2.3-0.2v2
			c-2.3,1.2-4.6,1.9-6.8,1.9c-2,0-3.5-0.7-4.7-2C249,392.8,248.2,390.8,247.9,388.1z M247.4,374.6l-2,0.6c-5.4,1.7-9,3.2-10.6,4.6
			c-1.7,1.4-2.5,3.3-2.5,5.9c0,1.7,0.6,3.1,1.7,4.4c1.1,1.2,2.5,1.9,4.1,1.9c2.6,0,5-1.2,7.2-3.7c1.4-1.6,2.1-3.8,2.1-6.7
			L247.4,374.6L247.4,374.6z"/>
		<path class="st0" d="M308.5,343.3h-5.6c-4.2,0-7.1,0.6-8.7,1.7c-1.6,1.1-2.7,3.4-3.2,6.7l-0.1,0.7h-2.6l1.3-12.7
			c6,0.6,12.3,1,18.9,1h7.3c6.5,0,12.8-0.3,18.9-1l1.3,12.7h-2.6l-0.1-0.7c-0.5-3.3-1.6-5.5-3.2-6.7s-4.5-1.7-8.7-1.7h-5.6v42.4
			c0,3,0.5,4.9,1.3,5.8c0.9,0.9,2.8,1.4,5.7,1.4h0.5v2.1H301v-2.1h0.5c2.9,0,4.8-0.5,5.7-1.4c0.9-0.9,1.3-2.8,1.3-5.8L308.5,343.3
			L308.5,343.3z"/>
		<path class="st0" d="M360.2,396.1c-5.7,0-10.5-2-14.2-5.8c-3.7-3.9-5.6-8.8-5.6-14.8c0-6,1.9-10.9,5.6-14.8
			c3.7-3.9,8.4-5.8,14.2-5.8c5.8,0,10.5,1.9,14.2,5.8c3.7,3.9,5.5,8.8,5.5,14.8c0,6-1.9,11-5.5,14.8
			C370.7,394.2,366,396.1,360.2,396.1z M360.2,393.6c3.6,0,6.4-1.7,8.6-5c2.2-3.3,3.3-7.7,3.3-13.2c0-5.4-1.1-9.8-3.3-13.1
			c-2.2-3.3-5-5-8.6-5c-3.5,0-6.4,1.7-8.6,5c-2.2,3.3-3.2,7.7-3.2,13.1c0,5.5,1.1,9.8,3.2,13.2C353.8,391.9,356.7,393.6,360.2,393.6
			z"/>
		<path class="st0" d="M417.2,388.4c-2.4,2.6-4.8,4.5-7.2,5.8c-2.4,1.3-4.9,2-7.5,2c-3.9,0-6.8-1.3-8.6-3.8
			c-1.8-2.5-2.7-6.4-2.7-11.7v-10.2c0-3.5-0.2-5.8-0.7-6.7c-0.5-0.9-1.7-1.9-3.8-2.8l-2-0.9v-0.5l13-4.7v23.5
			c0,5.1,0.5,8.4,1.6,10.1c1.1,1.7,2.9,2.5,5.6,2.5c2.1,0,4.1-0.4,5.7-1.1c1.6-0.7,3.9-2.1,6.6-4.1v-15.5c0-3.5-0.2-5.6-0.7-6.6
			c-0.5-0.9-1.7-1.9-3.8-2.8l-2-0.9v-0.5l13-4.7v31.1c0,1.8,0.5,3.1,1.4,3.8c0.9,0.6,2.6,1,5.1,1h0.3v2.1l-13.2,3.3V388.4z"/>
		<path class="st0" d="M448.3,365.7v20c0,3,0.5,4.9,1.4,5.8c0.9,0.9,2.8,1.4,5.8,1.4h0.5v2.1h-20.9v-2.1h0.6c2.5,0,4.2-0.5,4.9-1.4
			c0.8-0.9,1.2-2.8,1.2-5.8v-15.4c0-3.5-0.2-5.7-0.7-6.6c-0.5-0.9-1.8-1.8-4-2.7l-2.1-0.9v-0.5l13.2-4.7v7.7
			c2.5-2.6,4.7-4.6,6.7-5.9c2-1.3,3.9-2,5.5-2c2.9,0,5.4,1.5,7.3,4.5l-5.2,5.7c-1.8-3-3.7-4.5-5.8-4.5c-1.9,0-4.5,1.5-7.9,4.6
			C449,365.2,448.7,365.4,448.3,365.7z"/>
		<path class="st0" d="M472.2,393.4l-0.8-10.1h2.8l0.1,0.7c1,6.6,4.3,9.8,9.9,9.8c2.4,0,4.5-0.7,6.2-2.2c1.7-1.5,2.6-3.3,2.6-5.4
			c0-1.3-0.5-2.5-1.3-3.5c-0.9-1-3-2.4-6.4-4.2l-3.3-1.8c-6.4-3.5-9.5-7.4-9.5-11.6c0-3.2,1.2-5.7,3.5-7.5c2.3-1.9,5.5-2.8,9.5-2.8
			c3.4,0,7.1,0.8,11.1,2.2v8.2h-2.8l-0.1-0.7c-0.2-1.1-0.4-2.1-0.7-3c-0.3-0.8-0.7-1.5-1.2-2.2c-0.5-0.6-1.3-1.2-2.2-1.7
			c-1-0.5-2.4-0.8-4.3-0.8c-2,0-3.6,0.6-4.8,1.7c-1.3,1.1-1.9,2.6-1.9,4.4c0,2.6,2.5,5.2,7.4,8l3.7,2c3.6,2,6.1,3.8,7.5,5.5
			c1.4,1.7,2,3.8,2,6.2c0,3.4-1.4,6.1-4.1,8.2c-2.8,2-6.3,3.1-10.8,3.1C479.4,396.1,475.4,395.2,472.2,393.4z"/>
	</g>
</g>
</svg>
