<svg width="1512" height="1219" viewBox="0 0 1512 1219" fill="none" xmlns="http://www.w3.org/2000/svg">
<path d="M882.918 1287.02C466.606 1372.63 123.073 1046.92 43.2515 861.705C-71.8422 512.019 -36.8525 191.359 142.486 -51.7209C369.784 -359.807 588.168 -402.072 953.932 -319.206C1353.55 -228.671 1574.42 105.16 1569.6 488.587C1564.66 880.842 1403.31 1180.01 882.918 1287.02Z" fill="url(#paint0_radial_439_350)"/>
<path d="M44.2846 861.26C43.5958 861.556 42.9071 861.853 42.2183 862.15C77.4153 940.939 133.93 1008.22 195.647 1067.6C375.059 1239.54 634.957 1342.92 883.383 1289.28C1071.84 1250.7 1263.24 1176.78 1393.89 1029.96C1526.23 884.002 1571.05 680.861 1572.55 488.624C1574.39 352.722 1547.39 215.645 1487.91 93.0306C1388.18 -119.217 1182.8 -273.513 954.564 -321.998C805.203 -355.091 646.87 -379.343 497.142 -335.062C346.703 -291.527 231.078 -176.283 140.669 -53.0617C-0.282947 134.991 -47.0435 381.064 -15.8172 611.231C-4.92324 696.511 15.2006 780.465 42.1829 862.057C42.8953 861.822 43.6077 861.588 44.3201 861.353C17.6147 779.804 -2.23456 695.955 -12.8781 610.86C-43.4133 381.152 3.78854 136.383 144.303 -50.38C234.699 -173.121 349.749 -287.189 498.635 -330.038C646.841 -373.697 804.294 -349.576 953.299 -316.414C1180.07 -268.007 1383.5 -114.971 1482.51 95.6464C1541.54 217.331 1568.41 353.461 1566.64 488.55C1565.22 680.09 1520.79 881.571 1389.82 1026.33C1260.54 1172 1070.36 1245.97 882.454 1284.77C635.873 1338.49 377.04 1236.42 197.686 1065.45C136.019 1006.44 79.4796 939.454 44.2846 861.26ZM42.2183 862.15L44.2846 861.26L44.3201 861.353L42.1829 862.057L42.2183 862.15Z" fill="url(#paint1_linear_439_350)"/>
<defs>
<radialGradient id="paint0_radial_439_350" cx="0" cy="0" r="1" gradientUnits="userSpaceOnUse" gradientTransform="translate(775.01 528.797) rotate(-87.1758) scale(947.151 843.062)">
<stop stop-color="white"/>
<stop offset="0.826969" stop-color="#FDF9FF"/>
<stop offset="1" stop-color="#E2B9FF"/>
</radialGradient>
<linearGradient id="paint1_linear_439_350" x1="-23.2388" y1="463.17" x2="2001.42" y2="1514.33" gradientUnits="userSpaceOnUse">
<stop stop-color="#E2B9FF"/>
<stop offset="0.711538" stop-color="#E1BBFF"/>
<stop offset="1" stop-color="#BC79F1"/>
</linearGradient>
</defs>
</svg>
