<svg width="143" height="63" viewBox="0 0 143 63" fill="none" xmlns="http://www.w3.org/2000/svg">
<path d="M30.1745 4.5H26.1833V21.3269C25.0586 20.2146 23.7308 19.3232 22.2858 18.7315C15.7171 15.9862 8.19553 19.1259 5.47744 25.7605C5.45401 25.8078 5.45401 25.8315 5.43058 25.8867C4.79011 27.5197 4.46987 29.2474 4.46987 31.0066C4.44644 32.7421 4.79011 34.4698 5.42277 36.0791C6.08667 37.6884 7.01613 39.1479 8.21896 40.3864C9.42179 41.625 10.8199 42.5874 12.382 43.2816C15.5453 44.6149 19.0991 44.6149 22.2546 43.2816C23.8245 42.6111 25.2461 41.625 26.4177 40.3864C27.6205 39.1479 28.5499 37.6884 29.2138 36.0791C29.8543 34.4698 30.1902 32.7342 30.1667 31.0066V30.5096V4.5H30.1745ZM23.3871 37.5701C21.7235 39.353 19.7083 40.2681 17.3339 40.2681C14.9595 40.2681 12.9444 39.3766 11.2807 37.5701C9.61706 35.7636 8.78132 33.5626 8.78132 30.9592C8.78132 28.3559 9.61706 26.1549 11.2573 24.3484C12.9209 22.5418 14.9361 21.6504 17.3339 21.6504C19.7318 21.6504 21.7469 22.5418 23.4106 24.3484C25.0742 26.1549 25.8865 28.3559 25.8865 30.9592C25.8865 33.5626 25.0508 35.7872 23.3871 37.5701Z" fill="#231F20"/>
<path d="M102.961 18.3942H106.788V43.9541H102.961V18.3942ZM106.788 10.742C106.241 10.1898 105.616 9.95312 104.913 9.95312C104.21 9.95312 103.508 10.1898 103.039 10.742C102.492 11.2942 102.258 11.9253 102.258 12.6353C102.258 13.4242 102.492 14.0553 103.039 14.5287C103.508 15.002 104.21 15.3175 104.913 15.3175C105.694 15.3175 106.319 15.0809 106.788 14.5287C107.257 14.0553 107.569 13.3453 107.569 12.6353C107.491 11.9253 107.257 11.2942 106.788 10.742ZM134.633 31.6475L134.555 56.7341H130.727V40.483C129.634 41.5875 128.384 42.3763 126.978 43.0074C120.73 45.6108 113.466 42.613 110.81 36.223C110.758 36.223 110.732 36.1967 110.732 36.1441C110.107 34.5664 109.795 32.8308 109.795 31.1742C109.795 29.5175 110.107 27.8608 110.732 26.2831C111.357 24.7053 112.216 23.2853 113.388 22.102C114.559 20.9186 115.965 19.972 117.449 19.3409C120.496 18.0786 123.932 18.0786 126.978 19.3409C128.54 19.972 129.868 20.9186 131.04 22.102C132.133 23.3642 133.071 24.7053 133.695 26.2831C134.32 27.8608 134.633 29.5175 134.633 31.1742V31.6475ZM128.072 24.8631C126.432 23.1275 124.479 22.2597 122.214 22.2597C119.949 22.2597 117.996 23.1275 116.356 24.8631C114.716 26.5986 113.935 28.7286 113.935 31.253C113.935 33.7775 114.716 35.9075 116.356 37.643C117.918 39.3786 119.949 40.2463 122.214 40.2463C124.479 40.2463 126.432 39.3786 128.072 37.643C129.712 35.9075 130.493 33.7775 130.493 31.253C130.493 28.7286 129.712 26.5986 128.072 24.8631Z" fill="url(#paint0_linear_189_1894)"/>
<path d="M56.4313 26.8321C55.8123 25.2759 54.8851 23.9516 53.7999 22.7837C52.6396 21.6158 51.3238 20.6826 49.8554 20.0596C46.8381 18.8135 43.4349 18.8135 40.4953 20.0596C38.9491 20.6826 37.6334 21.6158 36.5508 22.7837C35.3905 23.9516 34.5384 25.3541 33.9194 26.8321C33.3004 28.3884 32.9922 30.0256 32.9922 31.66C32.9922 33.2945 33.3004 34.929 33.9194 36.488L33.9971 36.5662C36.5508 42.7966 43.7431 45.8309 49.9331 43.185C51.3265 42.5619 52.5645 41.7825 53.6471 40.6928V44.1964H57.4389V31.5818C57.3612 29.9473 57.053 28.3129 56.434 26.8321H56.4313ZM50.9407 37.8878C49.3168 39.6005 47.4598 40.4582 45.1392 40.4582C42.8186 40.4582 40.9616 39.6005 39.4154 37.8878C37.7915 36.1751 37.0171 34.0713 37.0171 31.6573C37.0171 29.2434 37.7915 27.0641 39.4154 25.4269C40.9616 23.7142 42.8963 22.8565 45.1392 22.8565C47.382 22.8565 49.3168 23.7142 50.8629 25.4269C52.4868 27.1396 53.2613 29.2434 53.2613 31.6573C53.2613 34.0713 52.4868 36.0969 50.9407 37.8878Z" fill="#231F20"/>
<path d="M97.1735 26.8321C96.5545 25.2759 95.6273 23.9516 94.5421 22.7837C93.3818 21.6158 92.066 20.6826 90.5976 20.0596C87.5803 18.8135 84.1771 18.8135 81.2375 20.0596C79.6913 20.6826 78.3756 21.6158 77.293 22.7837C76.1327 23.9516 75.2806 25.3541 74.6615 26.8321C74.0425 28.3884 73.7344 30.0256 73.7344 31.66C73.7344 33.2945 74.0425 34.929 74.6615 36.488L74.7393 36.5662C77.293 42.7966 84.4852 45.8309 90.6753 43.185C92.0687 42.5619 93.3067 41.7825 94.3893 40.6928V44.1964H98.1811V31.5818C98.1034 29.9473 97.7952 28.3129 97.1762 26.8321H97.1735ZM91.6829 37.8878C90.059 39.6005 88.2019 40.4582 85.8813 40.4582C83.5608 40.4582 81.7037 39.6005 80.1576 37.8878C78.5337 36.1751 77.7593 34.0713 77.7593 31.6573C77.7593 29.2434 78.5337 27.0641 80.1576 25.4269C81.7037 23.7142 83.6385 22.8565 85.8813 22.8565C88.1242 22.8565 90.059 23.7142 91.6051 25.4269C93.229 27.1396 94.0034 29.2434 94.0034 31.6573C94.0034 34.0713 93.229 36.0969 91.6829 37.8878Z" fill="#231F20"/>
<path d="M71.5348 39.4288L71.2298 39.5911C70.7711 39.8345 70.3123 39.994 69.7739 40.1563C69.2382 40.2374 68.7794 40.3185 68.2438 40.3185C67.5542 40.3185 66.9417 40.1563 66.5598 39.9968C66.1779 39.7534 65.8703 39.4316 65.7164 39.0287C65.4857 38.6258 65.4115 38.139 65.4115 37.4927C65.4115 36.9275 65.3346 36.2 65.3346 35.5537V20.0569H71.3837V16.5847H65.3346V4.5H61.5078V36.6029C61.5078 37.7333 61.5847 38.7825 61.7385 39.6722C61.8923 40.6403 62.1973 41.4489 62.5819 42.0952C63.0406 42.7415 63.6532 43.2256 64.4197 43.6313C65.1861 43.953 66.1805 44.1964 67.4826 44.1964C68.1721 44.1964 68.8617 44.1153 69.5485 44.0342C70.3149 43.8719 70.9275 43.7124 71.5401 43.3878L71.6939 43.3067L71.5401 39.4288H71.5348Z" fill="#231F20"/>
<path d="M78.3309 54.5516C78.0305 54.8835 77.6734 55.0457 77.2473 55.0457C76.8213 55.0457 76.4544 54.8835 76.1539 54.5516C75.8756 54.2424 75.7254 53.875 75.7082 53.4442H79.5844C79.5844 53.4442 79.5573 53.1731 79.545 53.0819C79.5352 53.0084 79.4933 52.788 79.4933 52.788C79.4662 52.6613 79.4317 52.5346 79.3825 52.4104C79.2667 52.1165 79.0968 51.853 78.8801 51.63C78.6634 51.4045 78.4097 51.222 78.1265 51.1004C77.8482 50.9788 77.5502 50.918 77.2449 50.918C76.3017 50.918 75.457 51.5084 75.1023 52.4054C74.9866 52.7044 74.93 53.0211 74.93 53.3429C74.925 53.6596 74.9866 53.9764 75.1023 54.2728C75.2206 54.5668 75.388 54.8353 75.6047 55.0609C75.8215 55.2864 76.0726 55.4638 76.3534 55.5904C76.6366 55.7121 76.9395 55.7754 77.2424 55.7754C77.5453 55.7754 77.8408 55.7121 78.1191 55.5904C78.4048 55.4638 78.6609 55.2788 78.8776 55.0507C79.0722 54.8506 79.2249 54.62 79.3406 54.3666H78.4762C78.4319 54.4249 78.3826 54.4882 78.326 54.549L78.3309 54.5516ZM77.2523 51.6401C77.6758 51.6401 78.0354 51.8023 78.3358 52.1342C78.5033 52.3192 78.6314 52.5422 78.7028 52.788H75.7894C75.8633 52.5422 75.9889 52.3217 76.1588 52.1342C76.4544 51.8023 76.8188 51.6401 77.2523 51.6401Z" fill="#373A42"/>
<path d="M121.862 54.5516C121.562 54.8835 121.205 55.0457 120.779 55.0457C120.353 55.0457 119.986 54.8835 119.685 54.5516C119.407 54.2424 119.257 53.875 119.239 53.4442H123.116C123.116 53.4442 123.089 53.1731 123.076 53.0819C123.066 53.0084 123.025 52.788 123.025 52.788C122.997 52.6613 122.963 52.5346 122.914 52.4104C122.798 52.1165 122.628 51.853 122.411 51.63C122.195 51.4045 121.941 51.222 121.658 51.1004C121.379 50.9788 121.081 50.918 120.776 50.918C119.833 50.918 118.988 51.5084 118.634 52.4054C118.518 52.7044 118.461 53.0211 118.461 53.3429C118.456 53.6596 118.518 53.9764 118.634 54.2728C118.752 54.5668 118.919 54.8353 119.136 55.0609C119.353 55.2864 119.604 55.4638 119.885 55.5904C120.168 55.7121 120.471 55.7754 120.774 55.7754C121.077 55.7754 121.372 55.7121 121.65 55.5904C121.936 55.4638 122.192 55.2788 122.409 55.0507C122.603 54.8506 122.756 54.62 122.872 54.3666H122.005C121.961 54.4249 121.911 54.4882 121.86 54.549L121.862 54.5516ZM120.779 51.6401C121.202 51.6401 121.562 51.8023 121.862 52.1342C122.03 52.3192 122.158 52.5422 122.229 52.788H119.316C119.39 52.5422 119.515 52.3217 119.685 52.1342C119.986 51.8074 120.345 51.6401 120.779 51.6401Z" fill="#373A42"/>
<path d="M111.208 54.5527C110.908 54.8847 110.551 55.0468 110.125 55.0468C109.699 55.0468 109.337 54.8847 109.031 54.5527C108.731 54.2208 108.583 53.8179 108.583 53.3415C108.583 52.8652 108.733 52.4623 109.029 52.1303C109.329 51.7984 109.689 51.6362 110.122 51.6362C110.556 51.6362 110.905 51.7984 111.201 52.1303C111.302 51.8947 111.43 51.6717 111.588 51.4741C111.41 51.3195 111.213 51.1928 110.997 51.0965C110.718 50.9749 110.42 50.9141 110.115 50.9141C109.172 50.9141 108.327 51.5045 107.972 52.4014C107.857 52.7004 107.8 53.0172 107.805 53.339C107.8 53.6557 107.862 53.9725 107.977 54.2689C108.096 54.5629 108.263 54.8314 108.48 55.057C108.696 55.2825 108.948 55.4598 109.228 55.5865C109.512 55.7082 109.815 55.7715 110.117 55.7715C110.42 55.7715 110.716 55.7082 110.994 55.5865C111.211 55.4903 111.408 55.361 111.59 55.2065C111.44 55.0012 111.307 54.7858 111.206 54.5502L111.208 54.5527Z" fill="#373A42"/>
<path d="M114.831 54.5541C114.53 54.886 114.173 55.0482 113.747 55.0482C113.321 55.0482 112.959 54.886 112.654 54.5541C112.376 54.245 112.225 53.8775 112.208 53.4468H116.084C116.084 53.4468 116.057 53.1757 116.045 53.0844C116.035 53.011 115.993 52.7905 115.993 52.7905C115.966 52.6638 115.932 52.5371 115.882 52.413C115.767 52.1216 115.597 51.8555 115.38 51.6325C115.163 51.407 114.91 51.2246 114.627 51.1029C114.348 50.9813 114.05 50.918 113.745 50.918C112.802 50.918 111.957 51.5084 111.602 52.4054C111.487 52.7044 111.43 53.0211 111.43 53.3429C111.425 53.6596 111.487 53.9764 111.602 54.2728C111.721 54.5668 111.888 54.8353 112.105 55.0609C112.321 55.2864 112.573 55.4638 112.853 55.5904C113.137 55.7121 113.44 55.7754 113.742 55.7754C114.045 55.7754 114.341 55.7121 114.619 55.5904C114.905 55.4638 115.161 55.2788 115.378 55.0507C115.572 54.8506 115.725 54.62 115.841 54.3666H114.974C114.929 54.4299 114.88 54.4933 114.828 54.5516L114.831 54.5541ZM113.747 51.6427C114.171 51.6427 114.53 51.8048 114.831 52.1368C114.998 52.3217 115.126 52.5447 115.198 52.7905H112.285C112.356 52.5447 112.484 52.3243 112.654 52.1368C112.954 51.8099 113.319 51.6427 113.747 51.6427Z" fill="#373A42"/>
<path d="M118.411 51.6454C118.438 51.6505 118.463 51.6581 118.49 51.6631C118.584 51.5238 118.689 51.3869 118.808 51.2653C118.879 51.1918 118.953 51.126 119.027 51.0575C118.953 51.0347 118.847 51.0043 118.837 50.9993C118.776 50.9765 118.709 50.9638 118.643 50.9486C118.559 50.9359 118.475 50.9258 118.391 50.9258C118.007 50.9258 117.692 51.0069 117.374 51.2349C117.3 51.2856 117.229 51.3439 117.167 51.4123C117.111 51.4756 116.968 51.6353 116.968 51.7214V51.0829H116.32V55.5856H117.039V53.3912C117.039 52.8009 117.135 52.3574 117.325 52.0635C117.52 51.7696 117.805 51.6226 118.189 51.6226C118.263 51.6277 118.34 51.6353 118.409 51.6505L118.411 51.6454Z" fill="#373A42"/>
<path d="M107.466 52.4049C106.991 51.1912 105.651 50.6008 104.466 51.0899C103.885 51.3306 103.422 51.807 103.188 52.4049C103.073 52.7039 103.016 53.0207 103.016 53.3425C103.011 53.6592 103.073 53.976 103.188 54.2724C103.306 54.5663 103.474 54.8349 103.691 55.0605C103.907 55.286 104.159 55.4633 104.439 55.59C105.008 55.8358 105.646 55.8358 106.215 55.59C106.498 55.4684 106.752 55.286 106.964 55.0605C107.18 54.8349 107.348 54.5663 107.466 54.2724C107.582 53.9785 107.643 53.6592 107.638 53.3425C107.638 53.0207 107.582 52.7039 107.466 52.4049ZM106.417 54.5511C106.116 54.878 105.757 55.0453 105.328 55.0453C104.9 55.0453 104.54 54.8831 104.24 54.5511C103.939 54.2192 103.792 53.8163 103.792 53.34C103.792 52.8636 103.942 52.4607 104.24 52.1288C104.54 51.7968 104.9 51.6346 105.333 51.6346C105.767 51.6346 106.126 51.7968 106.427 52.1288C106.727 52.4607 106.875 52.8636 106.875 53.34C106.875 53.8163 106.717 54.2243 106.417 54.5511Z" fill="#373A42"/>
<path d="M102.709 48.4922H101.99V51.5759C101.788 51.3707 101.549 51.2085 101.29 51.0996C100.111 50.5953 98.7561 51.173 98.2684 52.3868C98.2635 52.3969 98.2635 52.3994 98.2586 52.4096C98.1429 52.7086 98.0862 53.0253 98.0862 53.3471C98.0813 53.6638 98.1429 53.9806 98.2586 54.277C98.3768 54.571 98.5443 54.8396 98.761 55.0651C98.9777 55.2906 99.2289 55.468 99.5096 55.5947C100.079 55.8404 100.716 55.8404 101.285 55.5947C101.568 55.473 101.822 55.2906 102.034 55.0651C102.251 54.8396 102.418 54.571 102.536 54.277C102.652 53.9831 102.714 53.6638 102.709 53.3471V53.2559V48.4922ZM101.49 54.5507C101.189 54.8776 100.83 55.0448 100.401 55.0448C99.9726 55.0448 99.6131 54.8826 99.3126 54.5507C99.0122 54.2188 98.8644 53.8159 98.8644 53.3395C98.8644 52.8631 99.0146 52.4602 99.3102 52.1283C99.6106 51.7964 99.9702 51.6342 100.404 51.6342C100.837 51.6342 101.197 51.7964 101.497 52.1283C101.797 52.4602 101.943 52.8631 101.943 53.3395C101.943 53.8159 101.793 54.2238 101.495 54.5507H101.49Z" fill="#373A42"/>
<path d="M84.4274 48.4922H83.7083V51.5759C83.5064 51.3707 83.2675 51.2085 83.0089 51.0996C81.8293 50.5953 80.4748 51.173 79.9872 52.3868C79.9823 52.3969 79.9823 52.3994 79.9774 52.4096C79.8616 52.7086 79.805 53.0253 79.805 53.3471C79.8 53.6638 79.8616 53.9806 79.9774 54.277C80.0956 54.571 80.263 54.8396 80.4797 55.0651C80.6965 55.2906 80.9476 55.468 81.2284 55.5947C81.7973 55.8404 82.4351 55.8404 83.004 55.5947C83.2872 55.473 83.5408 55.2906 83.7526 55.0651C83.9693 54.8396 84.1368 54.571 84.255 54.277C84.3708 53.9831 84.4323 53.6638 84.4274 53.3471V53.2559V48.4922ZM83.2059 54.5507C82.9055 54.8776 82.5459 55.0448 82.1174 55.0448C81.6889 55.0448 81.3294 54.8826 81.0289 54.5507C80.7285 54.2188 80.5807 53.8159 80.5807 53.3395C80.5807 52.8631 80.7309 52.4602 81.0265 52.1283C81.3269 51.7964 81.6864 51.6342 82.1199 51.6342C82.5533 51.6342 82.9129 51.7964 83.2133 52.1283C83.5138 52.4602 83.6591 52.8631 83.6591 53.3395C83.6591 53.8159 83.5088 54.2238 83.2108 54.5507H83.2059Z" fill="#373A42"/>
<path d="M126.45 52.788H124.301C124.451 52.3293 124.791 51.9315 125.231 51.7491C125.263 51.7364 125.293 51.7263 125.32 51.7161C125.606 51.6249 125.911 51.6199 126.197 51.7111C126.421 51.7846 126.625 51.9062 126.793 52.0734H127.748C127.48 51.6427 127.096 51.3082 126.643 51.1029C126.364 50.9813 126.069 50.918 125.766 50.918C125.463 50.918 125.158 50.9762 124.877 51.1029C124.594 51.2246 124.34 51.407 124.128 51.6325C123.911 51.858 123.744 52.1266 123.626 52.4206C123.51 52.7145 123.448 53.0338 123.453 53.3505C123.453 53.6723 123.51 53.989 123.626 54.288C123.742 54.582 123.911 54.8506 124.128 55.0735C124.559 55.5322 125.15 55.7856 125.768 55.7805C126.155 55.7805 126.367 55.7222 126.677 55.598C126.96 55.4764 127.214 55.294 127.431 55.071C127.647 54.8455 127.817 54.5769 127.933 54.2855C128.068 53.9358 128.132 53.5608 128.1 53.1833C128.091 53.0515 128.068 52.9197 128.039 52.793L126.458 52.7804L126.45 52.788ZM127.214 53.9105C127.108 54.245 126.906 54.5364 126.638 54.7543C126.364 54.9671 126.029 55.0761 125.69 55.0634C125.305 55.0406 124.941 54.8455 124.68 54.5566C124.635 54.5059 124.591 54.4527 124.552 54.3945C124.367 54.1132 124.251 53.7914 124.227 53.4519H127.303C127.293 53.6115 127.263 53.7635 127.214 53.913V53.9105Z" fill="url(#paint1_linear_189_1894)"/>
<path d="M127.979 50.482H127.816V50.8899H127.639V50.482H127.477V50.3502H127.979V50.482ZM128.737 50.3502V50.8899H128.565V50.6948L128.575 50.5174H128.57L128.536 50.6568L128.464 50.8874H128.319L128.247 50.6517L128.213 50.5149H128.208L128.218 50.6923V50.8874H128.041V50.3477H128.302L128.368 50.5782L128.39 50.6821H128.395L128.417 50.5782L128.489 50.3477H128.74L128.737 50.3502Z" fill="#373A42"/>
<path d="M66.9456 50.9844H67.7484L66.1797 55.6264H65.4581L64.1849 51.932L62.9856 55.6264H62.264L60.6953 50.9844H61.4981L62.6359 54.7599L63.8648 50.9844H64.5863L65.8152 54.7599L66.948 50.9844H66.9456Z" fill="#373A42"/>
<path d="M96.1041 50.8932L93.9837 56.3157C93.868 56.6197 93.7449 56.8605 93.6094 57.0353C93.474 57.2127 93.3237 57.3394 93.1612 57.4154C92.9937 57.4914 92.8041 57.5345 92.5874 57.5345C92.3855 57.5345 92.1958 57.5066 92.0234 57.4483C91.8511 57.39 91.7008 57.3115 91.5703 57.2127L91.7698 56.564C91.888 56.678 92.0161 56.7591 92.154 56.8098C92.2894 56.863 92.4224 56.8858 92.5554 56.8858C92.7105 56.8858 92.8583 56.8351 92.9962 56.7363C93.1316 56.6375 93.2597 56.4373 93.3755 56.1332L93.6094 55.5302L93.1612 54.4229L91.7255 50.8957H92.5455L93.6734 53.9237L93.9517 54.7497L94.2768 53.8299L95.3333 50.8957H96.109V50.8906L96.1041 50.8932Z" fill="#373A42"/>
<path d="M51.3284 58.0407H52.0475V54.957C52.2494 55.1622 52.4883 55.3244 52.7469 55.4334C53.9265 55.9376 55.281 55.3599 55.7686 54.1461C55.7735 54.136 55.7735 54.1335 55.7785 54.1233C55.8942 53.8243 55.9508 53.5076 55.9508 53.1858C55.9558 52.8691 55.8942 52.5523 55.7785 52.2559C55.6602 51.9619 55.4928 51.6933 55.2761 51.4678C55.0594 51.2423 54.8082 51.0649 54.5274 50.9382C53.9585 50.6925 53.3207 50.6925 52.7518 50.9382C52.4686 51.0599 52.215 51.2423 52.0032 51.4678C51.7865 51.6933 51.619 51.9619 51.5008 52.2559C51.385 52.5498 51.3235 52.8691 51.3284 53.1858V53.277V58.0407ZM52.5499 51.9847C52.8503 51.6579 53.2099 51.4906 53.6384 51.4906C54.0669 51.4906 54.4264 51.6528 54.7269 51.9847C55.0273 52.3167 55.1751 52.7196 55.1751 53.1959C55.1751 53.6723 55.0249 54.0752 54.7294 54.4071C54.4289 54.7391 54.0694 54.9012 53.6359 54.9012C53.2025 54.9012 52.8429 54.7391 52.5425 54.4071C52.2421 54.0752 52.0968 53.6723 52.0968 53.1959C52.0968 52.7196 52.247 52.3116 52.545 51.9847H52.5499Z" fill="#373A42"/>
<path d="M87.2425 53.1387V53.2299C87.2375 53.5467 87.2991 53.8634 87.4149 54.1599C87.5331 54.4538 87.7005 54.7224 87.9172 54.9479C88.134 55.1734 88.3851 55.3508 88.6659 55.4775C89.2348 55.7233 89.8726 55.7233 90.4415 55.4775C90.7247 55.3558 90.9783 55.1734 91.1901 54.9479C91.4068 54.7224 91.5743 54.4538 91.6925 54.1599C91.8083 53.8659 91.8698 53.5467 91.8649 53.2299C91.8649 52.9081 91.8083 52.5914 91.6925 52.2924C91.6876 52.2822 91.6876 52.2797 91.6827 52.2696C91.1926 51.0558 89.8406 50.4781 88.661 50.9824C88.3999 51.0964 88.1635 51.2586 87.9616 51.4587V48.375H87.2425V53.1387ZM88.464 54.4335C88.1635 54.1016 88.0157 53.6987 88.0157 53.2223C88.0157 52.7459 88.166 52.3431 88.4615 52.0111C88.7619 51.6792 89.1264 51.517 89.5549 51.517C89.9834 51.517 90.3479 51.6842 90.6483 52.0111C90.9488 52.3431 91.0941 52.7459 91.0941 53.2223C91.0941 53.6987 90.9439 54.1016 90.6459 54.4335C90.3454 54.7654 89.981 54.9276 89.5574 54.9276C89.1338 54.9276 88.7693 54.7654 88.4689 54.4335H88.464Z" fill="#373A42"/>
<path d="M70.9559 54.5516C70.6555 54.8835 70.2984 55.0457 69.8723 55.0457C69.4463 55.0457 69.0794 54.8835 68.7789 54.5516C68.5006 54.2424 68.3504 53.875 68.3332 53.4442H72.2094C72.2094 53.4442 72.1823 53.1731 72.17 53.0819C72.1602 53.0084 72.1183 52.788 72.1183 52.788C72.0912 52.6613 72.0567 52.5346 72.0075 52.4104C71.8917 52.1165 71.7218 51.853 71.5051 51.63C71.2884 51.4045 71.0347 51.222 70.7515 51.1004C70.4732 50.9788 70.1752 50.918 69.8699 50.918C68.9267 50.918 68.082 51.5084 67.7273 52.4054C67.6116 52.7044 67.555 53.0211 67.555 53.3429C67.55 53.6596 67.6116 53.9764 67.7273 54.2728C67.8456 54.5668 68.013 54.8353 68.2297 55.0609C68.4465 55.2864 68.6976 55.4638 68.9784 55.5904C69.2616 55.7121 69.5645 55.7754 69.8674 55.7754C70.1703 55.7754 70.4658 55.7121 70.7441 55.5904C71.0298 55.4638 71.2859 55.2788 71.5026 55.0507C71.6972 54.8506 71.8499 54.62 71.9656 54.3666H71.0988C71.0544 54.4249 71.0052 54.4882 70.9535 54.549L70.9559 54.5516ZM69.8723 51.6401C70.2959 51.6401 70.6555 51.8023 70.9559 52.1342C71.1234 52.3192 71.2514 52.5422 71.3229 52.788H68.4095C68.4834 52.5422 68.609 52.3217 68.7789 52.1342C69.0794 51.8023 69.4438 51.6401 69.8723 51.6401Z" fill="#373A42"/>
<path d="M60.7394 52.2487C60.2641 51.035 58.9244 50.4446 57.7399 50.9336C57.1587 51.1743 56.6957 51.6507 56.4617 52.2487C56.346 52.5477 56.2893 52.8644 56.2893 53.1862C56.2844 53.503 56.346 53.8197 56.4617 54.1162C56.5799 54.4101 56.7474 54.6787 56.9641 54.9042C57.1808 55.1297 57.432 55.3071 57.7128 55.4338C58.2816 55.6796 58.9195 55.6796 59.4884 55.4338C59.7716 55.3122 60.0252 55.1297 60.237 54.9042C60.4537 54.6787 60.6212 54.4101 60.7394 54.1162C60.8551 53.8222 60.9167 53.503 60.9118 53.1862C60.9118 52.8644 60.8551 52.5477 60.7394 52.2487ZM59.6903 54.3924C59.3898 54.7192 59.0303 54.8865 58.6018 54.8865C58.1733 54.8865 57.8137 54.7243 57.5133 54.3924C57.2128 54.0604 57.0651 53.6575 57.0651 53.1812C57.0651 52.7048 57.2153 52.3019 57.5133 51.97C57.8137 51.638 58.1733 51.4759 58.6067 51.4759C59.0401 51.4759 59.3997 51.638 59.7001 51.97C60.0006 52.3019 60.1484 52.7048 60.1484 53.1812C60.1484 53.6575 59.9907 54.0655 59.6903 54.3924Z" fill="#373A42"/>
<path d="M74.7939 51.6806C74.821 51.6856 74.8457 51.6932 74.8727 51.6983C74.9663 51.5589 75.0722 51.4221 75.1904 51.3005C75.2618 51.227 75.3357 51.1611 75.4096 51.0927C75.3357 51.0699 75.2298 51.0395 75.22 51.0344C75.1584 51.0116 75.0919 50.9989 75.0254 50.9837C74.9417 50.9711 74.858 50.9609 74.7742 50.9609C74.3901 50.9609 74.0748 51.042 73.7572 51.2701C73.6833 51.3207 73.6119 51.379 73.5503 51.4474C73.4936 51.5108 73.3508 51.6704 73.3508 51.7566V51.118H72.7031V55.6207H73.4222V53.4264C73.4222 52.836 73.5183 52.3926 73.7079 52.0987C73.8975 51.8047 74.1881 51.6578 74.5723 51.6578C74.6462 51.6628 74.7225 51.6704 74.7915 51.6856L74.7939 51.6806Z" fill="#373A42"/>
<defs>
<linearGradient id="paint0_linear_189_1894" x1="102.258" y1="33.3436" x2="134.633" y2="33.3436" gradientUnits="userSpaceOnUse">
<stop stop-color="#B063DC"/>
<stop offset="1" stop-color="#6B3FF5"/>
</linearGradient>
<linearGradient id="paint1_linear_189_1894" x1="125.781" y1="50.918" x2="125.781" y2="55.7806" gradientUnits="userSpaceOnUse">
<stop stop-color="#AC61DE"/>
<stop offset="1" stop-color="#6F41F4"/>
</linearGradient>
</defs>
</svg>
