<svg width="437" height="439" viewBox="0 0 437 439" fill="none" xmlns="http://www.w3.org/2000/svg">
<path d="M223.759 431.757C111.232 453.464 42.4469 360.409 20.8315 313.249C-10.3521 224.219 -0.956842 142.608 47.4767 80.7714C108.863 2.39842 167.891 -8.316 266.787 12.8489C374.836 35.9725 434.613 120.988 433.385 218.582C432.129 318.423 364.419 404.623 223.759 431.757Z" fill="url(#paint0_radial_3377_375)"/>
<path d="M21.8542 312.78C21.1724 313.093 20.4906 313.405 19.8088 313.718C29.2899 334.414 42.0368 353.553 56.9622 370.771C96.6654 418.39 161.863 447.57 224.188 433.98C330.446 418.574 439.244 334.495 436.344 218.619C436.829 184.978 429.942 151.049 415.099 120.709C387.526 62.5683 329.585 22.4461 267.385 10.0565C227.231 1.71934 184.877 -4.46114 144.147 6.48251C103.187 17.1832 70.7701 46.9389 45.7196 79.3952C8.45066 126.278 -4.86477 189.064 3.46233 247.497C6.45288 270.086 12.1425 292.218 19.7697 313.621C20.4776 313.373 21.1854 313.125 21.8933 312.877C14.5468 291.521 9.13804 269.504 6.40113 247.123C-1.2458 189.183 12.4373 127.788 49.2337 82.1476C96.0163 11.124 187.668 -6.81593 266.19 15.6413C327.015 27.9949 382.942 66.9762 409.707 123.34C424.105 152.772 430.844 185.738 430.426 218.544C433.353 331.061 328.612 413.267 223.331 429.534C162.675 443.159 99.0053 415.492 59.1865 368.814C44.277 351.96 31.4412 333.116 21.8542 312.78ZM19.8088 313.718L21.8542 312.78L21.8933 312.877L19.7697 313.621L19.8088 313.718Z" fill="url(#paint1_linear_3377_375)"/>
<path d="M225.932 266.416C167.438 277.7 131.682 229.328 120.446 204.813C104.236 158.534 109.12 116.11 134.297 83.9663C166.206 43.2263 196.891 37.6567 248.299 48.6587C304.465 60.6789 335.538 104.872 334.9 155.603C334.248 207.503 299.05 252.312 225.932 266.416Z" fill="url(#paint2_radial_3377_375)"/>
<path d="M121.469 204.345C120.787 204.657 120.105 204.97 119.423 205.282C124.326 216.127 130.931 226.147 138.693 235.184C159.304 260.164 193.563 275.696 226.361 268.639C281.831 260.838 339.36 216.682 337.86 155.64C338.128 137.953 334.512 120.084 326.689 104.095C312.163 73.4456 281.559 52.3153 248.897 45.8663C227.942 41.5513 205.735 38.3179 184.223 44.1413C162.58 49.8495 145.567 65.5981 132.54 82.5901C113.053 107.259 106.219 140.23 110.711 170.724C112.327 182.516 115.352 194.049 119.384 205.185C120.092 204.937 120.8 204.689 121.508 204.442C117.756 193.351 115.012 181.934 113.65 170.35C109.838 140.35 117.04 108.769 136.054 85.3425C160.487 48.7602 206.916 39.8579 247.702 51.451C278.99 57.8641 307.578 77.8536 321.297 106.726C328.675 121.808 332.143 138.712 331.941 155.566C333.469 213.248 279.997 255.531 225.503 264.194C194.374 271.284 161.644 257.266 140.918 233.228C133.171 224.553 126.478 214.829 121.469 204.345ZM119.423 205.282L121.469 204.345L121.508 204.442L119.384 205.185L119.423 205.282Z" fill="url(#paint3_linear_3377_375)"/>
<defs>
<radialGradient id="paint0_radial_3377_375" cx="0" cy="0" r="1" gradientUnits="userSpaceOnUse" gradientTransform="translate(218.52 234) rotate(-87.097) scale(246.817 227.901)">
<stop stop-color="white"/>
<stop offset="0.826969" stop-color="#FDF9FF"/>
<stop offset="1" stop-color="#E2B9FF"/>
</radialGradient>
<linearGradient id="paint1_linear_3377_375" x1="2.71451" y1="216.801" x2="541.612" y2="506.884" gradientUnits="userSpaceOnUse">
<stop stop-color="#E2B9FF"/>
<stop offset="0.711538" stop-color="#E1BBFF"/>
<stop offset="1" stop-color="#BC79F1"/>
</linearGradient>
<radialGradient id="paint2_radial_3377_375" cx="0" cy="0" r="1" gradientUnits="userSpaceOnUse" gradientTransform="translate(227.524 156.119) rotate(-89.2163) scale(112.163 103.567)">
<stop stop-color="white"/>
<stop offset="0.826969" stop-color="#FDF9FF"/>
<stop offset="1" stop-color="#E2B9FF"/>
</radialGradient>
<linearGradient id="paint3_linear_3377_375" x1="111.028" y1="154.678" x2="391.159" y2="305.469" gradientUnits="userSpaceOnUse">
<stop stop-color="#E2B9FF"/>
<stop offset="0.711538" stop-color="#E1BBFF"/>
<stop offset="1" stop-color="#BC79F1"/>
</linearGradient>
</defs>
</svg>
