<svg width="2866" height="2449" viewBox="0 0 2866 2449" fill="none" xmlns="http://www.w3.org/2000/svg">
<path d="M1502.42 864.032C1443.92 875.316 1408.17 826.943 1396.93 802.429C1380.72 756.149 1385.6 713.725 1410.78 681.582C1442.69 640.842 1473.38 635.272 1524.78 646.274C1580.95 658.294 1612.02 702.487 1611.38 753.218C1610.73 805.118 1575.53 849.927 1502.42 864.032Z" fill="url(#paint0_radial_531_137)"/>
<path d="M1397.95 801.96C1397.27 802.272 1396.59 802.585 1395.91 802.897C1400.81 813.742 1407.42 823.762 1415.18 832.8C1435.79 857.779 1470.05 873.311 1502.85 866.254C1558.32 858.453 1615.84 814.297 1614.34 753.256C1614.61 735.568 1611 717.7 1603.17 701.71C1588.65 671.061 1558.04 649.931 1525.38 643.482C1504.43 639.167 1482.22 635.933 1460.71 641.757C1439.06 647.465 1422.05 663.213 1409.02 680.205C1389.54 704.874 1382.7 737.846 1387.2 768.339C1388.81 780.131 1391.84 791.664 1395.87 802.801C1396.58 802.553 1397.28 802.305 1397.99 802.057C1394.24 790.967 1391.5 779.55 1390.13 767.965C1386.32 737.965 1393.52 706.384 1412.54 682.958C1436.97 646.375 1483.4 637.473 1524.19 649.066C1555.47 655.479 1584.06 675.469 1597.78 704.342C1605.16 719.423 1608.63 736.328 1608.43 753.181C1609.95 810.863 1556.48 853.146 1501.99 861.809C1470.86 868.9 1438.13 854.881 1417.4 830.843C1409.66 822.169 1402.96 812.444 1397.95 801.96ZM1395.91 802.897L1397.95 801.96L1397.99 802.057L1395.87 802.801L1395.91 802.897Z" fill="url(#paint1_linear_531_137)"/>
<defs>
<radialGradient id="paint0_radial_531_137" cx="0" cy="0" r="1" gradientUnits="userSpaceOnUse" gradientTransform="translate(1504.01 753.734) rotate(-89.2163) scale(112.163 103.567)">
<stop stop-color="white"/>
<stop offset="0.826969" stop-color="#FDF9FF"/>
<stop offset="1" stop-color="#E2B9FF"/>
</radialGradient>
<linearGradient id="paint1_linear_531_137" x1="1387.51" y1="752.293" x2="1667.64" y2="903.084" gradientUnits="userSpaceOnUse">
<stop stop-color="#E2B9FF"/>
<stop offset="0.711538" stop-color="#E1BBFF"/>
<stop offset="1" stop-color="#BC79F1"/>
</linearGradient>
</defs>
</svg>
