<svg width="2348" height="2450" viewBox="0 0 2348 2450" fill="none" xmlns="http://www.w3.org/2000/svg">
<path d="M1354.34 2415.33C745.663 2541.27 218.055 2020.6 101.374 1748.23C-66.8598 1234 19.4511 818.489 281.677 460.998C614.029 7.90314 933.317 -54.275 1468.07 67.548C2052.31 200.645 2340.08 635.499 2332.99 1199.36C2330.62 1387.53 2306.62 1565.57 2248.95 1725.54C2223.78 1795.36 2201.97 1866.67 2162.96 1928.94C2119.13 1998.91 2056.16 2058.76 1992.18 2117.43C1843.63 2253.64 1636.95 2356.86 1354.34 2415.33Z" fill="white"/>
<path d="M1354.56 2416.44C1354.41 2415.7 1354.26 2414.97 1354.11 2414.23C1231.43 2439.65 1104.5 2439.29 981.806 2415.37C610.502 2337.17 276.558 2083.89 103.52 1747.32L103.592 1747.51C-47.74 1322.57 2.93072 822.176 284.013 462.711C450.882 225.98 702.325 21.9057 1001.96 17.4378C1158.56 9.67592 1314.45 35.9728 1467.41 70.4443C1991 159.115 2364.23 676.715 2330.54 1199.33C2328.28 1377.27 2307.24 1556.84 2246.95 1724.82C2221.98 1794.13 2200.36 1865.37 2161.29 1927.89C2116.08 1999.87 2053.36 2058.67 1990.98 2116.13C1908.32 2192.15 1812.26 2252.96 1710.37 2300.07C1596.89 2352.56 1476.51 2388.74 1354.11 2414.23C1354.26 2414.97 1354.41 2415.7 1354.56 2416.44C1477.15 2391.16 1597.78 2355.16 1711.61 2302.76C1813.81 2255.73 1910.28 2194.91 1993.38 2118.74C2055.87 2061.34 2118.92 2002.49 2164.63 1929.98C2204.15 1866.92 2225.92 1795.4 2250.95 1726.26C2311.69 1557.73 2332.99 1377.68 2335.44 1199.4C2370.17 675.387 1994.55 153.523 1468.73 64.6517C1315.51 30.0901 1159.19 3.64771 1001.65 11.4459C699.988 15.8492 446.287 221.984 279.341 459.284C-2.67985 820.107 -53.1196 1323.41 99.1551 1748.96L99.2279 1749.15C273.851 2087.65 608.609 2340.33 981.245 2418.27C1104.34 2442.05 1231.65 2442.16 1354.56 2416.44ZM1354.11 2414.23L1354.56 2416.44L1354.11 2414.23L1354.11 2414.23Z" fill="url(#paint0_linear_3377_390)"/>
<path d="M1345.92 1833.71C929.606 1919.32 586.073 1593.61 506.251 1408.39C391.158 1058.7 426.147 738.043 605.486 494.963C832.784 186.877 1051.17 144.612 1416.93 227.478C1816.55 318.013 2037.42 651.844 2032.6 1035.27C2027.66 1427.53 1866.31 1726.7 1345.92 1833.71Z" fill="url(#paint1_radial_3377_390)"/>
<path d="M507.285 1407.94C506.596 1408.24 505.907 1408.54 505.218 1408.83C540.415 1487.62 596.93 1554.9 658.647 1614.28C838.059 1786.23 1097.96 1889.6 1346.38 1835.97C1534.84 1797.39 1726.24 1723.46 1856.89 1576.64C1989.23 1430.69 2034.05 1227.54 2035.55 1035.31C2037.39 899.406 2010.39 762.328 1950.91 639.714C1851.18 427.467 1645.8 273.171 1417.56 224.686C1268.2 191.593 1109.87 167.341 960.142 211.622C809.703 255.157 694.078 370.401 603.669 493.622C462.717 681.674 415.956 927.748 447.183 1157.91C458.077 1243.19 478.201 1327.15 505.183 1408.74C505.895 1408.51 506.608 1408.27 507.32 1408.04C480.615 1326.49 460.765 1242.64 450.122 1157.54C419.587 927.835 466.789 683.066 607.303 496.304C697.699 373.563 812.749 259.495 961.635 216.646C1109.84 172.987 1267.29 197.108 1416.3 230.27C1643.07 278.677 1846.5 431.712 1945.51 642.33C2004.54 764.015 2031.41 900.145 2029.64 1035.23C2028.22 1226.77 1983.79 1428.25 1852.82 1573.02C1723.54 1718.68 1533.36 1792.66 1345.45 1831.45C1098.87 1885.17 840.04 1783.1 660.686 1612.13C599.019 1553.12 542.48 1486.14 507.285 1407.94ZM505.218 1408.83L507.285 1407.94L507.32 1408.04L505.183 1408.74L505.218 1408.83Z" fill="url(#paint2_linear_3377_390)"/>
<path d="M1308.37 1357.73C1034.57 1414.03 808.639 1199.82 756.143 1078.01C680.449 848.032 703.46 637.143 821.406 477.276C970.895 274.656 1114.52 246.859 1355.07 301.358C1617.89 360.901 1763.15 580.452 1759.98 832.622C1756.73 1090.6 1650.62 1287.35 1308.37 1357.73Z" fill="url(#paint3_radial_3377_390)"/>
<path d="M757.176 1077.57C756.487 1077.86 755.798 1078.16 755.109 1078.46C778.258 1130.38 815.422 1174.67 856.02 1213.79C974.024 1327.04 1145.13 1395.25 1308.83 1359.99C1432.87 1334.65 1558.96 1286.05 1645.12 1189.29C1732.39 1093.09 1761.93 959.207 1762.93 832.659C1764.16 743.14 1746.37 652.826 1707.18 572.027C1641.47 432.159 1506.06 330.467 1355.7 298.566C1257.41 276.814 1153.13 260.841 1054.4 290.07C955.193 318.819 879.052 394.813 819.589 475.935C726.814 599.833 696.137 761.892 716.792 913.345C723.999 969.463 737.281 1024.7 755.074 1078.36C755.786 1078.13 756.499 1077.89 757.211 1077.66C739.695 1024.03 726.688 968.907 719.731 912.973C699.767 761.979 730.886 601.225 823.224 478.617C882.672 397.976 958.239 323.158 1055.89 295.094C1153.1 266.487 1256.5 282.329 1354.44 304.15C1503.33 335.973 1636.79 436.404 1701.78 574.643C1740.52 654.513 1758.18 743.879 1757.03 832.584C1756.11 958.436 1726.95 1090.66 1641.05 1185.66C1556.26 1281.26 1431.39 1329.92 1307.9 1355.47C1146.05 1390.82 976.005 1323.92 858.059 1211.64C817.511 1172.89 780.322 1128.89 757.176 1077.57ZM755.109 1078.46L757.176 1077.57L757.211 1077.66L755.074 1078.36L755.109 1078.46Z" fill="url(#paint4_linear_3377_390)"/>
<path d="M1244.15 1165.27C1080.1 1199.01 979.952 1055.03 948.499 982.046C903.148 844.258 916.936 717.907 987.601 622.125C1077.16 500.728 1163.22 484.074 1307.34 516.726C1464.8 552.4 1551.83 683.941 1549.93 835.025C1547.99 989.587 1449.2 1123.11 1244.15 1165.27Z" fill="url(#paint5_radial_3377_390)"/>
<path d="M949.532 981.601C948.844 981.898 948.155 982.195 947.466 982.492C961.022 1013.84 979.283 1043.09 1000.85 1069.6C1056.97 1141.66 1152.45 1189.18 1244.6 1167.48C1405.54 1142.48 1557.88 1006.45 1552.89 835.062C1553.6 783.429 1543.81 731.372 1522.17 684.295C1483.59 597.329 1400.52 533.433 1307.97 513.939C1249.01 500.921 1186.35 491.325 1126.9 508.962C1067.15 526.324 1021.42 572.089 985.788 620.787C930.254 695.098 911.899 792.175 924.253 882.82C928.601 916.7 936.648 950.031 947.431 982.398C948.143 982.164 948.855 981.929 949.568 981.695C939.062 949.371 931.291 916.146 927.192 882.453C915.523 792.269 934.314 696.49 989.414 623.462C1025.03 575.243 1070.19 530.651 1128.39 513.975C1186.33 496.96 1248.1 506.425 1306.71 519.514C1397.75 538.934 1478.83 601.504 1516.72 686.799C1537.95 732.983 1547.62 784.136 1546.98 834.988C1551.91 1003.41 1403.46 1137.19 1243.69 1163.07C1153.35 1184.74 1059.44 1138.88 1003.13 1067.71C981.572 1041.57 963.209 1012.6 949.532 981.601ZM947.466 982.492L949.532 981.601L949.568 981.695L947.431 982.398L947.466 982.492Z" fill="url(#paint6_linear_3377_390)"/>
<path d="M1241.24 1029.44C1128.72 1051.15 1059.93 958.092 1038.32 910.933C1007.13 821.903 1016.53 740.291 1064.96 678.455C1126.35 600.082 1185.38 589.368 1284.27 610.532C1392.32 633.656 1452.1 718.671 1450.87 816.265C1449.61 916.106 1381.9 1002.31 1241.24 1029.44Z" fill="url(#paint7_radial_3377_390)"/>
<path d="M1039.34 910.464C1038.66 910.776 1037.97 911.089 1037.29 911.401C1046.77 932.097 1059.52 951.237 1074.45 968.455C1114.15 1016.07 1179.35 1045.25 1241.67 1031.66C1347.93 1016.26 1456.73 932.178 1453.83 816.302C1454.31 782.661 1447.43 748.733 1432.58 718.392C1405.01 660.252 1347.07 620.13 1284.87 607.74C1244.72 599.403 1202.36 593.222 1161.63 604.166C1120.67 614.867 1088.25 644.623 1063.2 677.079C1025.94 723.961 1012.62 786.747 1020.95 845.181C1023.94 867.77 1029.63 889.902 1037.25 911.305C1037.96 911.057 1038.67 910.809 1039.38 910.561C1032.03 889.205 1026.62 867.188 1023.89 844.807C1016.24 786.866 1029.92 725.471 1066.72 679.831C1113.5 608.808 1205.15 590.868 1283.67 613.325C1344.5 625.678 1400.43 664.66 1427.19 721.024C1441.59 750.456 1448.33 783.421 1447.91 816.228C1450.84 928.744 1346.1 1010.95 1240.81 1027.22C1180.16 1040.84 1116.49 1013.18 1076.67 966.498C1061.76 949.643 1048.93 930.8 1039.34 910.464ZM1037.29 911.401L1039.34 910.464L1039.38 910.561L1037.25 911.305L1037.29 911.401Z" fill="url(#paint8_linear_3377_390)"/>
<path d="M1243.42 864.1C1184.92 875.384 1149.17 827.012 1137.93 802.497C1121.72 756.217 1126.6 713.794 1151.78 681.65C1183.69 640.91 1214.38 635.34 1265.78 646.342C1321.95 658.362 1353.02 702.555 1352.38 753.287C1351.73 805.186 1316.53 849.995 1243.42 864.1Z" fill="url(#paint9_radial_3377_390)"/>
<path d="M1138.95 802.028C1138.27 802.341 1137.59 802.653 1136.91 802.966C1141.81 813.81 1148.42 823.83 1156.18 832.868C1176.79 857.848 1211.05 873.379 1243.85 866.323C1299.32 858.522 1356.84 814.365 1355.34 753.324C1355.61 735.636 1352 717.768 1344.17 701.778C1329.65 671.129 1299.04 649.999 1266.38 643.55C1245.43 639.235 1223.22 636.001 1201.71 641.825C1180.06 647.533 1163.05 663.282 1150.02 680.274C1130.54 704.942 1123.7 737.914 1128.2 768.408C1129.81 780.2 1132.84 791.732 1136.87 802.869C1137.58 802.621 1138.28 802.373 1138.99 802.125C1135.24 791.035 1132.5 779.618 1131.13 768.034C1127.32 738.033 1134.52 706.453 1153.54 683.026C1177.97 646.444 1224.4 637.542 1265.19 649.135C1296.47 655.548 1325.06 675.537 1338.78 704.41C1346.16 719.491 1349.63 736.396 1349.43 753.249C1350.95 810.932 1297.48 853.214 1242.99 861.877C1211.86 868.968 1179.13 854.949 1158.4 830.911C1150.66 822.237 1143.96 812.513 1138.95 802.028ZM1136.91 802.966L1138.95 802.028L1138.99 802.125L1136.87 802.869L1136.91 802.966Z" fill="url(#paint10_linear_3377_390)"/>
<defs>
<linearGradient id="paint0_linear_3377_390" x1="15.2208" y1="1210.03" x2="2965.83" y2="2735.39" gradientUnits="userSpaceOnUse">
<stop stop-color="#E2B9FF"/>
<stop offset="0.711538" stop-color="#BC79F1"/>
<stop offset="1" stop-color="#BC79F1"/>
</linearGradient>
<radialGradient id="paint1_radial_3377_390" cx="0" cy="0" r="1" gradientUnits="userSpaceOnUse" gradientTransform="translate(1238.01 1075.48) rotate(-87.1758) scale(947.151 843.062)">
<stop stop-color="white"/>
<stop offset="0.826969" stop-color="#FDF9FF"/>
<stop offset="1" stop-color="#E2B9FF"/>
</radialGradient>
<linearGradient id="paint2_linear_3377_390" x1="439.761" y1="1009.85" x2="2464.42" y2="2061.01" gradientUnits="userSpaceOnUse">
<stop stop-color="#E2B9FF"/>
<stop offset="0.711538" stop-color="#E1BBFF"/>
<stop offset="1" stop-color="#BC79F1"/>
</linearGradient>
<radialGradient id="paint3_radial_3377_390" cx="0" cy="0" r="1" gradientUnits="userSpaceOnUse" gradientTransform="translate(1237.4 859.067) rotate(-87.1758) scale(622.916 554.459)">
<stop stop-color="white"/>
<stop offset="0.826969" stop-color="#FDF9FF"/>
<stop offset="1" stop-color="#E2B9FF"/>
</radialGradient>
<linearGradient id="paint4_linear_3377_390" x1="712.414" y1="815.905" x2="2043.98" y2="1507.23" gradientUnits="userSpaceOnUse">
<stop stop-color="#E2B9FF"/>
<stop offset="0.711538" stop-color="#E1BBFF"/>
<stop offset="1" stop-color="#BC79F1"/>
</linearGradient>
<radialGradient id="paint5_radial_3377_390" cx="0" cy="0" r="1" gradientUnits="userSpaceOnUse" gradientTransform="translate(1236.73 859.138) rotate(-87.2245) scale(382.061 332.206)">
<stop stop-color="white"/>
<stop offset="0.826969" stop-color="#FDF9FF"/>
<stop offset="1" stop-color="#E2B9FF"/>
</radialGradient>
<linearGradient id="paint6_linear_3377_390" x1="922.202" y1="832.759" x2="1727.57" y2="1241.37" gradientUnits="userSpaceOnUse">
<stop stop-color="#E2B9FF"/>
<stop offset="0.711538" stop-color="#E1BBFF"/>
<stop offset="1" stop-color="#BC79F1"/>
</linearGradient>
<radialGradient id="paint7_radial_3377_390" cx="0" cy="0" r="1" gradientUnits="userSpaceOnUse" gradientTransform="translate(1236 831.684) rotate(-87.097) scale(246.817 227.901)">
<stop stop-color="white"/>
<stop offset="0.826969" stop-color="#FDF9FF"/>
<stop offset="1" stop-color="#E2B9FF"/>
</radialGradient>
<linearGradient id="paint8_linear_3377_390" x1="1020.2" y1="814.485" x2="1559.1" y2="1104.57" gradientUnits="userSpaceOnUse">
<stop stop-color="#E2B9FF"/>
<stop offset="0.711538" stop-color="#E1BBFF"/>
<stop offset="1" stop-color="#BC79F1"/>
</linearGradient>
<radialGradient id="paint9_radial_3377_390" cx="0" cy="0" r="1" gradientUnits="userSpaceOnUse" gradientTransform="translate(1245.01 753.803) rotate(-89.2163) scale(112.163 103.567)">
<stop stop-color="white"/>
<stop offset="0.826969" stop-color="#FDF9FF"/>
<stop offset="1" stop-color="#E2B9FF"/>
</radialGradient>
<linearGradient id="paint10_linear_3377_390" x1="1128.51" y1="752.361" x2="1408.64" y2="903.152" gradientUnits="userSpaceOnUse">
<stop stop-color="#E2B9FF"/>
<stop offset="0.711538" stop-color="#E1BBFF"/>
<stop offset="1" stop-color="#BC79F1"/>
</linearGradient>
</defs>
</svg>
