<svg width="637" height="677" viewBox="0 0 637 677" fill="none" xmlns="http://www.w3.org/2000/svg">
<path d="M326.146 666.594C162.104 700.327 61.9516 556.349 30.4993 483.367C-14.8517 345.578 -1.0645 219.227 69.6012 123.445C159.165 2.0483 245.215 -14.6056 389.339 18.0466C546.801 53.7205 633.834 185.262 631.933 336.345C629.989 490.908 531.198 624.428 326.146 666.594Z" fill="url(#paint0_radial_3377_387)"/>
<path d="M31.5324 482.922C30.8437 483.218 30.1549 483.515 29.4661 483.812C43.0219 515.158 61.2832 544.41 82.8467 570.916C138.974 642.981 234.45 690.501 326.6 668.802C487.537 643.796 639.875 507.767 634.89 336.382C635.6 284.749 625.813 232.693 604.175 185.616C565.593 98.6491 482.518 34.753 389.971 15.2593C331.009 2.24104 268.355 -7.35431 208.897 10.2821C149.151 27.6438 103.417 73.4089 67.7883 122.107C12.2538 196.418 -6.10147 293.496 6.25278 384.14C10.6014 418.02 18.6475 451.351 29.4307 483.718C30.1431 483.484 30.8555 483.25 31.5679 483.015C21.0619 450.691 13.2906 417.466 9.19243 383.773C-2.47682 293.589 16.314 197.81 71.4141 124.783C107.029 76.5635 152.189 31.9716 210.387 15.2948C268.326 -1.72009 330.102 7.74537 388.708 20.8338C479.75 40.2545 560.832 102.824 598.722 188.119C619.951 234.303 629.619 285.457 628.976 336.308C633.914 504.727 485.461 638.515 325.692 664.386C235.353 686.062 141.441 640.203 85.1343 569.034C63.5719 542.888 45.2086 513.923 31.5324 482.922ZM29.4661 483.812L31.5324 482.922L31.5679 483.015L29.4307 483.718L29.4661 483.812Z" fill="url(#paint1_linear_3377_387)"/>
<path d="M323.244 530.757C210.716 552.464 141.931 459.409 120.316 412.249C89.1323 323.219 98.5275 241.608 146.961 179.771C208.347 101.398 267.376 90.684 366.272 111.849C474.32 134.973 534.097 219.988 532.869 317.582C531.613 417.423 463.903 503.623 323.244 530.757Z" fill="url(#paint2_radial_3377_387)"/>
<path d="M121.339 411.78C120.657 412.093 119.975 412.405 119.293 412.718C128.774 433.414 141.521 452.553 156.447 469.771C196.15 517.39 261.348 546.57 323.672 532.98C429.931 517.574 538.728 433.495 535.829 317.619C536.314 283.978 529.426 250.049 514.583 219.709C487.011 161.568 429.069 121.446 366.869 109.057C326.715 100.719 284.361 94.5389 243.631 105.483C202.672 116.183 170.255 145.939 145.204 178.395C107.935 225.278 94.6196 288.064 102.947 346.497C105.937 369.086 111.627 391.218 119.254 412.621C119.962 412.373 120.67 412.125 121.378 411.877C114.031 390.521 108.622 368.504 105.886 346.123C98.2386 288.183 111.922 226.788 148.718 181.148C195.501 110.124 287.153 92.1841 365.674 114.641C426.499 126.995 482.426 165.976 509.191 222.34C523.589 251.772 530.329 284.738 529.91 317.544C532.837 430.061 428.097 512.267 322.815 528.534C262.159 542.159 198.49 514.492 158.671 467.814C143.761 450.96 130.926 432.116 121.339 411.78ZM119.293 412.718L121.339 411.78L121.378 411.877L119.254 412.621L119.293 412.718Z" fill="url(#paint3_linear_3377_387)"/>
<path d="M325.417 365.42C266.922 376.704 231.166 328.332 219.93 303.817C203.72 257.538 208.604 215.114 233.781 182.97C265.691 142.23 296.375 136.661 347.783 147.663C403.949 159.683 435.023 203.875 434.385 254.607C433.732 306.507 398.535 351.315 325.417 365.42Z" fill="url(#paint4_radial_3377_387)"/>
<path d="M220.953 303.349C220.271 303.661 219.589 303.974 218.908 304.286C223.811 315.131 230.415 325.151 238.178 334.188C258.789 359.168 293.047 374.699 325.845 367.643C381.315 359.842 438.845 315.686 437.344 254.644C437.612 236.957 433.996 219.088 426.174 203.099C411.647 172.45 381.044 151.319 348.381 144.87C327.426 140.555 305.219 137.322 283.707 143.145C262.065 148.853 245.051 164.602 232.024 181.594C212.537 206.263 205.704 239.234 210.196 269.728C211.811 281.52 214.836 293.053 218.868 304.189C219.576 303.941 220.284 303.693 220.992 303.445C217.241 292.355 214.496 280.938 213.135 269.354C209.323 239.353 216.524 207.773 235.538 184.346C259.971 147.764 306.4 138.862 347.186 150.455C378.474 156.868 407.062 176.857 420.782 205.73C428.159 220.812 431.627 237.716 431.425 254.57C432.954 312.252 379.481 354.535 324.988 363.198C293.859 370.288 261.128 356.27 240.402 332.231C232.656 323.557 225.962 313.833 220.953 303.349ZM218.908 304.286L220.953 303.349L220.992 303.445L218.868 304.189L218.908 304.286Z" fill="url(#paint5_linear_3377_387)"/>
<defs>
<radialGradient id="paint0_radial_3377_387" cx="0" cy="0" r="1" gradientUnits="userSpaceOnUse" gradientTransform="translate(318.734 360.459) rotate(-87.2245) scale(382.061 332.206)">
<stop stop-color="white"/>
<stop offset="0.826969" stop-color="#FDF9FF"/>
<stop offset="1" stop-color="#E2B9FF"/>
</radialGradient>
<linearGradient id="paint1_linear_3377_387" x1="4.2023" y1="334.079" x2="809.57" y2="742.687" gradientUnits="userSpaceOnUse">
<stop stop-color="#E2B9FF"/>
<stop offset="0.711538" stop-color="#E1BBFF"/>
<stop offset="1" stop-color="#BC79F1"/>
</linearGradient>
<radialGradient id="paint2_radial_3377_387" cx="0" cy="0" r="1" gradientUnits="userSpaceOnUse" gradientTransform="translate(318.004 333) rotate(-87.097) scale(246.817 227.901)">
<stop stop-color="white"/>
<stop offset="0.826969" stop-color="#FDF9FF"/>
<stop offset="1" stop-color="#E2B9FF"/>
</radialGradient>
<linearGradient id="paint3_linear_3377_387" x1="102.199" y1="315.801" x2="641.096" y2="605.884" gradientUnits="userSpaceOnUse">
<stop stop-color="#E2B9FF"/>
<stop offset="0.711538" stop-color="#E1BBFF"/>
<stop offset="1" stop-color="#BC79F1"/>
</linearGradient>
<radialGradient id="paint4_radial_3377_387" cx="0" cy="0" r="1" gradientUnits="userSpaceOnUse" gradientTransform="translate(327.008 255.123) rotate(-89.2163) scale(112.163 103.567)">
<stop stop-color="white"/>
<stop offset="0.826969" stop-color="#FDF9FF"/>
<stop offset="1" stop-color="#E2B9FF"/>
</radialGradient>
<linearGradient id="paint5_linear_3377_387" x1="210.513" y1="253.681" x2="490.644" y2="404.473" gradientUnits="userSpaceOnUse">
<stop stop-color="#E2B9FF"/>
<stop offset="0.711538" stop-color="#E1BBFF"/>
<stop offset="1" stop-color="#BC79F1"/>
</linearGradient>
</defs>
</svg>
