<svg width="1614" height="1677" viewBox="0 0 1614 1677" fill="none" xmlns="http://www.w3.org/2000/svg">
<path d="M916.575 1652.02C500.262 1737.63 156.729 1411.92 76.9077 1226.7C-38.186 877.019 -3.19629 556.359 176.142 313.279C403.441 5.19316 621.824 -37.0718 987.588 45.7943C1387.2 136.329 1608.08 470.16 1603.25 853.587C1598.32 1245.84 1436.97 1545.01 916.575 1652.02Z" fill="url(#paint0_radial_3377_389)"/>
<path d="M77.9408 1226.26C77.2521 1226.56 76.5633 1226.85 75.8746 1227.15C111.072 1305.94 167.586 1373.22 229.303 1432.6C408.715 1604.54 668.613 1707.92 917.039 1654.28C1105.5 1615.7 1296.9 1541.78 1427.54 1394.96C1559.89 1249 1604.71 1045.86 1606.21 853.624C1608.05 717.722 1581.04 580.645 1521.56 458.031C1421.84 245.783 1216.46 91.487 988.22 43.0024C838.859 9.90935 680.526 -14.343 530.798 29.9379C380.36 73.4731 264.735 188.717 174.325 311.938C33.3733 499.991 -13.3873 746.064 17.839 976.231C28.733 1061.51 48.8569 1145.47 75.8391 1227.06C76.5515 1226.82 77.2639 1226.59 77.9763 1226.35C51.2709 1144.8 31.4217 1060.95 20.7782 975.86C-9.7571 746.152 37.4448 501.383 177.96 314.62C268.355 191.879 383.405 77.8114 532.292 34.962C680.498 -8.69677 837.95 15.4242 986.955 48.5861C1213.72 96.993 1417.16 250.029 1516.16 460.646C1575.19 582.332 1602.07 718.461 1600.3 853.55C1598.88 1045.09 1554.45 1246.57 1423.47 1391.33C1294.2 1537 1104.01 1610.97 916.11 1649.77C669.529 1703.49 410.696 1601.42 231.342 1430.45C169.675 1371.44 113.136 1304.45 77.9408 1226.26ZM75.8746 1227.15L77.9408 1226.26L77.9763 1226.35L75.8391 1227.06L75.8746 1227.15Z" fill="url(#paint1_linear_3377_389)"/>
<path d="M879.025 1176.05C605.227 1232.35 379.295 1018.14 326.799 896.327C251.105 666.349 274.117 455.459 392.063 295.592C541.551 92.9723 685.175 65.1758 925.728 119.675C1188.54 179.217 1333.81 398.769 1330.64 650.938C1327.39 908.914 1221.27 1105.67 879.025 1176.05Z" fill="url(#paint2_radial_3377_389)"/>
<path d="M327.832 895.882C327.143 896.179 326.454 896.476 325.766 896.773C348.914 948.692 386.078 992.988 426.676 1032.11C544.681 1145.36 715.791 1213.57 879.489 1178.31C1003.53 1152.97 1129.62 1104.36 1215.77 1007.6C1303.05 911.408 1332.59 777.523 1333.59 650.975C1334.81 561.457 1317.03 471.142 1277.83 390.344C1212.12 250.475 1076.72 148.783 926.361 116.883C828.069 95.1301 723.787 79.1575 625.055 108.386C525.85 137.136 449.708 213.13 390.245 294.251C297.471 418.149 266.793 580.208 287.448 731.661C294.655 787.779 307.937 843.012 325.73 896.679C326.443 896.445 327.155 896.21 327.867 895.976C310.351 842.351 297.344 787.223 290.387 731.29C270.423 580.296 301.542 419.541 393.88 296.933C453.328 216.292 528.895 141.474 626.548 113.41C723.759 84.8038 827.16 100.645 925.096 122.466C1073.98 154.289 1207.44 254.721 1272.43 392.959C1311.18 472.829 1328.83 562.196 1327.68 650.901C1326.76 776.752 1297.61 908.977 1211.7 1003.98C1126.91 1099.58 1002.04 1148.24 878.561 1173.79C716.706 1209.14 546.661 1142.23 428.715 1029.96C388.167 991.21 350.978 947.207 327.832 895.882ZM325.766 896.773L327.832 895.882L327.867 895.976L325.73 896.679L325.766 896.773Z" fill="url(#paint3_linear_3377_389)"/>
<path d="M814.802 983.59C650.761 1017.32 550.608 873.345 519.156 800.363C473.805 662.574 487.592 536.223 558.257 440.441C647.821 319.044 733.872 302.391 877.995 335.043C1035.46 370.717 1122.49 502.258 1120.59 653.341C1118.65 807.904 1019.85 941.425 814.802 983.59Z" fill="url(#paint4_radial_3377_389)"/>
<path d="M520.189 799.918C519.5 800.214 518.811 800.511 518.122 800.808C531.678 832.154 549.939 861.406 571.503 887.912C627.63 959.977 723.106 1007.5 815.256 985.798C976.193 960.792 1128.53 824.763 1123.55 653.378C1124.26 601.745 1114.47 549.689 1092.83 502.612C1054.25 415.645 971.174 351.749 878.627 332.255C819.666 319.237 757.011 309.642 697.553 327.278C637.807 344.64 592.074 390.405 556.445 439.104C500.91 513.415 482.555 610.492 494.909 701.136C499.258 735.016 507.304 768.348 518.087 800.715C518.799 800.48 519.512 800.246 520.224 800.011C509.718 767.687 501.947 734.462 497.849 700.769C486.179 610.585 504.97 514.806 560.07 441.779C595.685 393.56 640.845 348.968 699.044 332.291C756.983 315.276 818.758 324.741 877.364 337.83C968.406 357.251 1049.49 419.82 1087.38 505.115C1108.61 551.299 1118.27 602.453 1117.63 653.304C1122.57 821.723 974.118 955.511 814.348 981.382C724.01 1003.06 630.097 957.199 573.791 886.03C552.228 859.884 533.865 830.919 520.189 799.918ZM518.122 800.808L520.189 799.918L520.224 800.011L518.087 800.715L518.122 800.808Z" fill="url(#paint5_linear_3377_389)"/>
<path d="M811.9 847.757C699.372 869.464 630.588 776.409 608.972 729.249C577.789 640.219 587.184 558.608 635.617 496.771C697.003 418.398 756.032 407.684 854.928 428.849C962.976 451.973 1022.75 536.988 1021.53 634.582C1020.27 734.423 952.559 820.623 811.9 847.757Z" fill="url(#paint6_radial_3377_389)"/>
<path d="M609.995 728.78C609.313 729.093 608.631 729.405 607.949 729.718C617.431 750.414 630.177 769.553 645.103 786.771C684.806 834.39 750.004 863.57 812.329 849.98C918.587 834.574 1027.38 750.495 1024.48 634.619C1024.97 600.978 1018.08 567.049 1003.24 536.709C975.667 478.568 917.725 438.446 855.525 426.057C815.372 417.719 773.017 411.539 732.288 422.483C691.328 433.183 658.911 462.939 633.86 495.395C596.591 542.278 583.276 605.064 591.603 663.497C594.594 686.086 600.283 708.218 607.91 729.621C608.618 729.373 609.326 729.125 610.034 728.877C602.687 707.521 597.279 685.504 594.542 663.123C586.895 605.183 600.578 543.788 637.374 498.148C684.157 427.124 775.809 409.184 854.33 431.641C915.156 443.995 971.082 482.976 997.847 539.34C1012.25 568.772 1018.98 601.738 1018.57 634.544C1021.49 747.061 916.753 829.267 811.471 845.534C750.816 859.159 687.146 831.492 647.327 784.814C632.418 767.96 619.582 749.116 609.995 728.78ZM607.949 729.718L609.995 728.78L610.034 728.877L607.91 729.621L607.949 729.718Z" fill="url(#paint7_linear_3377_389)"/>
<path d="M814.073 682.416C755.578 693.7 719.823 645.328 708.586 620.813C692.377 574.534 697.26 532.11 722.437 499.966C754.347 459.226 785.031 453.657 836.44 464.659C892.606 476.679 923.679 520.872 923.041 571.603C922.388 623.503 887.191 668.312 814.073 682.416Z" fill="url(#paint8_radial_3377_389)"/>
<path d="M709.609 620.345C708.927 620.657 708.246 620.97 707.564 621.282C712.467 632.127 719.072 642.147 726.834 651.184C747.445 676.164 781.703 691.696 814.502 684.639C869.972 676.838 927.501 632.682 926 571.64C926.268 553.953 922.653 536.084 914.83 520.095C900.303 489.446 869.7 468.315 837.037 461.866C816.083 457.551 793.876 454.318 772.363 460.141C750.721 465.85 733.707 481.598 720.68 498.59C701.194 523.259 694.36 556.23 698.852 586.724C700.467 598.516 703.493 610.049 707.525 621.185C708.233 620.937 708.94 620.689 709.648 620.442C705.897 609.351 703.153 597.934 701.791 586.35C697.979 556.35 705.18 524.769 724.194 501.343C748.628 464.76 795.057 455.858 835.842 467.451C867.13 473.864 895.719 493.854 909.438 522.726C916.816 537.808 920.283 554.712 920.082 571.566C921.61 629.248 868.137 671.531 813.644 680.194C782.515 687.284 749.785 673.266 729.058 649.228C721.312 640.553 714.618 630.829 709.609 620.345ZM707.564 621.282L709.609 620.345L709.648 620.442L707.525 621.185L707.564 621.282Z" fill="url(#paint9_linear_3377_389)"/>
<defs>
<radialGradient id="paint0_radial_3377_389" cx="0" cy="0" r="1" gradientUnits="userSpaceOnUse" gradientTransform="translate(808.666 893.797) rotate(-87.1758) scale(947.151 843.062)">
<stop stop-color="white"/>
<stop offset="0.826969" stop-color="#FDF9FF"/>
<stop offset="1" stop-color="#E2B9FF"/>
</radialGradient>
<linearGradient id="paint1_linear_3377_389" x1="10.4174" y1="828.17" x2="2035.07" y2="1879.33" gradientUnits="userSpaceOnUse">
<stop stop-color="#E2B9FF"/>
<stop offset="0.711538" stop-color="#E1BBFF"/>
<stop offset="1" stop-color="#BC79F1"/>
</linearGradient>
<radialGradient id="paint2_radial_3377_389" cx="0" cy="0" r="1" gradientUnits="userSpaceOnUse" gradientTransform="translate(808.057 677.383) rotate(-87.1758) scale(622.916 554.459)">
<stop stop-color="white"/>
<stop offset="0.826969" stop-color="#FDF9FF"/>
<stop offset="1" stop-color="#E2B9FF"/>
</radialGradient>
<linearGradient id="paint3_linear_3377_389" x1="283.07" y1="634.222" x2="1614.63" y2="1325.54" gradientUnits="userSpaceOnUse">
<stop stop-color="#E2B9FF"/>
<stop offset="0.711538" stop-color="#E1BBFF"/>
<stop offset="1" stop-color="#BC79F1"/>
</linearGradient>
<radialGradient id="paint4_radial_3377_389" cx="0" cy="0" r="1" gradientUnits="userSpaceOnUse" gradientTransform="translate(807.39 677.455) rotate(-87.2245) scale(382.061 332.206)">
<stop stop-color="white"/>
<stop offset="0.826969" stop-color="#FDF9FF"/>
<stop offset="1" stop-color="#E2B9FF"/>
</radialGradient>
<linearGradient id="paint5_linear_3377_389" x1="492.859" y1="651.075" x2="1298.23" y2="1059.68" gradientUnits="userSpaceOnUse">
<stop stop-color="#E2B9FF"/>
<stop offset="0.711538" stop-color="#E1BBFF"/>
<stop offset="1" stop-color="#BC79F1"/>
</linearGradient>
<radialGradient id="paint6_radial_3377_389" cx="0" cy="0" r="1" gradientUnits="userSpaceOnUse" gradientTransform="translate(806.66 650) rotate(-87.097) scale(246.817 227.901)">
<stop stop-color="white"/>
<stop offset="0.826969" stop-color="#FDF9FF"/>
<stop offset="1" stop-color="#E2B9FF"/>
</radialGradient>
<linearGradient id="paint7_linear_3377_389" x1="590.855" y1="632.801" x2="1129.75" y2="922.884" gradientUnits="userSpaceOnUse">
<stop stop-color="#E2B9FF"/>
<stop offset="0.711538" stop-color="#E1BBFF"/>
<stop offset="1" stop-color="#BC79F1"/>
</linearGradient>
<radialGradient id="paint8_radial_3377_389" cx="0" cy="0" r="1" gradientUnits="userSpaceOnUse" gradientTransform="translate(815.665 572.119) rotate(-89.2163) scale(112.163 103.567)">
<stop stop-color="white"/>
<stop offset="0.826969" stop-color="#FDF9FF"/>
<stop offset="1" stop-color="#E2B9FF"/>
</radialGradient>
<linearGradient id="paint9_linear_3377_389" x1="699.169" y1="570.678" x2="979.3" y2="721.469" gradientUnits="userSpaceOnUse">
<stop stop-color="#E2B9FF"/>
<stop offset="0.711538" stop-color="#E1BBFF"/>
<stop offset="1" stop-color="#BC79F1"/>
</linearGradient>
</defs>
</svg>
