<svg width="1062" height="1103" viewBox="0 0 1062 1103" fill="none" xmlns="http://www.w3.org/2000/svg">
<path d="M602.806 1086.49C329.009 1142.8 103.076 928.585 50.5801 806.773C-25.1139 576.794 -2.10211 365.905 115.844 206.038C265.332 3.41764 408.957 -24.3789 649.51 30.1199C912.325 89.6623 1057.59 309.214 1054.42 561.383C1051.17 819.359 945.053 1016.12 602.806 1086.49Z" fill="url(#paint0_radial_3377_388)"/>
<path d="M51.6133 806.328C50.9245 806.624 50.2357 806.921 49.547 807.218C72.6954 859.137 109.859 903.433 150.457 942.551C268.462 1055.8 439.572 1124.01 603.27 1088.75C727.311 1063.42 853.398 1014.81 939.553 918.049C1026.83 821.853 1056.37 687.969 1057.37 561.42C1058.59 471.902 1040.81 381.588 1001.61 300.789C935.904 160.921 800.5 59.2283 650.142 27.328C551.85 5.57542 447.569 -10.3972 348.836 18.8317C249.631 47.581 173.489 123.575 114.027 204.697C21.2518 328.594 -9.42578 490.653 11.2292 642.106C18.4367 698.225 31.7186 753.457 49.5115 807.124C50.2239 806.89 50.9363 806.656 51.6487 806.421C34.1327 752.796 21.1254 697.668 14.1683 641.735C-5.79562 490.741 25.3233 329.986 117.661 207.378C177.109 126.737 252.676 51.9193 350.329 23.8558C447.54 -4.75092 550.941 11.0903 648.877 32.9118C797.765 64.7343 931.224 165.166 996.214 303.405C1034.96 383.275 1052.61 472.641 1051.46 561.346C1050.54 687.198 1021.39 819.422 935.484 914.425C850.696 1010.03 725.825 1058.69 602.342 1084.24C440.488 1119.58 270.443 1052.68 152.496 940.402C111.948 901.656 74.7597 857.652 51.6133 806.328ZM49.547 807.218L51.6133 806.328L51.6487 806.421L49.5115 807.124L49.547 807.218Z" fill="url(#paint1_linear_3377_388)"/>
<path d="M538.584 894.036C374.542 927.768 274.389 783.79 242.937 710.808C197.586 573.02 211.373 446.668 282.039 350.886C371.602 229.49 457.653 212.836 601.777 245.488C759.239 281.162 846.271 412.703 844.371 563.787C842.426 718.349 743.636 851.87 538.584 894.036Z" fill="url(#paint2_radial_3377_388)"/>
<path d="M243.97 710.363C243.281 710.66 242.592 710.957 241.904 711.253C255.459 742.599 273.721 771.852 295.284 798.358C351.411 870.422 446.887 917.942 539.038 896.243C699.974 871.237 852.313 735.208 847.328 563.824C848.038 512.19 838.251 460.134 816.612 413.057C778.03 326.091 694.955 262.194 602.408 242.701C543.447 229.682 480.792 220.087 421.335 237.724C361.588 255.085 315.855 300.85 280.226 349.549C224.691 423.86 206.336 520.937 218.69 611.582C223.039 645.462 231.085 678.793 241.868 711.16C242.581 710.925 243.293 710.691 244.005 710.456C233.499 678.133 225.728 644.907 221.63 611.214C209.961 521.03 228.752 425.252 283.852 352.224C319.466 304.005 364.626 259.413 422.825 242.736C480.764 225.721 542.54 235.187 601.145 248.275C692.187 267.696 773.27 330.266 811.159 415.56C832.388 461.745 842.056 512.898 841.413 563.749C846.351 732.169 697.899 865.956 538.13 891.828C447.791 913.504 353.878 867.645 297.572 796.475C276.009 770.329 257.646 741.364 243.97 710.363ZM241.904 711.253L243.97 710.363L244.005 710.456L241.868 711.16L241.904 711.253Z" fill="url(#paint3_linear_3377_388)"/>
<path d="M535.681 758.202C423.154 779.91 354.369 686.854 332.753 639.694C301.57 550.665 310.965 469.053 359.399 407.217C420.784 328.844 479.813 318.129 578.709 339.294C686.757 362.418 746.534 447.433 745.307 545.027C744.051 644.868 676.341 731.068 535.681 758.202Z" fill="url(#paint4_radial_3377_388)"/>
<path d="M333.776 639.226C333.094 639.538 332.412 639.851 331.731 640.163C341.212 660.859 353.959 679.998 368.884 697.216C408.587 744.836 473.785 774.015 536.11 760.425C642.368 745.02 751.166 660.94 748.266 545.064C748.751 511.423 741.864 477.494 727.021 447.154C699.448 389.014 641.506 348.891 579.307 336.502C539.153 328.165 496.798 321.984 456.069 332.928C415.109 343.628 382.692 373.384 357.641 405.841C320.373 452.723 307.057 515.509 315.384 573.943C318.375 596.531 324.064 618.664 331.692 640.066C332.399 639.818 333.107 639.57 333.815 639.323C326.469 617.967 321.06 595.95 318.323 573.569C310.676 515.628 324.359 454.233 361.156 408.593C407.938 337.569 499.59 319.629 578.111 342.087C638.937 354.44 694.864 393.422 721.628 449.786C736.027 479.218 742.766 512.183 742.347 544.99C745.275 657.506 640.534 739.713 535.252 755.98C474.597 769.604 410.927 741.937 371.108 695.26C356.199 678.405 343.363 659.561 333.776 639.226ZM331.731 640.163L333.776 639.226L333.815 639.323L331.692 640.066L331.731 640.163Z" fill="url(#paint5_linear_3377_388)"/>
<path d="M537.854 592.862C479.36 604.146 443.604 555.773 432.368 531.259C416.158 484.979 421.042 442.556 446.218 410.412C478.128 369.672 508.813 364.102 560.221 375.104C616.387 387.124 647.46 431.317 646.822 482.048C646.169 533.948 610.972 578.757 537.854 592.862Z" fill="url(#paint6_radial_3377_388)"/>
<path d="M433.39 530.79C432.709 531.102 432.027 531.415 431.345 531.727C436.248 542.572 442.853 552.592 450.615 561.63C471.226 586.609 505.484 602.141 538.283 595.084C593.753 587.283 651.282 543.127 649.782 482.086C650.05 464.398 646.434 446.53 638.611 430.54C624.085 399.891 593.481 378.761 560.819 372.312C539.864 367.997 517.657 364.763 496.145 370.587C474.502 376.295 457.488 392.043 444.461 409.035C424.975 433.704 418.141 466.676 422.633 497.169C424.249 508.961 427.274 520.494 431.306 531.631C432.014 531.383 432.722 531.135 433.429 530.887C429.678 519.797 426.934 508.38 425.572 496.795C421.76 466.795 428.961 435.214 447.976 411.788C472.409 375.205 518.838 366.303 559.623 377.896C590.912 384.309 619.5 404.299 633.219 433.172C640.597 448.253 644.065 465.158 643.863 482.011C645.391 539.693 591.919 581.976 537.425 590.639C506.296 597.73 473.566 583.711 452.84 559.673C445.093 550.999 438.399 541.274 433.39 530.79ZM431.345 531.727L433.39 530.79L433.429 530.887L431.306 531.631L431.345 531.727Z" fill="url(#paint7_linear_3377_388)"/>
<defs>
<radialGradient id="paint0_radial_3377_388" cx="0" cy="0" r="1" gradientUnits="userSpaceOnUse" gradientTransform="translate(531.838 587.828) rotate(-87.1758) scale(622.916 554.459)">
<stop stop-color="white"/>
<stop offset="0.826969" stop-color="#FDF9FF"/>
<stop offset="1" stop-color="#E2B9FF"/>
</radialGradient>
<linearGradient id="paint1_linear_3377_388" x1="6.85124" y1="544.667" x2="1338.41" y2="1235.99" gradientUnits="userSpaceOnUse">
<stop stop-color="#E2B9FF"/>
<stop offset="0.711538" stop-color="#E1BBFF"/>
<stop offset="1" stop-color="#BC79F1"/>
</linearGradient>
<radialGradient id="paint2_radial_3377_388" cx="0" cy="0" r="1" gradientUnits="userSpaceOnUse" gradientTransform="translate(531.171 587.9) rotate(-87.2245) scale(382.061 332.206)">
<stop stop-color="white"/>
<stop offset="0.826969" stop-color="#FDF9FF"/>
<stop offset="1" stop-color="#E2B9FF"/>
</radialGradient>
<linearGradient id="paint3_linear_3377_388" x1="216.64" y1="561.52" x2="1022.01" y2="970.129" gradientUnits="userSpaceOnUse">
<stop stop-color="#E2B9FF"/>
<stop offset="0.711538" stop-color="#E1BBFF"/>
<stop offset="1" stop-color="#BC79F1"/>
</linearGradient>
<radialGradient id="paint4_radial_3377_388" cx="0" cy="0" r="1" gradientUnits="userSpaceOnUse" gradientTransform="translate(530.441 560.445) rotate(-87.097) scale(246.817 227.901)">
<stop stop-color="white"/>
<stop offset="0.826969" stop-color="#FDF9FF"/>
<stop offset="1" stop-color="#E2B9FF"/>
</radialGradient>
<linearGradient id="paint5_linear_3377_388" x1="314.636" y1="543.246" x2="853.534" y2="833.329" gradientUnits="userSpaceOnUse">
<stop stop-color="#E2B9FF"/>
<stop offset="0.711538" stop-color="#E1BBFF"/>
<stop offset="1" stop-color="#BC79F1"/>
</linearGradient>
<radialGradient id="paint6_radial_3377_388" cx="0" cy="0" r="1" gradientUnits="userSpaceOnUse" gradientTransform="translate(539.446 482.564) rotate(-89.2163) scale(112.163 103.567)">
<stop stop-color="white"/>
<stop offset="0.826969" stop-color="#FDF9FF"/>
<stop offset="1" stop-color="#E2B9FF"/>
</radialGradient>
<linearGradient id="paint7_linear_3377_388" x1="422.95" y1="481.123" x2="703.081" y2="631.914" gradientUnits="userSpaceOnUse">
<stop stop-color="#E2B9FF"/>
<stop offset="0.711538" stop-color="#E1BBFF"/>
<stop offset="1" stop-color="#BC79F1"/>
</linearGradient>
</defs>
</svg>
