<svg width="2866" height="2449" viewBox="0 0 2866 2449" fill="none" xmlns="http://www.w3.org/2000/svg">
<path d="M1500.24 1029.44C1387.72 1051.15 1318.93 958.09 1297.32 910.931C1266.13 821.901 1275.53 740.289 1323.96 678.453C1385.35 600.08 1444.38 589.366 1543.27 610.531C1651.32 633.654 1711.1 718.669 1709.87 816.263C1708.61 916.104 1640.9 1002.3 1500.24 1029.44Z" fill="url(#paint0_radial_531_130)"/>
<path d="M1298.34 910.462C1297.66 910.775 1296.97 911.087 1296.29 911.4C1305.77 932.095 1318.52 951.235 1333.45 968.453C1373.15 1016.07 1438.35 1045.25 1500.67 1031.66C1606.93 1016.26 1715.73 932.176 1712.83 816.3C1713.31 782.659 1706.43 748.731 1691.58 718.39C1664.01 660.25 1606.07 620.128 1543.87 607.738C1503.72 599.401 1461.36 593.221 1420.63 604.164C1379.67 614.865 1347.25 644.621 1322.2 677.077C1284.94 723.959 1271.62 786.745 1279.95 845.179C1282.94 867.768 1288.63 889.9 1296.25 911.303C1296.96 911.055 1297.67 910.807 1298.38 910.559C1291.03 889.203 1285.62 867.186 1282.89 844.805C1275.24 786.864 1288.92 725.469 1325.72 679.829C1372.5 608.806 1464.15 590.866 1542.67 613.323C1603.5 625.677 1659.43 664.658 1686.19 721.022C1700.59 750.454 1707.33 783.419 1706.91 816.226C1709.84 928.742 1605.1 1010.95 1499.81 1027.22C1439.16 1040.84 1375.49 1013.17 1335.67 966.496C1320.76 949.641 1307.93 930.798 1298.34 910.462ZM1296.29 911.4L1298.34 910.462L1298.38 910.559L1296.25 911.303L1296.29 911.4Z" fill="url(#paint1_linear_531_130)"/>
<path d="M1502.42 864.032C1443.92 875.316 1408.17 826.943 1396.93 802.429C1380.72 756.149 1385.6 713.725 1410.78 681.582C1442.69 640.842 1473.38 635.272 1524.78 646.274C1580.95 658.294 1612.02 702.487 1611.38 753.218C1610.73 805.118 1575.53 849.927 1502.42 864.032Z" fill="url(#paint2_radial_531_130)"/>
<path d="M1397.95 801.96C1397.27 802.272 1396.59 802.585 1395.91 802.897C1400.81 813.742 1407.42 823.762 1415.18 832.8C1435.79 857.779 1470.05 873.311 1502.85 866.254C1558.32 858.453 1615.84 814.297 1614.34 753.256C1614.61 735.568 1611 717.7 1603.17 701.71C1588.65 671.061 1558.04 649.931 1525.38 643.482C1504.43 639.167 1482.22 635.933 1460.71 641.757C1439.06 647.465 1422.05 663.213 1409.02 680.205C1389.54 704.874 1382.7 737.846 1387.2 768.339C1388.81 780.131 1391.84 791.664 1395.87 802.801C1396.58 802.553 1397.28 802.305 1397.99 802.057C1394.24 790.967 1391.5 779.55 1390.13 767.965C1386.32 737.965 1393.52 706.384 1412.54 682.958C1436.97 646.375 1483.4 637.473 1524.19 649.066C1555.47 655.479 1584.06 675.469 1597.78 704.342C1605.16 719.423 1608.63 736.328 1608.43 753.181C1609.95 810.863 1556.48 853.146 1501.99 861.809C1470.86 868.9 1438.13 854.881 1417.4 830.843C1409.66 822.169 1402.96 812.444 1397.95 801.96ZM1395.91 802.897L1397.95 801.96L1397.99 802.057L1395.87 802.801L1395.91 802.897Z" fill="url(#paint3_linear_531_130)"/>
<defs>
<radialGradient id="paint0_radial_531_130" cx="0" cy="0" r="1" gradientUnits="userSpaceOnUse" gradientTransform="translate(1495 831.682) rotate(-87.097) scale(246.817 227.901)">
<stop stop-color="white"/>
<stop offset="0.826969" stop-color="#FDF9FF"/>
<stop offset="1" stop-color="#E2B9FF"/>
</radialGradient>
<linearGradient id="paint1_linear_531_130" x1="1279.2" y1="814.483" x2="1818.1" y2="1104.57" gradientUnits="userSpaceOnUse">
<stop stop-color="#E2B9FF"/>
<stop offset="0.711538" stop-color="#E1BBFF"/>
<stop offset="1" stop-color="#BC79F1"/>
</linearGradient>
<radialGradient id="paint2_radial_531_130" cx="0" cy="0" r="1" gradientUnits="userSpaceOnUse" gradientTransform="translate(1504.01 753.734) rotate(-89.2163) scale(112.163 103.567)">
<stop stop-color="white"/>
<stop offset="0.826969" stop-color="#FDF9FF"/>
<stop offset="1" stop-color="#E2B9FF"/>
</radialGradient>
<linearGradient id="paint3_linear_531_130" x1="1387.51" y1="752.293" x2="1667.64" y2="903.084" gradientUnits="userSpaceOnUse">
<stop stop-color="#E2B9FF"/>
<stop offset="0.711538" stop-color="#E1BBFF"/>
<stop offset="1" stop-color="#BC79F1"/>
</linearGradient>
</defs>
</svg>
