<svg width="2866" height="2449" viewBox="0 0 2866 2449" fill="none" xmlns="http://www.w3.org/2000/svg">
<path d="M1604.92 1833.71C1188.61 1919.31 845.073 1593.6 765.251 1408.39C650.158 1058.7 685.147 738.041 864.486 494.961C1091.78 186.875 1310.17 144.61 1675.93 227.476C2075.55 318.011 2296.42 651.842 2291.6 1035.27C2286.66 1427.52 2125.31 1726.7 1604.92 1833.71Z" fill="url(#paint0_radial_531_108)"/>
<path d="M766.285 1407.94C765.596 1408.24 764.907 1408.53 764.218 1408.83C799.415 1487.62 855.93 1554.9 917.647 1614.28C1097.06 1786.22 1356.96 1889.6 1605.38 1835.96C1793.84 1797.39 1985.24 1723.46 2115.89 1576.64C2248.23 1430.68 2293.05 1227.54 2294.55 1035.31C2296.39 899.404 2269.39 762.326 2209.91 639.712C2110.18 427.465 1904.8 273.169 1676.56 224.684C1527.2 191.591 1368.87 167.339 1219.14 211.62C1068.7 255.155 953.078 370.399 862.669 493.62C721.717 681.672 674.956 927.746 706.183 1157.91C717.077 1243.19 737.201 1327.15 764.183 1408.74C764.895 1408.5 765.608 1408.27 766.32 1408.03C739.615 1326.49 719.765 1242.64 709.122 1157.54C678.587 927.833 725.789 683.064 866.303 496.302C956.699 373.561 1071.75 259.493 1220.64 216.644C1368.84 172.985 1526.29 197.106 1675.3 230.268C1902.07 278.675 2105.5 431.71 2204.51 642.328C2263.54 764.013 2290.41 900.143 2288.64 1035.23C2287.22 1226.77 2242.79 1428.25 2111.82 1573.02C1982.54 1718.68 1792.36 1792.65 1604.45 1831.45C1357.87 1885.17 1099.04 1783.1 919.686 1612.13C858.019 1553.12 801.48 1486.14 766.285 1407.94ZM764.218 1408.83L766.285 1407.94L766.32 1408.03L764.183 1408.74L764.218 1408.83Z" fill="url(#paint1_linear_531_108)"/>
<path d="M1567.37 1357.73C1293.57 1414.03 1067.64 1199.82 1015.14 1078.01C939.449 848.03 962.46 637.141 1080.41 477.274C1229.89 274.654 1373.52 246.857 1614.07 301.356C1876.89 360.899 2022.15 580.45 2018.98 832.62C2015.73 1090.6 1909.62 1287.35 1567.37 1357.73Z" fill="url(#paint2_radial_531_108)"/>
<path d="M1016.18 1077.56C1015.49 1077.86 1014.8 1078.16 1014.11 1078.45C1037.26 1130.37 1074.42 1174.67 1115.02 1213.79C1233.02 1327.04 1404.13 1395.25 1567.83 1359.99C1691.87 1334.65 1817.96 1286.04 1904.12 1189.29C1991.39 1093.09 2020.93 959.205 2021.93 832.657C2023.16 743.138 2005.37 652.824 1966.18 572.025C1900.47 432.157 1765.06 330.465 1614.7 298.564C1516.41 276.812 1412.13 260.839 1313.4 290.068C1214.19 318.817 1138.05 394.811 1078.59 475.933C985.814 599.831 955.137 761.89 975.792 913.343C982.999 969.461 996.281 1024.69 1014.07 1078.36C1014.79 1078.13 1015.5 1077.89 1016.21 1077.66C998.695 1024.03 985.688 968.905 978.731 912.971C958.767 761.977 989.886 601.223 1082.22 478.615C1141.67 397.974 1217.24 323.156 1314.89 295.092C1412.1 266.485 1515.5 282.327 1613.44 304.148C1762.33 335.971 1895.79 436.402 1960.78 574.641C1999.52 654.511 2017.18 743.878 2016.03 832.582C2015.11 958.434 1985.95 1090.66 1900.05 1185.66C1815.26 1281.26 1690.39 1329.92 1566.9 1355.47C1405.05 1390.82 1235.01 1323.91 1117.06 1211.64C1076.51 1172.89 1039.32 1128.89 1016.18 1077.56ZM1014.11 1078.45L1016.18 1077.56L1016.21 1077.66L1014.07 1078.36L1014.11 1078.45Z" fill="url(#paint3_linear_531_108)"/>
<path d="M1503.15 1165.27C1339.1 1199 1238.95 1055.03 1207.5 982.044C1162.15 844.256 1175.94 717.905 1246.6 622.123C1336.16 500.726 1422.22 484.072 1566.34 516.724C1723.8 552.398 1810.83 683.939 1808.93 835.023C1806.99 989.585 1708.2 1123.11 1503.15 1165.27Z" fill="url(#paint4_radial_531_108)"/>
<path d="M1208.53 981.599C1207.84 981.896 1207.15 982.193 1206.47 982.49C1220.02 1013.84 1238.28 1043.09 1259.85 1069.59C1315.97 1141.66 1411.45 1189.18 1503.6 1167.48C1664.54 1142.47 1816.88 1006.44 1811.89 835.06C1812.6 783.427 1802.81 731.37 1781.17 684.293C1742.59 597.327 1659.52 533.431 1566.97 513.937C1508.01 500.919 1445.35 491.323 1385.9 508.96C1326.15 526.322 1280.42 572.087 1244.79 620.785C1189.25 695.096 1170.9 792.173 1183.25 882.818C1187.6 916.698 1195.65 950.029 1206.43 982.396C1207.14 982.162 1207.86 981.927 1208.57 981.693C1198.06 949.369 1190.29 916.144 1186.19 882.451C1174.52 792.267 1193.31 696.488 1248.41 623.46C1284.03 575.241 1329.19 530.649 1387.39 513.973C1445.33 496.958 1507.1 506.423 1565.71 519.512C1656.75 538.932 1737.83 601.502 1775.72 686.797C1796.95 732.981 1806.62 784.134 1805.98 834.986C1810.91 1003.41 1662.46 1137.19 1502.69 1163.06C1412.35 1184.74 1318.44 1138.88 1262.13 1067.71C1240.57 1041.57 1222.21 1012.6 1208.53 981.599ZM1206.47 982.49L1208.53 981.599L1208.57 981.693L1206.43 982.396L1206.47 982.49Z" fill="url(#paint5_linear_531_108)"/>
<path d="M1500.24 1029.44C1387.72 1051.15 1318.93 958.09 1297.32 910.931C1266.13 821.901 1275.53 740.289 1323.96 678.453C1385.35 600.08 1444.38 589.366 1543.27 610.531C1651.32 633.654 1711.1 718.669 1709.87 816.263C1708.61 916.104 1640.9 1002.3 1500.24 1029.44Z" fill="url(#paint6_radial_531_108)"/>
<path d="M1298.34 910.462C1297.66 910.775 1296.97 911.087 1296.29 911.4C1305.77 932.095 1318.52 951.235 1333.45 968.453C1373.15 1016.07 1438.35 1045.25 1500.67 1031.66C1606.93 1016.26 1715.73 932.176 1712.83 816.3C1713.31 782.659 1706.43 748.731 1691.58 718.39C1664.01 660.25 1606.07 620.128 1543.87 607.738C1503.72 599.401 1461.36 593.221 1420.63 604.164C1379.67 614.865 1347.25 644.621 1322.2 677.077C1284.94 723.959 1271.62 786.745 1279.95 845.179C1282.94 867.768 1288.63 889.9 1296.25 911.303C1296.96 911.055 1297.67 910.807 1298.38 910.559C1291.03 889.203 1285.62 867.186 1282.89 844.805C1275.24 786.864 1288.92 725.469 1325.72 679.829C1372.5 608.806 1464.15 590.866 1542.67 613.323C1603.5 625.677 1659.43 664.658 1686.19 721.022C1700.59 750.454 1707.33 783.419 1706.91 816.226C1709.84 928.742 1605.1 1010.95 1499.81 1027.22C1439.16 1040.84 1375.49 1013.17 1335.67 966.496C1320.76 949.641 1307.93 930.798 1298.34 910.462ZM1296.29 911.4L1298.34 910.462L1298.38 910.559L1296.25 911.303L1296.29 911.4Z" fill="url(#paint7_linear_531_108)"/>
<path d="M1502.42 864.032C1443.92 875.316 1408.17 826.943 1396.93 802.429C1380.72 756.149 1385.6 713.725 1410.78 681.582C1442.69 640.842 1473.38 635.272 1524.78 646.274C1580.95 658.294 1612.02 702.487 1611.38 753.218C1610.73 805.118 1575.53 849.927 1502.42 864.032Z" fill="url(#paint8_radial_531_108)"/>
<path d="M1397.95 801.96C1397.27 802.272 1396.59 802.585 1395.91 802.897C1400.81 813.742 1407.42 823.762 1415.18 832.8C1435.79 857.779 1470.05 873.311 1502.85 866.254C1558.32 858.453 1615.84 814.297 1614.34 753.256C1614.61 735.568 1611 717.7 1603.17 701.71C1588.65 671.061 1558.04 649.931 1525.38 643.482C1504.43 639.167 1482.22 635.933 1460.71 641.757C1439.06 647.465 1422.05 663.213 1409.02 680.205C1389.54 704.874 1382.7 737.846 1387.2 768.339C1388.81 780.131 1391.84 791.664 1395.87 802.801C1396.58 802.553 1397.28 802.305 1397.99 802.057C1394.24 790.967 1391.5 779.55 1390.13 767.965C1386.32 737.965 1393.52 706.384 1412.54 682.958C1436.97 646.375 1483.4 637.473 1524.19 649.066C1555.47 655.479 1584.06 675.469 1597.78 704.342C1605.16 719.423 1608.63 736.328 1608.43 753.181C1609.95 810.863 1556.48 853.146 1501.99 861.809C1470.86 868.9 1438.13 854.881 1417.4 830.843C1409.66 822.169 1402.96 812.444 1397.95 801.96ZM1395.91 802.897L1397.95 801.96L1397.99 802.057L1395.87 802.801L1395.91 802.897Z" fill="url(#paint9_linear_531_108)"/>
<defs>
<radialGradient id="paint0_radial_531_108" cx="0" cy="0" r="1" gradientUnits="userSpaceOnUse" gradientTransform="translate(1497.01 1075.48) rotate(-87.1758) scale(947.151 843.062)">
<stop stop-color="white"/>
<stop offset="0.826969" stop-color="#FDF9FF"/>
<stop offset="1" stop-color="#E2B9FF"/>
</radialGradient>
<linearGradient id="paint1_linear_531_108" x1="698.761" y1="1009.85" x2="2723.42" y2="2061.01" gradientUnits="userSpaceOnUse">
<stop stop-color="#E2B9FF"/>
<stop offset="0.711538" stop-color="#E1BBFF"/>
<stop offset="1" stop-color="#BC79F1"/>
</linearGradient>
<radialGradient id="paint2_radial_531_108" cx="0" cy="0" r="1" gradientUnits="userSpaceOnUse" gradientTransform="translate(1496.4 859.065) rotate(-87.1758) scale(622.916 554.459)">
<stop stop-color="white"/>
<stop offset="0.826969" stop-color="#FDF9FF"/>
<stop offset="1" stop-color="#E2B9FF"/>
</radialGradient>
<linearGradient id="paint3_linear_531_108" x1="971.414" y1="815.903" x2="2302.98" y2="1507.22" gradientUnits="userSpaceOnUse">
<stop stop-color="#E2B9FF"/>
<stop offset="0.711538" stop-color="#E1BBFF"/>
<stop offset="1" stop-color="#BC79F1"/>
</linearGradient>
<radialGradient id="paint4_radial_531_108" cx="0" cy="0" r="1" gradientUnits="userSpaceOnUse" gradientTransform="translate(1495.73 859.136) rotate(-87.2245) scale(382.061 332.206)">
<stop stop-color="white"/>
<stop offset="0.826969" stop-color="#FDF9FF"/>
<stop offset="1" stop-color="#E2B9FF"/>
</radialGradient>
<linearGradient id="paint5_linear_531_108" x1="1181.2" y1="832.757" x2="1986.57" y2="1241.36" gradientUnits="userSpaceOnUse">
<stop stop-color="#E2B9FF"/>
<stop offset="0.711538" stop-color="#E1BBFF"/>
<stop offset="1" stop-color="#BC79F1"/>
</linearGradient>
<radialGradient id="paint6_radial_531_108" cx="0" cy="0" r="1" gradientUnits="userSpaceOnUse" gradientTransform="translate(1495 831.682) rotate(-87.097) scale(246.817 227.901)">
<stop stop-color="white"/>
<stop offset="0.826969" stop-color="#FDF9FF"/>
<stop offset="1" stop-color="#E2B9FF"/>
</radialGradient>
<linearGradient id="paint7_linear_531_108" x1="1279.2" y1="814.483" x2="1818.1" y2="1104.57" gradientUnits="userSpaceOnUse">
<stop stop-color="#E2B9FF"/>
<stop offset="0.711538" stop-color="#E1BBFF"/>
<stop offset="1" stop-color="#BC79F1"/>
</linearGradient>
<radialGradient id="paint8_radial_531_108" cx="0" cy="0" r="1" gradientUnits="userSpaceOnUse" gradientTransform="translate(1504.01 753.734) rotate(-89.2163) scale(112.163 103.567)">
<stop stop-color="white"/>
<stop offset="0.826969" stop-color="#FDF9FF"/>
<stop offset="1" stop-color="#E2B9FF"/>
</radialGradient>
<linearGradient id="paint9_linear_531_108" x1="1387.51" y1="752.293" x2="1667.64" y2="903.084" gradientUnits="userSpaceOnUse">
<stop stop-color="#E2B9FF"/>
<stop offset="0.711538" stop-color="#E1BBFF"/>
<stop offset="1" stop-color="#BC79F1"/>
</linearGradient>
</defs>
</svg>
